<svg width="24" height="25" viewBox="0 0 24 25" fill="none" xmlns="http://www.w3.org/2000/svg">
<g clip-path="url(#clip0_656_1411)">
<path d="M12 14.5C14.206 14.5 16 12.706 16 10.5C16 8.294 14.206 6.5 12 6.5C9.794 6.5 8 8.294 8 10.5C8 12.706 9.794 14.5 12 14.5ZM12 8.5C13.103 8.5 14 9.397 14 10.5C14 11.603 13.103 12.5 12 12.5C10.897 12.5 10 11.603 10 10.5C10 9.397 10.897 8.5 12 8.5Z" fill="#9FEF00"/>
<g filter="url(#filter0_d_656_1411)">
<path d="M11.42 22.314C11.5893 22.4349 11.7921 22.4998 12 22.4998C12.208 22.4998 12.4108 22.4349 12.58 22.314C12.884 22.099 20.029 16.94 20 10.5C20 6.089 16.411 2.5 12 2.5C7.58903 2.5 4.00003 6.089 4.00003 10.495C3.97103 16.94 11.116 22.099 11.42 22.314ZM12 4.5C15.309 4.5 18 7.191 18 10.505C18.021 14.943 13.612 18.928 12 20.235C10.389 18.927 5.97903 14.941 6.00003 10.5C6.00003 7.191 8.69103 4.5 12 4.5Z" fill="#9FEF00"/>
</g>
</g>
<defs>
<filter id="filter0_d_656_1411" x="-6.10352e-05" y="2.5" width="24.0002" height="27.9998" filterUnits="userSpaceOnUse" color-interpolation-filters="sRGB">
<feFlood flood-opacity="0" result="BackgroundImageFix"/>
<feColorMatrix in="SourceAlpha" type="matrix" values="0 0 0 0 0 0 0 0 0 0 0 0 0 0 0 0 0 0 127 0" result="hardAlpha"/>
<feOffset dy="4"/>
<feGaussianBlur stdDeviation="2"/>
<feComposite in2="hardAlpha" operator="out"/>
<feColorMatrix type="matrix" values="0 0 0 0 0 0 0 0 0 0 0 0 0 0 0 0 0 0 0.25 0"/>
<feBlend mode="normal" in2="BackgroundImageFix" result="effect1_dropShadow_656_1411"/>
<feBlend mode="normal" in="SourceGraphic" in2="effect1_dropShadow_656_1411" result="shape"/>
</filter>
<clipPath id="clip0_656_1411">
<rect width="24" height="24" fill="white" transform="translate(0 0.5)"/>
</clipPath>
</defs>
</svg>
