<svg width="62" height="27" viewBox="0 0 62 27" fill="none" xmlns="http://www.w3.org/2000/svg">
<g filter="url(#filter0_d_656_1221)">
<mask id="path-1-outside-1_656_1221" maskUnits="userSpaceOnUse" x="3" y="-1" width="56" height="21" fill="black">
<rect fill="white" x="3" y="-1" width="56" height="21"/>
<path d="M6.68229 16.3333H4.01562V3H6.68229V0.333334H17.349V3H20.0156V5.66667H14.6823V3H9.34896V16.3333H14.6823V13.6667H20.0156V16.3333H17.349V19H6.68229V16.3333ZM28.0052 19V3H22.6719V0.333334H38.6719V3H33.3385V19H28.0052ZM57.3281 0.333334V3H46.6615V8.33333H54.6615V11H46.6615V19H41.3281V0.333334H57.3281Z"/>
</mask>
<path d="M6.68229 16.3333H4.01562V3H6.68229V0.333334H17.349V3H20.0156V5.66667H14.6823V3H9.34896V16.3333H14.6823V13.6667H20.0156V16.3333H17.349V19H6.68229V16.3333ZM28.0052 19V3H22.6719V0.333334H38.6719V3H33.3385V19H28.0052ZM57.3281 0.333334V3H46.6615V8.33333H54.6615V11H46.6615V19H41.3281V0.333334H57.3281Z" fill="#FAF8F6"/>
<path d="M6.68229 16.3333H7.68229V15.3333H6.68229V16.3333ZM4.01562 16.3333H3.01562V17.3333H4.01562V16.3333ZM4.01562 3V2H3.01562V3H4.01562ZM6.68229 3V4H7.68229V3H6.68229ZM6.68229 0.333334V-0.666666H5.68229V0.333334H6.68229ZM17.349 0.333334H18.349V-0.666666H17.349V0.333334ZM17.349 3H16.349V4H17.349V3ZM20.0156 3H21.0156V2H20.0156V3ZM20.0156 5.66667V6.66667H21.0156V5.66667H20.0156ZM14.6823 5.66667H13.6823V6.66667H14.6823V5.66667ZM14.6823 3H15.6823V2H14.6823V3ZM9.34896 3V2H8.34896V3H9.34896ZM9.34896 16.3333H8.34896V17.3333H9.34896V16.3333ZM14.6823 16.3333V17.3333H15.6823V16.3333H14.6823ZM14.6823 13.6667V12.6667H13.6823V13.6667H14.6823ZM20.0156 13.6667H21.0156V12.6667H20.0156V13.6667ZM20.0156 16.3333V17.3333H21.0156V16.3333H20.0156ZM17.349 16.3333V15.3333H16.349V16.3333H17.349ZM17.349 19V20H18.349V19H17.349ZM6.68229 19H5.68229V20H6.68229V19ZM6.68229 15.3333H4.01562V17.3333H6.68229V15.3333ZM5.01562 16.3333V3H3.01562V16.3333H5.01562ZM4.01562 4H6.68229V2H4.01562V4ZM7.68229 3V0.333334H5.68229V3H7.68229ZM6.68229 1.33333H17.349V-0.666666H6.68229V1.33333ZM16.349 0.333334V3H18.349V0.333334H16.349ZM17.349 4H20.0156V2H17.349V4ZM19.0156 3V5.66667H21.0156V3H19.0156ZM20.0156 4.66667H14.6823V6.66667H20.0156V4.66667ZM15.6823 5.66667V3H13.6823V5.66667H15.6823ZM14.6823 2H9.34896V4H14.6823V2ZM8.34896 3V16.3333H10.349V3H8.34896ZM9.34896 17.3333H14.6823V15.3333H9.34896V17.3333ZM15.6823 16.3333V13.6667H13.6823V16.3333H15.6823ZM14.6823 14.6667H20.0156V12.6667H14.6823V14.6667ZM19.0156 13.6667V16.3333H21.0156V13.6667H19.0156ZM20.0156 15.3333H17.349V17.3333H20.0156V15.3333ZM16.349 16.3333V19H18.349V16.3333H16.349ZM17.349 18H6.68229V20H17.349V18ZM7.68229 19V16.3333H5.68229V19H7.68229ZM28.0052 19H27.0052V20H28.0052V19ZM28.0052 3H29.0052V2H28.0052V3ZM22.6719 3H21.6719V4H22.6719V3ZM22.6719 0.333334V-0.666666H21.6719V0.333334H22.6719ZM38.6719 0.333334H39.6719V-0.666666H38.6719V0.333334ZM38.6719 3V4H39.6719V3H38.6719ZM33.3385 3V2H32.3385V3H33.3385ZM33.3385 19V20H34.3385V19H33.3385ZM29.0052 19V3H27.0052V19H29.0052ZM28.0052 2H22.6719V4H28.0052V2ZM23.6719 3V0.333334H21.6719V3H23.6719ZM22.6719 1.33333H38.6719V-0.666666H22.6719V1.33333ZM37.6719 0.333334V3H39.6719V0.333334H37.6719ZM38.6719 2H33.3385V4H38.6719V2ZM32.3385 3V19H34.3385V3H32.3385ZM33.3385 18H28.0052V20H33.3385V18ZM57.3281 0.333334H58.3281V-0.666666H57.3281V0.333334ZM57.3281 3V4H58.3281V3H57.3281ZM46.6615 3V2H45.6615V3H46.6615ZM46.6615 8.33333H45.6615V9.33333H46.6615V8.33333ZM54.6615 8.33333H55.6615V7.33333H54.6615V8.33333ZM54.6615 11V12H55.6615V11H54.6615ZM46.6615 11V10H45.6615V11H46.6615ZM46.6615 19V20H47.6615V19H46.6615ZM41.3281 19H40.3281V20H41.3281V19ZM41.3281 0.333334V-0.666666H40.3281V0.333334H41.3281ZM56.3281 0.333334V3H58.3281V0.333334H56.3281ZM57.3281 2H46.6615V4H57.3281V2ZM45.6615 3V8.33333H47.6615V3H45.6615ZM46.6615 9.33333H54.6615V7.33333H46.6615V9.33333ZM53.6615 8.33333V11H55.6615V8.33333H53.6615ZM54.6615 10H46.6615V12H54.6615V10ZM45.6615 11V19H47.6615V11H45.6615ZM46.6615 18H41.3281V20H46.6615V18ZM42.3281 19V0.333334H40.3281V19H42.3281ZM41.3281 1.33333H57.3281V-0.666666H41.3281V1.33333Z" fill="black" mask="url(#path-1-outside-1_656_1221)"/>
</g>
<defs>
<filter id="filter0_d_656_1221" x="0.015625" y="0.333374" width="61.3125" height="26.6666" filterUnits="userSpaceOnUse" color-interpolation-filters="sRGB">
<feFlood flood-opacity="0" result="BackgroundImageFix"/>
<feColorMatrix in="SourceAlpha" type="matrix" values="0 0 0 0 0 0 0 0 0 0 0 0 0 0 0 0 0 0 127 0" result="hardAlpha"/>
<feOffset dy="4"/>
<feGaussianBlur stdDeviation="2"/>
<feComposite in2="hardAlpha" operator="out"/>
<feColorMatrix type="matrix" values="0 0 0 0 0 0 0 0 0 0 0 0 0 0 0 0 0 0 0.25 0"/>
<feBlend mode="normal" in2="BackgroundImageFix" result="effect1_dropShadow_656_1221"/>
<feBlend mode="normal" in="SourceGraphic" in2="effect1_dropShadow_656_1221" result="shape"/>
</filter>
</defs>
</svg>
