<svg width="125" height="72" viewBox="0 0 125 72" fill="none" xmlns="http://www.w3.org/2000/svg">
<path fill-rule="evenodd" clip-rule="evenodd" d="M57.2225 0.48999C53.1768 1.14824 51.3237 1.69958 47.1381 3.4893C46.6077 3.71614 46.1735 4.03379 46.1735 4.19484C46.1735 4.53579 48.659 8.5319 48.8709 8.5319C48.9494 8.5319 49.6766 8.21871 50.4872 7.83595C53.8148 6.26451 58.0065 5.44829 62.7533 5.44829C68.8376 5.44795 72.9826 6.51054 77.6901 9.27821C78.9157 9.99848 80.0483 10.5879 80.2076 10.5879C80.3665 10.5879 81.008 9.71476 81.6331 8.64771L82.7692 6.70757L81.7464 5.90266C80.3373 4.79381 74.8206 2.18102 72.4806 1.5142C69.831 0.759321 64.29 -0.0373635 61.9578 0.00135714C60.8967 0.0188328 58.7658 0.238819 57.2225 0.48999ZM42.6862 6.15691C41.8293 6.71991 40.3631 7.86885 39.428 8.71042C37.4978 10.4474 37.5097 10.5728 39.8131 12.7579L41.1976 14.0717L43.9486 11.9225C45.4618 10.7407 46.7645 9.72607 46.8442 9.6685C47.0171 9.5424 45.1921 6.13704 44.6358 5.54766C44.3338 5.22796 43.8883 5.36708 42.6862 6.15691ZM58.0391 6.28061C53.3164 7.09683 49.9901 8.40477 46.1261 10.9641C43.9209 12.4245 39.6599 16.5193 38.7096 18.0904C38.0165 19.237 37.8773 19.0581 41.0152 21.0507C42.6764 22.105 42.7399 22.1026 43.4369 20.9534C44.8901 18.5571 49.6471 14.6881 53.0109 13.1664C56.6981 11.4983 64.0403 10.7006 67.57 11.5847C70.8906 12.4163 70.5872 12.5393 71.4189 10.0245C71.8468 8.73064 72.0394 7.6211 71.8654 7.45114C71.3575 6.95497 66.8842 6.14561 63.7116 5.9753C61.9795 5.88244 59.6024 6.01026 58.0391 6.28061ZM60.0286 12.0003C56.8524 12.2837 52.1365 13.7911 52.1365 14.5226C52.1365 14.7892 54.0232 17.8036 54.7784 18.7435C54.824 18.8001 55.945 18.5006 57.2695 18.0781C61.9522 16.5837 67.3742 17.1947 71.6265 19.6961L73.6781 20.903L74.2418 20.1728C74.5519 19.7712 75.1811 18.7709 75.6399 17.9506L76.4744 16.4587L75.6175 15.7706C74.3056 14.7176 70.7896 13.1277 68.4469 12.528C65.8867 11.8728 63.2858 11.7097 60.0286 12.0003ZM48.3619 16.7235C47.3847 17.4777 46.4727 18.2734 46.3345 18.4917C46.1861 18.7264 46.8596 19.6458 47.9855 20.7457L49.887 22.6036L51.4391 21.245L52.9909 19.8866L52.3739 18.7494C50.3826 15.0795 50.4479 15.1124 48.3619 16.7235ZM58.9725 18.2593C56.0531 18.9526 53.2122 20.5634 50.8351 22.8736C49.6029 24.0712 48.6471 25.2047 48.7113 25.3925C48.7751 25.58 49.7141 26.2714 50.7976 26.9283L52.7675 28.1228L54.1923 26.6131C56.066 24.627 58.6834 23.2639 61.0886 23.0216L63.0101 22.8277V20.3057V17.7837L61.8701 17.8129C61.2429 17.829 59.9392 18.0298 58.9725 18.2593ZM36.1747 22.6605C34.8242 25.5419 34.8713 26.0703 36.5275 26.6299C39.8826 27.763 39.8612 27.762 40.2484 26.759C40.4442 26.2516 40.8395 25.3737 41.1267 24.8083C41.6241 23.829 41.6069 23.7477 40.7591 23.095C40.2698 22.7181 39.2305 22.0553 38.4501 21.6219L37.0305 20.8341L36.1747 22.6605ZM59.937 26.1224C56.809 27.2306 54.8166 30.0356 54.7861 33.3748C54.737 38.734 59.9272 42.5626 65.1644 41.0295C66.9077 40.5193 69.1565 38.6367 70.0372 36.9494C70.9482 35.2056 70.9562 32.0696 70.0551 30.0164C68.5658 26.6223 63.7537 24.7703 59.937 26.1224ZM47.0634 28.4943C46.4422 29.9468 45.7245 33.8302 45.9644 34.4408C46.0995 34.7845 46.8371 34.9168 48.618 34.9168H51.0842L51.0996 33.6318C51.108 32.9252 51.3423 31.73 51.6205 30.9762C51.8983 30.2223 52.1284 29.5692 52.1312 29.5247C52.1389 29.4092 47.988 27.3782 47.7439 27.3782C47.6323 27.3782 47.3261 27.8806 47.0634 28.4943ZM9.08885 49.8009C5.81379 50.576 3.31391 52.6169 1.71724 55.8191C0.919959 57.4183 0.778956 58.1451 0.78562 60.6163C0.795442 64.1327 1.78214 66.5934 4.08313 68.8412C8.26877 72.9302 15.2181 73.0611 19.2525 69.127C20.1691 68.2333 20.9186 67.2879 20.9186 67.0265C20.9186 66.7647 20.1101 66.1205 19.1217 65.5949L17.3244 64.6395L16.4601 65.7186C15.9845 66.312 15.1437 67.0261 14.5916 67.3051C13.305 67.9548 10.2986 67.9578 9.01695 67.3106C5.97128 65.772 4.52825 61.1218 6.01583 57.6379C7.89837 53.2293 12.835 52.1886 16.083 55.5155L17.3861 56.8502L18.9768 55.7547C19.852 55.1523 20.5679 54.4693 20.5679 54.2374C20.5679 53.5277 18.8207 51.739 17.2865 50.8779C15.9052 50.1028 12.8048 49.275 11.5186 49.3377C11.1903 49.3538 10.0969 49.5621 9.08885 49.8009ZM50.9088 49.5457C48.425 50.1035 47.5327 50.4427 46.0869 51.3782C44.3166 52.5237 42.3586 55.1752 41.6367 57.4049C40.5333 60.813 41.8486 65.8957 44.5807 68.7806C47.8459 72.2281 53.3995 73.0042 57.8546 70.6354C59.5039 69.7585 61.6074 67.6995 61.6067 66.9631C61.6063 66.7705 60.7957 66.1681 59.8048 65.6243L58.0033 64.6361L56.9114 65.8731C55.6374 67.3164 54.4511 67.8122 52.2715 67.8122C48.5692 67.8122 46.0328 64.852 46.0584 60.5598C46.0693 58.7259 46.2538 57.9724 46.9964 56.7347C49.2311 53.0099 53.8124 52.4257 56.7139 55.4953L57.9591 56.8128L59.5965 55.7163C60.4969 55.1132 61.2387 54.4457 61.245 54.2329C61.2629 53.6202 58.6287 51.1356 57.3404 50.55C55.1835 49.5693 52.5995 49.166 50.9088 49.5457ZM20.9186 49.8273C20.9186 50.083 22.523 52.8914 25.2551 57.4186C25.957 58.5813 26.5308 59.6137 26.5308 59.7134C26.5308 59.8128 27.0833 60.8151 27.7585 61.9407C28.9704 63.9604 28.9862 64.0381 28.9862 67.9554V71.9241H31.2661H33.5461V68.1186V64.313L36.2322 59.6377C37.7096 57.0664 39.5248 53.9081 40.266 52.6193C41.0071 51.3306 41.6136 50.1357 41.6136 49.9637C41.6136 49.7917 40.5466 49.6512 39.2428 49.6512C37.3617 49.6512 36.7941 49.7752 36.496 50.2508C36.2894 50.5808 35.1252 52.7009 33.9088 54.9624C32.6927 57.224 31.5979 59.185 31.4759 59.32C31.2833 59.5335 30.1139 57.5358 26.8199 51.3645L25.997 49.8225L23.4578 49.7218C22.0611 49.6666 20.9186 49.7139 20.9186 49.8273ZM64.4131 60.7877V71.9241H66.6857H68.9586L69.0533 65.0319L69.1484 58.1396L70.3263 59.7425C70.9745 60.6246 72.0794 62.0079 72.7816 62.8172C73.4842 63.6266 75.4526 66.0067 77.1559 68.1066L80.2528 71.9241H82.1543H84.0558V60.7877V49.6512H81.7828H79.5103L79.4152 56.6857L79.3205 63.7202L77.3913 61.2705C76.3303 59.9231 74.9886 58.2448 74.4098 57.5406C72.2312 54.8894 71.6904 54.2175 69.9201 51.9642L68.1035 49.6512H66.2581H64.4131V60.7877ZM88.2649 60.7877V71.9241H96.3325H104.4V69.8682V67.8122H98.7878H93.1756V65.0709V62.3296H97.9109H102.646V60.445V58.5604H97.9109H93.1756V56.1617V53.7631H98.6124H104.049V51.7072V49.6512H96.1571H88.2649V60.7877ZM105.522 51.6215L105.628 53.5918L109.223 53.6894L112.818 53.7871V62.8556V71.9241H115.098H117.378V62.8436V53.7631H121.061H124.744V51.7072V49.6512H115.081H105.417L105.522 51.6215Z" fill="#101700"/>
</svg>
