<svg width="194" height="194" viewBox="0 0 194 194" fill="none" xmlns="http://www.w3.org/2000/svg">
<path d="M107.747 109.805L113.644 106.519L116.93 112.415L128.763 105.82L132.071 111.756L137.968 108.469L141.255 114.365L135.358 117.652L138.645 123.549L126.813 130.144L130.121 136.08L124.224 139.367L127.511 145.263L133.408 141.977L136.716 147.912L148.549 141.317L151.836 147.214L169.565 137.331L166.278 131.435L178.11 124.839L174.802 118.904L180.698 115.617L174.103 103.785L180.038 100.476L170.156 82.7472L164.221 86.0557L157.647 74.2622L151.75 77.549L148.442 71.6135L136.61 78.2088L133.323 72.3121L115.594 82.1942L118.881 88.091L107.048 94.6863L110.357 100.622L104.46 103.909L107.747 109.805ZM137.308 93.3279L143.205 90.0411L146.492 95.9378L140.595 99.2247L137.308 93.3279Z" fill="#FFDD57"/>
<path d="M131.267 26.9326L125.37 30.2195L128.679 36.155L134.575 32.8682L131.267 26.9326Z" fill="#1786E2"/>
<path d="M123.443 54.5818L117.546 57.8687L120.833 63.7654L126.729 60.4785L123.443 54.5818Z" fill="#1786E2"/>
<path d="M113.539 36.8142L107.642 40.1011L110.951 46.0366L116.847 42.7498L113.539 36.8142Z" fill="#1786E2"/>
<path d="M103.657 19.0852L97.7599 22.3721L101.068 28.3076L106.965 25.0208L103.657 19.0852Z" fill="#1786E2"/>
<path d="M95.8116 46.6954L89.876 50.0039L93.1845 55.9394L99.12 52.631L95.8116 46.6954Z" fill="#1786E2"/>
<path d="M114.343 121.64L108.407 124.948L111.694 130.845L117.63 127.536L114.343 121.64Z" fill="#1786E2"/>
<path d="M19.104 89.4524L13.1685 92.7609L29.6459 122.322L35.5815 119.014L19.104 89.4524Z" fill="#1786E2"/>
<path d="M77.6362 56.8265L71.7006 60.135L88.1781 89.6963L94.1136 86.3878L77.6362 56.8265Z" fill="#1786E2"/>
<path d="M88.6228 89.4509L82.7261 92.7378L86.0345 98.6733L91.9313 95.3865L88.6228 89.4509Z" fill="#1786E2"/>
<path d="M65.5719 48.0967L59.6752 51.3835L66.2489 63.177L72.1456 59.8902L65.5719 48.0967Z" fill="#1786E2"/>
<path d="M79.436 86.8382L73.5393 90.125L76.8262 96.0217L82.7229 92.7349L79.436 86.8382Z" fill="#1786E2"/>
<path d="M56.3641 45.4462L50.4673 48.733L53.7758 54.6686L59.6726 51.3817L56.3641 45.4462Z" fill="#1786E2"/>
<path d="M96.6173 131.52L90.6818 134.828L93.9686 140.725L99.9041 137.417L96.6173 131.52Z" fill="#1786E2"/>
<path d="M76.8315 96.0234L70.896 99.3319L74.2045 105.267L80.14 101.959L76.8315 96.0234Z" fill="#1786E2"/>
<path d="M60.3529 66.4602L54.4174 69.7687L57.7258 75.7042L63.6614 72.3957L60.3529 66.4602Z" fill="#1786E2"/>
<path d="M67.6059 93.4323L61.7092 96.7191L64.996 102.616L70.8928 99.329L67.6059 93.4323Z" fill="#1786E2"/>
<path d="M64.9976 102.62L59.0621 105.928L62.3705 111.864L68.3061 108.555L64.9976 102.62Z" fill="#1786E2"/>
<path d="M48.519 73.0564L42.5834 76.3649L45.8919 82.3004L51.8274 78.9919L48.519 73.0564Z" fill="#1786E2"/>
<path d="M88.7316 159.153L82.8349 162.44L86.1217 168.337L92.0185 165.05L88.7316 159.153Z" fill="#1786E2"/>
<path d="M78.8492 141.424L72.9525 144.711L76.2393 150.608L82.136 147.321L78.8492 141.424Z" fill="#1786E2"/>
<path d="M68.967 123.695L63.0703 126.982L66.3571 132.879L72.2538 129.592L68.967 123.695Z" fill="#1786E2"/>
<path d="M55.7745 100.027L49.8778 103.314L53.1647 109.211L59.0614 105.924L55.7745 100.027Z" fill="#1786E2"/>
<path d="M47.1829 42.8364L17.6216 59.3138L20.9085 65.2106L50.4698 48.7331L47.1829 42.8364Z" fill="#1786E2"/>
<path d="M53.1654 109.215L47.2687 112.502L50.5771 118.437L56.4739 115.151L53.1654 109.215Z" fill="#1786E2"/>
<path d="M43.9794 106.602L38.0439 109.91L41.3307 115.807L47.2663 112.498L43.9794 106.602Z" fill="#1786E2"/>
<path d="M20.9075 65.2097L14.9719 68.5182L18.2804 74.4537L24.2159 71.1452L20.9075 65.2097Z" fill="#1786E2"/>
<path d="M61.1198 151.306L55.2231 154.593L58.5099 160.49L64.4067 157.203L61.1198 151.306Z" fill="#1786E2"/>
<path d="M41.3341 115.81L35.4373 119.097L38.7458 125.032L44.6425 121.745L41.3341 115.81Z" fill="#1786E2"/>
<path d="M18.2831 74.4556L12.3864 77.7424L18.9601 89.5359L24.8568 86.2491L18.2831 74.4556Z" fill="#1786E2"/>
</svg>
