<svg width="228" height="228" viewBox="0 0 228 228" fill="none" xmlns="http://www.w3.org/2000/svg">
<path d="M227.924 91.4257H216.575V136.888H227.924V91.4257Z" fill="#9A9A9A"/>
<path d="M227.924 91.4257H216.575V136.888H227.924V91.4257Z" fill="#9FEF00"/>
<path d="M68.6672 91.4265H80.0159V80.005H91.4392V68.6582H136.908V80.005H148.332V68.6582H182.452V80.005H193.801V171.004H205.224V148.31H216.573V136.888H205.224V91.4265H216.573V80.005H205.224V34.5431H193.801V45.8899H182.452V34.5431H159.68V23.1216L80.0159 23.1216V34.5431H68.6672V45.8899H57.3186V68.6582H45.8953V34.5431H34.5467V68.6582H23.198V80.005H68.6672V91.4265Z" fill="#9A9A9A"/>
<path d="M80.0158 91.4265H68.6671V80.005H57.3185V45.8899H68.6671V34.5431H80.0158V23.1216L159.68 23.1216V34.5431H182.452V45.8899H193.801V80.005H182.452V68.6582H148.332V80.005H136.908V68.6582H91.4391V80.005H80.0158V91.4265Z" fill="#9FEF00"/>
<path d="M193.801 171.004H182.453V182.426H193.801V171.004Z" fill="#9FEF00"/>
<path d="M193.801 23.1216H182.453V34.5431H193.801V23.1216Z" fill="#9A9A9A"/>
<path d="M182.455 148.31H171.031V159.657H182.455V148.31Z" fill="#9A9A9A"/>
<path d="M182.455 114.12H171.031V136.888H182.455V114.12Z" fill="#9A9A9A"/>
<path d="M182.455 11.7746H171.031V23.1214H182.455V11.7746Z" fill="#9A9A9A"/>
<path d="M80.0165 182.424V205.229H57.3192V216.576H34.5473V227.923H216.573V216.576H193.802V205.229H171.03V193.808H182.453V182.461L80.0165 182.424ZM159.681 216.539H114.212V205.229H91.4398V193.808H159.718L159.681 216.539Z" fill="#9A9A9A"/>
<path d="M171.029 159.657H136.908V171.004H171.029V159.657Z" fill="#9A9A9A"/>
<path d="M136.908 148.31H125.559V159.657H136.908V148.31Z" fill="#9A9A9A"/>
<path d="M125.563 114.12H114.214V136.888H125.563V114.12Z" fill="#9A9A9A"/>
<path d="M136.912 80.0041H114.214V91.4256H136.912V80.0041Z" fill="#9FEF00"/>
<path d="M91.4417 91.4257H80.0184V136.888H91.4417V91.4257Z" fill="#9A9A9A"/>
<path d="M171.032 0.427673L68.6699 0.427673V11.7745L171.032 11.7745V0.427673Z" fill="#9A9A9A"/>
<path d="M80.0185 171.004H68.6699V182.426H80.0185V171.004Z" fill="#9A9A9A"/>
<path d="M80.0185 136.888H68.6699V148.31H80.0185V136.888Z" fill="#9A9A9A"/>
<path d="M23.198 148.31V159.657H57.3186V171.004H68.6672V148.31H23.198Z" fill="#9A9A9A"/>
<path d="M68.6693 11.7746H57.3206V23.1214H68.6693V11.7746Z" fill="#9FEF00"/>
<path d="M57.3184 23.1216H45.8951V34.5431H57.3184V23.1216Z" fill="#9A9A9A"/>
<path d="M45.8959 91.4257H34.5473V102.773H45.8959V91.4257Z" fill="#9A9A9A"/>
<path d="M34.5467 102.773H23.198V125.541H34.5467V102.773Z" fill="#9A9A9A"/>
<path d="M23.1993 136.888H11.776V148.31H23.1993V136.888Z" fill="#9A9A9A"/>
<path d="M23.1993 80.004H11.776V91.4255H23.1993V80.004Z" fill="#9A9A9A"/>
<path d="M11.7761 91.4257H0.42749L0.42749 136.888H11.7761L11.7761 91.4257Z" fill="#9A9A9A"/>
<path d="M182.455 182.377H171.106V193.799H182.455V182.377Z" fill="#9FEF00"/>
<path d="M205.173 159.582H193.824V171.004H205.173V159.582Z" fill="#9FEF00"/>
</svg>
