<svg width="864" height="208" viewBox="0 0 864 208" fill="none" xmlns="http://www.w3.org/2000/svg">
<g filter="url(#filter0_d_656_1240)">
<path d="M84.832 27.6758H56.8535V85H44.1582V27.6758H16.1309V14.9805H84.832V27.6758ZM164.178 38.5156C164.178 41.4128 163.82 44.0007 163.104 46.2793C162.387 48.5579 161.411 50.5762 160.174 52.334C158.969 54.0592 157.57 55.5404 155.975 56.7773C154.38 58.0143 152.703 59.0397 150.945 59.8535C149.22 60.6348 147.462 61.2044 145.672 61.5625C143.914 61.9206 142.254 62.0996 140.691 62.0996L167.205 85H147.576L121.111 62.0996H111.98V49.4043H140.691C142.286 49.2741 143.735 48.9486 145.037 48.4277C146.372 47.8743 147.511 47.1419 148.455 46.2305C149.432 45.319 150.18 44.2285 150.701 42.959C151.222 41.6569 151.482 40.1758 151.482 38.5156V30.5078C151.482 29.7917 151.385 29.2546 151.189 28.8965C151.027 28.5059 150.799 28.2292 150.506 28.0664C150.245 27.8711 149.952 27.7572 149.627 27.7246C149.334 27.6921 149.057 27.6758 148.797 27.6758H106.902V85H94.207V21.377C94.207 20.498 94.3698 19.668 94.6953 18.8867C95.0208 18.1055 95.4603 17.4219 96.0137 16.8359C96.5996 16.25 97.2832 15.7943 98.0645 15.4688C98.8457 15.1432 99.6921 14.9805 100.604 14.9805H148.797C151.629 14.9805 154.021 15.5013 155.975 16.543C157.928 17.5521 159.507 18.8379 160.711 20.4004C161.948 21.9303 162.827 23.5905 163.348 25.3809C163.901 27.1712 164.178 28.8477 164.178 30.4102V38.5156ZM243.621 38.418C243.621 41.3151 243.247 43.903 242.498 46.1816C241.782 48.4603 240.822 50.4785 239.617 52.2363C238.413 53.9616 236.997 55.4427 235.369 56.6797C233.774 57.9167 232.114 58.9421 230.389 59.7559C228.663 60.5371 226.906 61.1068 225.115 61.4648C223.357 61.8229 221.697 62.002 220.135 62.002H215.008V85H202.215V62.002H197.137C195.574 62.002 193.898 61.8229 192.107 61.4648C190.35 61.1068 188.592 60.5371 186.834 59.7559C185.109 58.9421 183.449 57.9167 181.854 56.6797C180.258 55.4427 178.842 53.9616 177.605 52.2363C176.401 50.4785 175.424 48.4603 174.676 46.1816C173.96 43.8704 173.602 41.2826 173.602 38.418V14.9805H186.297V38.418C186.297 40.0781 186.557 41.5755 187.078 42.9102C187.599 44.2122 188.331 45.3353 189.275 46.2793C190.219 47.2233 191.359 47.9557 192.693 48.4766C194.061 48.9648 195.574 49.209 197.234 49.209H220.135C221.339 49.0137 222.576 48.7695 223.846 48.4766C225.115 48.151 226.271 47.6139 227.312 46.8652C228.354 46.1165 229.217 45.0749 229.9 43.7402C230.584 42.4056 230.926 40.6315 230.926 38.418V14.9805H243.621V38.418ZM348.895 27.6758H320.916V85H308.221V27.6758H280.193V14.9805H348.895V27.6758ZM430.779 56.6797C430.779 60.944 430.047 64.8665 428.582 68.4473C427.117 72.028 425.083 75.1204 422.479 77.7246C419.874 80.3288 416.782 82.3633 413.201 83.8281C409.653 85.2604 405.779 85.9766 401.58 85.9766H384.393C380.193 85.9766 376.303 85.2604 372.723 83.8281C369.142 82.3633 366.049 80.3288 363.445 77.7246C360.841 75.1204 358.79 72.028 357.293 68.4473C355.828 64.8665 355.096 60.944 355.096 56.6797V43.3008C355.096 39.069 355.828 35.1628 357.293 31.582C358.79 27.9688 360.841 24.8763 363.445 22.3047C366.049 19.7005 369.142 17.666 372.723 16.2012C376.303 14.7363 380.193 14.0039 384.393 14.0039H401.58C405.779 14.0039 409.653 14.7363 413.201 16.2012C416.782 17.666 419.874 19.7005 422.479 22.3047C425.083 24.8763 427.117 27.9688 428.582 31.582C430.047 35.1628 430.779 39.069 430.779 43.3008V56.6797ZM418.084 43.3008C418.084 40.7943 417.677 38.5319 416.863 36.5137C416.082 34.4629 414.959 32.7214 413.494 31.2891C412.062 29.8242 410.32 28.7012 408.27 27.9199C406.251 27.1061 404.021 26.6992 401.58 26.6992H384.393C381.919 26.6992 379.656 27.1061 377.605 27.9199C375.587 28.7012 373.846 29.8242 372.381 31.2891C370.916 32.7214 369.777 34.4629 368.963 36.5137C368.182 38.5319 367.791 40.7943 367.791 43.3008V56.6797C367.791 59.1862 368.182 61.4648 368.963 63.5156C369.777 65.5339 370.916 67.2754 372.381 68.7402C373.846 70.1725 375.587 71.2956 377.605 72.1094C379.656 72.8906 381.919 73.2812 384.393 73.2812H401.482C403.956 73.2812 406.202 72.8906 408.221 72.1094C410.271 71.2956 412.029 70.1725 413.494 68.7402C414.959 67.2754 416.082 65.5339 416.863 63.5156C417.677 61.4648 418.084 59.1862 418.084 56.6797V43.3008ZM543.133 64.3945C543.133 66.901 542.807 69.1634 542.156 71.1816C541.538 73.1673 540.708 74.9251 539.666 76.4551C538.624 77.985 537.404 79.2871 536.004 80.3613C534.604 81.4355 533.156 82.3145 531.658 82.998C530.161 83.6816 528.631 84.1862 527.068 84.5117C525.538 84.8372 524.09 85 522.723 85H473.748V72.3047H522.723C525.164 72.3047 527.052 71.5885 528.387 70.1562C529.754 68.724 530.438 66.8034 530.438 64.3945C530.438 63.2227 530.258 62.1484 529.9 61.1719C529.542 60.1953 529.021 59.349 528.338 58.6328C527.687 57.9167 526.873 57.3633 525.896 56.9727C524.952 56.582 523.895 56.3867 522.723 56.3867H493.523C491.473 56.3867 489.259 56.0286 486.883 55.3125C484.507 54.5638 482.293 53.3757 480.242 51.748C478.224 50.1204 476.531 47.9883 475.164 45.3516C473.829 42.7148 473.162 39.4922 473.162 35.6836C473.162 31.875 473.829 28.6686 475.164 26.0645C476.531 23.4277 478.224 21.2956 480.242 19.668C482.293 18.0078 484.507 16.8197 486.883 16.1035C489.259 15.3548 491.473 14.9805 493.523 14.9805H536.736V27.6758H493.523C491.115 27.6758 489.227 28.4082 487.859 29.873C486.525 31.3379 485.857 33.2747 485.857 35.6836C485.857 38.125 486.525 40.0618 487.859 41.4941C489.227 42.8939 491.115 43.5938 493.523 43.5938H522.723H522.82C524.188 43.6263 525.636 43.8216 527.166 44.1797C528.696 44.5052 530.21 45.026 531.707 45.7422C533.237 46.4583 534.686 47.3698 536.053 48.4766C537.42 49.5508 538.624 50.8529 539.666 52.3828C540.74 53.9128 541.587 55.6706 542.205 57.6562C542.824 59.6419 543.133 61.888 543.133 64.3945ZM616.18 27.6758H588.201V85H575.506V27.6758H547.479V14.9805H616.18V27.6758ZM683.123 56.3867H643.035V43.5938H683.123V56.3867ZM688.836 85H643.035C641.277 85 639.357 84.6908 637.273 84.0723C635.19 83.4538 633.253 82.4447 631.463 81.0449C629.705 79.6126 628.224 77.7734 627.02 75.5273C625.848 73.2487 625.262 70.4655 625.262 67.1777V21.377C625.262 20.498 625.424 19.668 625.75 18.8867C626.076 18.1055 626.515 17.4219 627.068 16.8359C627.654 16.25 628.338 15.7943 629.119 15.4688C629.9 15.1432 630.747 14.9805 631.658 14.9805H688.836V27.6758H637.957V67.1777C637.957 68.8379 638.396 70.1074 639.275 70.9863C640.154 71.8652 641.44 72.3047 643.133 72.3047H688.836V85ZM769.842 85H757.146V67.8125H712.518V85H699.822V49.9902C699.822 44.8796 700.701 40.1758 702.459 35.8789C704.217 31.582 706.658 27.8874 709.783 24.7949C712.908 21.7025 716.603 19.2936 720.867 17.5684C725.132 15.8431 729.786 14.9805 734.832 14.9805H763.445C764.324 14.9805 765.154 15.1432 765.936 15.4688C766.717 15.7943 767.4 16.25 767.986 16.8359C768.572 17.4219 769.028 18.1055 769.354 18.8867C769.679 19.668 769.842 20.498 769.842 21.377V85ZM712.518 55.1172H757.146V27.6758H734.832C734.441 27.6758 733.611 27.7409 732.342 27.8711C731.105 27.9688 729.656 28.2454 727.996 28.7012C726.368 29.1569 724.643 29.8568 722.82 30.8008C720.997 31.7448 719.321 33.0469 717.791 34.707C716.261 36.3672 714.992 38.4505 713.982 40.957C713.006 43.431 712.518 46.4421 712.518 49.9902V55.1172ZM848.943 85H791.033C790.122 85 789.275 84.8372 788.494 84.5117C787.713 84.1862 787.029 83.7467 786.443 83.1934C785.89 82.6074 785.451 81.9238 785.125 81.1426C784.799 80.3613 784.637 79.515 784.637 78.6035V14.9805H797.332V72.3047H848.943V85ZM213.152 127.676H185.174V185H172.479V127.676H144.451V114.98H213.152V127.676ZM235.32 143.594H279.9V114.98H292.596V185H279.9V156.387H235.32V185H222.625V114.98H235.32V143.594ZM365.057 156.387H324.969V143.594H365.057V156.387ZM370.77 185H324.969C323.211 185 321.29 184.691 319.207 184.072C317.124 183.454 315.187 182.445 313.396 181.045C311.639 179.613 310.158 177.773 308.953 175.527C307.781 173.249 307.195 170.465 307.195 167.178V121.377C307.195 120.498 307.358 119.668 307.684 118.887C308.009 118.105 308.449 117.422 309.002 116.836C309.588 116.25 310.271 115.794 311.053 115.469C311.834 115.143 312.68 114.98 313.592 114.98H370.77V127.676H319.891V167.178C319.891 168.838 320.33 170.107 321.209 170.986C322.088 171.865 323.374 172.305 325.066 172.305H370.77V185ZM473.504 156.387H433.367V143.594H473.504V156.387ZM479.168 127.676H428.289V185H415.594V121.377C415.594 120.498 415.757 119.668 416.082 118.887C416.408 118.105 416.847 117.422 417.4 116.836C417.986 116.25 418.67 115.794 419.451 115.469C420.232 115.143 421.079 114.98 421.99 114.98H479.168V127.676ZM553.729 185H495.818C494.907 185 494.061 184.837 493.279 184.512C492.498 184.186 491.814 183.747 491.229 183.193C490.675 182.607 490.236 181.924 489.91 181.143C489.585 180.361 489.422 179.515 489.422 178.604V114.98H502.117V172.305H553.729V185ZM631.756 185H619.061V167.812H574.432V185H561.736V149.99C561.736 144.88 562.615 140.176 564.373 135.879C566.131 131.582 568.572 127.887 571.697 124.795C574.822 121.702 578.517 119.294 582.781 117.568C587.046 115.843 591.701 114.98 596.746 114.98H625.359C626.238 114.98 627.068 115.143 627.85 115.469C628.631 115.794 629.314 116.25 629.9 116.836C630.486 117.422 630.942 118.105 631.268 118.887C631.593 119.668 631.756 120.498 631.756 121.377V185ZM574.432 155.117H619.061V127.676H596.746C596.355 127.676 595.525 127.741 594.256 127.871C593.019 127.969 591.57 128.245 589.91 128.701C588.283 129.157 586.557 129.857 584.734 130.801C582.911 131.745 581.235 133.047 579.705 134.707C578.175 136.367 576.906 138.451 575.896 140.957C574.92 143.431 574.432 146.442 574.432 149.99V155.117ZM715.643 178.604C715.643 179.515 715.48 180.361 715.154 181.143C714.829 181.924 714.373 182.607 713.787 183.193C713.234 183.747 712.566 184.186 711.785 184.512C711.004 184.837 710.158 185 709.246 185H663.445C662.273 185 661.004 184.87 659.637 184.609C658.302 184.316 656.967 183.877 655.633 183.291C654.331 182.705 653.077 181.956 651.873 181.045C650.669 180.101 649.594 178.978 648.65 177.676C647.739 176.341 647.007 174.811 646.453 173.086C645.9 171.328 645.623 169.359 645.623 167.178V132.803C645.623 131.631 645.753 130.378 646.014 129.043C646.307 127.676 646.746 126.341 647.332 125.039C647.918 123.704 648.683 122.435 649.627 121.23C650.571 120.026 651.694 118.968 652.996 118.057C654.331 117.113 655.861 116.364 657.586 115.811C659.311 115.257 661.264 114.98 663.445 114.98H715.057V127.676H663.445C661.785 127.676 660.516 128.115 659.637 128.994C658.758 129.873 658.318 131.175 658.318 132.9V167.178C658.318 168.805 658.758 170.075 659.637 170.986C660.548 171.865 661.818 172.305 663.445 172.305H702.947V156.387H669.158V143.594H709.246C710.158 143.594 711.004 143.773 711.785 144.131C712.566 144.456 713.234 144.912 713.787 145.498C714.373 146.084 714.829 146.768 715.154 147.549C715.48 148.298 715.643 149.111 715.643 149.99V178.604Z" fill="#101700"/>
<path d="M781.25 187.25V159H802.32L803.779 166.294L804.02 167.5H805.25H835H836.5V166V123.5V122H835H812.43L810.971 114.706L810.73 113.5H809.5H771.25H769.75V115V187.25V188.75H771.25H779.75H781.25V187.25Z" fill="#9FEF00" stroke="#101700" stroke-width="3"/>
</g>
<defs>
<filter id="filter0_d_656_1240" x="12.1309" y="14.0039" width="843.869" height="193.996" filterUnits="userSpaceOnUse" color-interpolation-filters="sRGB">
<feFlood flood-opacity="0" result="BackgroundImageFix"/>
<feColorMatrix in="SourceAlpha" type="matrix" values="0 0 0 0 0 0 0 0 0 0 0 0 0 0 0 0 0 0 127 0" result="hardAlpha"/>
<feOffset dy="4"/>
<feGaussianBlur stdDeviation="2"/>
<feComposite in2="hardAlpha" operator="out"/>
<feColorMatrix type="matrix" values="0 0 0 0 0 0 0 0 0 0 0 0 0 0 0 0 0 0 0.25 0"/>
<feBlend mode="normal" in2="BackgroundImageFix" result="effect1_dropShadow_656_1240"/>
<feBlend mode="normal" in="SourceGraphic" in2="effect1_dropShadow_656_1240" result="shape"/>
</filter>
</defs>
</svg>
