<svg width="659" height="57" viewBox="0 0 659 57" fill="none" xmlns="http://www.w3.org/2000/svg">
<path d="M6.30075 19V3.064H0.85275V1.336H13.6688V3.064H8.22075V19H6.30075ZM19.5872 19.144C18.2432 19.144 17.1792 18.944 16.3952 18.544C15.6272 18.144 15.0752 17.464 14.7392 16.504C14.4032 15.544 14.2352 14.232 14.2352 12.568C14.2352 10.872 14.4032 9.552 14.7392 8.608C15.0912 7.648 15.6592 6.976 16.4432 6.592C17.2272 6.208 18.2832 6.016 19.6112 6.016C20.7472 6.016 21.6672 6.144 22.3712 6.4C23.0912 6.656 23.6192 7.096 23.9552 7.72C24.3072 8.328 24.4832 9.176 24.4832 10.264C24.4832 11.016 24.3312 11.624 24.0272 12.088C23.7392 12.536 23.3152 12.864 22.7552 13.072C22.2112 13.264 21.5632 13.36 20.8112 13.36H16.1312C16.1472 14.4 16.2592 15.24 16.4672 15.88C16.6752 16.504 17.0512 16.96 17.5952 17.248C18.1552 17.52 18.9712 17.656 20.0432 17.656H24.1712V18.808C23.4352 18.904 22.7152 18.984 22.0112 19.048C21.3072 19.112 20.4992 19.144 19.5872 19.144ZM16.1072 12.112H20.6672C21.3872 12.112 21.9152 11.984 22.2512 11.728C22.6032 11.456 22.7792 10.976 22.7792 10.288C22.7792 9.552 22.6672 8.984 22.4432 8.584C22.2352 8.168 21.8992 7.88 21.4352 7.72C20.9872 7.544 20.3792 7.456 19.6112 7.456C18.7152 7.456 18.0112 7.592 17.4992 7.864C16.9872 8.12 16.6272 8.584 16.4192 9.256C16.2112 9.928 16.1072 10.88 16.1072 12.112ZM32.0916 19.144C31.7716 19.144 31.3796 19.136 30.9156 19.12C30.4516 19.104 29.9636 19.08 29.4516 19.048C28.9556 19.016 28.4996 18.984 28.0836 18.952C27.6836 18.904 27.3716 18.856 27.1476 18.808V17.656H32.4036C32.9316 17.656 33.3876 17.616 33.7716 17.536C34.1556 17.456 34.4516 17.28 34.6596 17.008C34.8836 16.736 34.9956 16.328 34.9956 15.784V15.208C34.9956 14.648 34.8116 14.216 34.4436 13.912C34.0756 13.592 33.4836 13.432 32.6676 13.432H30.8676C30.1156 13.432 29.4436 13.336 28.8516 13.144C28.2756 12.952 27.8276 12.624 27.5076 12.16C27.1876 11.696 27.0276 11.056 27.0276 10.24V9.568C27.0276 8.768 27.1796 8.112 27.4836 7.6C27.8036 7.088 28.2916 6.704 28.9476 6.448C29.6196 6.192 30.4836 6.064 31.5396 6.064C31.9876 6.064 32.4996 6.08 33.0756 6.112C33.6676 6.144 34.2436 6.192 34.8036 6.256C35.3636 6.304 35.8196 6.36 36.1716 6.424V7.576H31.2276C30.4116 7.576 29.7796 7.712 29.3316 7.984C28.8996 8.256 28.6836 8.784 28.6836 9.568V10.096C28.6836 10.592 28.7876 10.968 28.9956 11.224C29.2036 11.464 29.4916 11.624 29.8596 11.704C30.2436 11.784 30.6836 11.824 31.1796 11.824H33.0036C34.1716 11.824 35.0756 12.096 35.7156 12.64C36.3556 13.184 36.6756 13.968 36.6756 14.992V15.88C36.6756 16.744 36.4756 17.416 36.0756 17.896C35.6916 18.36 35.1556 18.688 34.4676 18.88C33.7956 19.056 33.0036 19.144 32.0916 19.144ZM43.9236 19C43.0916 19 42.4036 18.864 41.8596 18.592C41.3156 18.32 40.9156 17.88 40.6596 17.272C40.4036 16.664 40.2836 15.856 40.2996 14.848L40.3716 7.744H38.3316V6.52L40.3956 6.184L40.7076 2.608H42.1716V6.184H45.8676V7.744H42.1716V14.848C42.1716 15.408 42.2276 15.856 42.3396 16.192C42.4676 16.528 42.6276 16.784 42.8196 16.96C43.0276 17.136 43.2436 17.264 43.4676 17.344C43.6916 17.408 43.9076 17.448 44.1156 17.464L45.6756 17.608V19H43.9236ZM58.3888 24.688L60.0208 19C59.6208 18.984 59.2048 18.888 58.7728 18.712C58.3408 18.536 57.9408 18.232 57.5728 17.8C57.2048 17.368 56.9008 16.768 56.6608 16L53.5888 6.184H55.5808L58.4368 15.592C58.6128 16.088 58.7968 16.456 58.9888 16.696C59.1968 16.936 59.4048 17.104 59.6128 17.2C59.8208 17.296 59.9968 17.352 60.1408 17.368C60.3008 17.368 60.3968 17.368 60.4288 17.368L63.7168 6.184H65.6608L60.9808 22.312L59.8768 24.688H58.3888ZM73.0292 19.144C72.1012 19.144 71.2852 19.048 70.5812 18.856C69.8932 18.664 69.3172 18.328 68.8532 17.848C68.3892 17.368 68.0452 16.704 67.8212 15.856C67.5972 14.992 67.4852 13.896 67.4852 12.568C67.4852 11.224 67.5972 10.128 67.8212 9.28C68.0452 8.416 68.3892 7.752 68.8532 7.288C69.3172 6.808 69.8932 6.48 70.5812 6.304C71.2852 6.112 72.1012 6.016 73.0292 6.016C73.9572 6.016 74.7652 6.112 75.4532 6.304C76.1572 6.496 76.7412 6.832 77.2052 7.312C77.6692 7.776 78.0132 8.44 78.2372 9.304C78.4772 10.152 78.5972 11.24 78.5972 12.568C78.5972 13.912 78.4772 15.016 78.2372 15.88C78.0132 16.728 77.6692 17.392 77.2052 17.872C76.7572 18.336 76.1812 18.664 75.4772 18.856C74.7732 19.048 73.9572 19.144 73.0292 19.144ZM73.0292 17.584C73.6212 17.584 74.1412 17.528 74.5892 17.416C75.0532 17.304 75.4372 17.08 75.7412 16.744C76.0452 16.408 76.2772 15.904 76.4372 15.232C76.5972 14.56 76.6772 13.672 76.6772 12.568C76.6772 11.448 76.5972 10.56 76.4372 9.904C76.2772 9.248 76.0452 8.752 75.7412 8.416C75.4372 8.08 75.0532 7.856 74.5892 7.744C74.1412 7.632 73.6212 7.576 73.0292 7.576C72.4212 7.576 71.8932 7.632 71.4452 7.744C70.9972 7.856 70.6212 8.08 70.3172 8.416C70.0132 8.752 69.7812 9.248 69.6212 9.904C69.4612 10.56 69.3812 11.448 69.3812 12.568C69.3812 13.672 69.4612 14.56 69.6212 15.232C69.7812 15.904 70.0132 16.408 70.3172 16.744C70.6212 17.08 70.9972 17.304 71.4452 17.416C71.8932 17.528 72.4212 17.584 73.0292 17.584ZM85.6088 19.144C84.3768 19.144 83.4248 18.824 82.7528 18.184C82.0968 17.544 81.7688 16.552 81.7688 15.208V6.184H83.6648V14.728C83.6648 15.8 83.9048 16.528 84.3848 16.912C84.8808 17.28 85.5688 17.464 86.4488 17.464C87.2008 17.464 87.8888 17.36 88.5128 17.152C89.1368 16.928 89.7768 16.624 90.4328 16.24V6.184H92.3288V19H90.8408L90.4328 17.584C89.7768 18 89.0328 18.368 88.2008 18.688C87.3848 18.992 86.5208 19.144 85.6088 19.144ZM95.9021 19V6.184H97.3421L97.7981 8.416C98.3741 7.728 99.0141 7.16 99.7181 6.712C100.438 6.264 101.262 6.04 102.19 6.04C102.414 6.04 102.622 6.048 102.814 6.064C103.022 6.08 103.214 6.112 103.39 6.16V8.104C103.182 8.072 102.958 8.048 102.718 8.032C102.478 8 102.238 7.984 101.998 7.984C101.406 7.984 100.878 8.056 100.414 8.2C99.9501 8.344 99.5101 8.56 99.0941 8.848C98.6781 9.136 98.2461 9.488 97.7981 9.904V19H95.9021ZM112.262 19V0.688H114.158V7.6C114.75 7.168 115.454 6.792 116.27 6.472C117.102 6.136 117.966 5.968 118.862 5.968C119.758 5.968 120.494 6.16 121.07 6.544C121.662 6.928 122.094 7.448 122.366 8.104C122.654 8.76 122.798 9.488 122.798 10.288V19H120.902V10.48C120.902 9.936 120.79 9.456 120.566 9.04C120.358 8.624 120.054 8.296 119.654 8.056C119.254 7.816 118.774 7.696 118.214 7.696C117.686 7.696 117.198 7.752 116.75 7.864C116.302 7.96 115.87 8.104 115.454 8.296C115.038 8.472 114.606 8.688 114.158 8.944V19H112.262ZM128.867 19.144C127.923 19.144 127.147 18.864 126.539 18.304C125.931 17.744 125.627 16.952 125.627 15.928V15.016C125.627 14.008 125.955 13.192 126.611 12.568C127.283 11.944 128.291 11.632 129.635 11.632H133.979V10.048C133.979 9.52 133.883 9.072 133.691 8.704C133.515 8.32 133.187 8.024 132.707 7.816C132.243 7.608 131.563 7.504 130.667 7.504H126.683V6.376C127.243 6.28 127.891 6.192 128.627 6.112C129.379 6.032 130.259 5.992 131.267 5.992C132.307 5.976 133.171 6.104 133.859 6.376C134.547 6.648 135.051 7.08 135.371 7.672C135.707 8.248 135.875 9.008 135.875 9.952V19H134.411L134.051 17.536C133.987 17.6 133.787 17.712 133.451 17.872C133.131 18.032 132.715 18.216 132.203 18.424C131.707 18.616 131.163 18.784 130.571 18.928C129.995 19.072 129.427 19.144 128.867 19.144ZM129.659 17.728C129.947 17.744 130.275 17.712 130.643 17.632C131.011 17.552 131.387 17.464 131.771 17.368C132.155 17.256 132.507 17.144 132.827 17.032C133.163 16.92 133.435 16.824 133.643 16.744C133.851 16.664 133.963 16.624 133.979 16.624V12.592L130.067 12.76C129.155 12.792 128.499 13.016 128.099 13.432C127.715 13.848 127.523 14.384 127.523 15.04V15.616C127.523 16.128 127.627 16.544 127.835 16.864C128.059 17.168 128.331 17.384 128.651 17.512C128.987 17.64 129.323 17.712 129.659 17.728ZM144.105 19.144C143.385 19.144 142.713 19.048 142.089 18.856C141.465 18.664 140.921 18.328 140.457 17.848C139.993 17.368 139.633 16.704 139.377 15.856C139.121 15.008 138.993 13.928 138.993 12.616C138.993 11.288 139.113 10.2 139.353 9.352C139.593 8.488 139.937 7.816 140.385 7.336C140.833 6.856 141.377 6.52 142.017 6.328C142.657 6.136 143.369 6.04 144.153 6.04C144.793 6.04 145.489 6.072 146.241 6.136C146.993 6.184 147.713 6.264 148.401 6.376V7.504H144.657C143.841 7.504 143.153 7.64 142.593 7.912C142.033 8.184 141.609 8.696 141.321 9.448C141.033 10.184 140.889 11.256 140.889 12.664C140.889 14.024 141.041 15.064 141.345 15.784C141.649 16.504 142.081 17 142.641 17.272C143.201 17.528 143.881 17.656 144.681 17.656H148.593V18.76C148.225 18.824 147.793 18.888 147.297 18.952C146.817 19.016 146.305 19.064 145.761 19.096C145.217 19.128 144.665 19.144 144.105 19.144ZM151.215 19V0.688H153.111V11.296H154.935L158.847 6.184H160.863L156.351 12.16L161.151 19H159.135L154.863 13H153.111V19H151.215ZM163.643 3.904C163.387 3.904 163.259 3.776 163.259 3.52V1.648C163.259 1.392 163.387 1.264 163.643 1.264H164.987C165.115 1.264 165.203 1.304 165.251 1.384C165.315 1.448 165.347 1.536 165.347 1.648V3.52C165.347 3.776 165.227 3.904 164.987 3.904H163.643ZM163.355 19V6.184H165.251V19H163.355ZM168.91 19V6.184H170.398L170.806 7.6C171.414 7.168 172.126 6.792 172.942 6.472C173.758 6.136 174.606 5.968 175.486 5.968C176.43 5.968 177.19 6.168 177.766 6.568C178.342 6.968 178.766 7.496 179.038 8.152C179.31 8.808 179.446 9.52 179.446 10.288V19H177.55V10.504C177.55 9.96 177.438 9.48 177.214 9.064C177.006 8.632 176.702 8.296 176.302 8.056C175.918 7.816 175.438 7.696 174.862 7.696C174.334 7.696 173.838 7.752 173.374 7.864C172.926 7.96 172.494 8.104 172.078 8.296C171.678 8.472 171.254 8.688 170.806 8.944V19H168.91ZM186.163 24.88C185.331 24.88 184.595 24.76 183.955 24.52C183.331 24.296 182.835 23.944 182.467 23.464C182.115 23 181.939 22.416 181.939 21.712V21.136C181.939 20.4 182.139 19.784 182.539 19.288C182.955 18.792 183.475 18.424 184.099 18.184C184.723 17.928 185.363 17.8 186.019 17.8L186.499 18.568C186.019 18.568 185.571 18.648 185.155 18.808C184.739 18.952 184.395 19.192 184.123 19.528C183.867 19.864 183.739 20.296 183.739 20.824V21.352C183.739 22.12 183.995 22.664 184.507 22.984C185.019 23.32 185.715 23.488 186.595 23.488H189.571C190.531 23.488 191.283 23.304 191.827 22.936C192.387 22.568 192.667 21.992 192.667 21.208V20.728C192.667 20.28 192.579 19.896 192.403 19.576C192.227 19.256 191.931 19.008 191.515 18.832C191.115 18.656 190.547 18.568 189.811 18.568H185.947C184.955 18.568 184.179 18.36 183.619 17.944C183.075 17.512 182.803 16.96 182.803 16.288C182.803 15.648 182.987 15.144 183.355 14.776C183.739 14.408 184.275 14.152 184.963 14.008C184.371 13.768 183.907 13.448 183.571 13.048C183.235 12.632 183.003 12.192 182.875 11.728C182.747 11.248 182.683 10.768 182.683 10.288C182.683 9.296 182.883 8.496 183.283 7.888C183.683 7.28 184.251 6.84 184.987 6.568C185.739 6.296 186.619 6.16 187.627 6.16H194.467V7.24L191.587 7.48C191.795 7.624 192.027 7.816 192.283 8.056C192.539 8.28 192.755 8.608 192.931 9.04C193.123 9.456 193.219 10.032 193.219 10.768C193.219 11.424 193.075 12.048 192.787 12.64C192.515 13.232 192.051 13.72 191.395 14.104C190.739 14.472 189.835 14.656 188.683 14.656H186.643C185.971 14.656 185.435 14.76 185.035 14.968C184.651 15.16 184.459 15.512 184.459 16.024C184.459 16.408 184.603 16.68 184.891 16.84C185.179 17 185.483 17.08 185.803 17.08H190.051C191.043 17.08 191.859 17.208 192.499 17.464C193.155 17.72 193.643 18.112 193.963 18.64C194.299 19.152 194.467 19.808 194.467 20.608V21.136C194.467 22.304 194.067 23.216 193.267 23.872C192.483 24.544 191.307 24.88 189.739 24.88H186.163ZM187.051 13.192H188.491C189.307 13.192 189.923 13.072 190.339 12.832C190.771 12.576 191.067 12.248 191.227 11.848C191.387 11.448 191.467 11.016 191.467 10.552C191.467 9.832 191.347 9.264 191.107 8.848C190.883 8.416 190.563 8.112 190.147 7.936C189.731 7.744 189.251 7.648 188.707 7.648H187.339C186.427 7.648 185.707 7.856 185.179 8.272C184.667 8.672 184.411 9.376 184.411 10.384C184.411 11.376 184.643 12.096 185.107 12.544C185.587 12.976 186.235 13.192 187.051 13.192ZM207.732 19.144C207.412 19.144 207.02 19.136 206.556 19.12C206.092 19.104 205.604 19.08 205.092 19.048C204.596 19.016 204.14 18.984 203.724 18.952C203.324 18.904 203.012 18.856 202.788 18.808V17.656H208.044C208.572 17.656 209.028 17.616 209.412 17.536C209.796 17.456 210.092 17.28 210.3 17.008C210.524 16.736 210.636 16.328 210.636 15.784V15.208C210.636 14.648 210.452 14.216 210.084 13.912C209.716 13.592 209.124 13.432 208.308 13.432H206.508C205.756 13.432 205.084 13.336 204.492 13.144C203.916 12.952 203.468 12.624 203.148 12.16C202.828 11.696 202.668 11.056 202.668 10.24V9.568C202.668 8.768 202.82 8.112 203.124 7.6C203.444 7.088 203.932 6.704 204.588 6.448C205.26 6.192 206.124 6.064 207.18 6.064C207.628 6.064 208.14 6.08 208.716 6.112C209.308 6.144 209.884 6.192 210.444 6.256C211.004 6.304 211.46 6.36 211.812 6.424V7.576H206.868C206.052 7.576 205.42 7.712 204.972 7.984C204.54 8.256 204.324 8.784 204.324 9.568V10.096C204.324 10.592 204.428 10.968 204.636 11.224C204.844 11.464 205.132 11.624 205.5 11.704C205.884 11.784 206.324 11.824 206.82 11.824H208.644C209.812 11.824 210.716 12.096 211.356 12.64C211.996 13.184 212.316 13.968 212.316 14.992V15.88C212.316 16.744 212.116 17.416 211.716 17.896C211.332 18.36 210.796 18.688 210.108 18.88C209.436 19.056 208.644 19.144 207.732 19.144ZM215.316 19V0.688H217.212V11.296H219.036L222.948 6.184H224.964L220.452 12.16L225.252 19H223.236L218.964 13H217.212V19H215.316ZM227.745 3.904C227.489 3.904 227.361 3.776 227.361 3.52V1.648C227.361 1.392 227.489 1.264 227.745 1.264H229.089C229.217 1.264 229.305 1.304 229.353 1.384C229.417 1.448 229.449 1.536 229.449 1.648V3.52C229.449 3.776 229.329 3.904 229.089 3.904H227.745ZM227.457 19V6.184H229.353V19H227.457ZM236.372 19.024C235.636 19.024 235.02 18.896 234.524 18.64C234.028 18.368 233.652 17.936 233.396 17.344C233.14 16.736 233.012 15.92 233.012 14.896V0.688H234.908V14.656C234.908 15.424 234.98 16.008 235.124 16.408C235.268 16.792 235.476 17.064 235.748 17.224C236.02 17.368 236.34 17.464 236.708 17.512L238.004 17.656V19.024H236.372ZM243.426 19.024C242.69 19.024 242.074 18.896 241.578 18.64C241.082 18.368 240.706 17.936 240.45 17.344C240.194 16.736 240.066 15.92 240.066 14.896V0.688H241.962V14.656C241.962 15.424 242.034 16.008 242.178 16.408C242.322 16.792 242.53 17.064 242.802 17.224C243.074 17.368 243.394 17.464 243.762 17.512L245.058 17.656V19.024H243.426ZM251.537 19.144C251.217 19.144 250.825 19.136 250.361 19.12C249.897 19.104 249.409 19.08 248.897 19.048C248.401 19.016 247.945 18.984 247.529 18.952C247.129 18.904 246.817 18.856 246.593 18.808V17.656H251.849C252.377 17.656 252.833 17.616 253.217 17.536C253.601 17.456 253.897 17.28 254.105 17.008C254.329 16.736 254.441 16.328 254.441 15.784V15.208C254.441 14.648 254.257 14.216 253.889 13.912C253.521 13.592 252.929 13.432 252.113 13.432H250.313C249.561 13.432 248.889 13.336 248.297 13.144C247.721 12.952 247.273 12.624 246.953 12.16C246.633 11.696 246.473 11.056 246.473 10.24V9.568C246.473 8.768 246.625 8.112 246.929 7.6C247.249 7.088 247.737 6.704 248.393 6.448C249.065 6.192 249.929 6.064 250.985 6.064C251.433 6.064 251.945 6.08 252.521 6.112C253.113 6.144 253.689 6.192 254.249 6.256C254.809 6.304 255.265 6.36 255.617 6.424V7.576H250.673C249.857 7.576 249.225 7.712 248.777 7.984C248.345 8.256 248.129 8.784 248.129 9.568V10.096C248.129 10.592 248.233 10.968 248.441 11.224C248.649 11.464 248.937 11.624 249.305 11.704C249.689 11.784 250.129 11.824 250.625 11.824H252.449C253.617 11.824 254.521 12.096 255.161 12.64C255.801 13.184 256.121 13.968 256.121 14.992V15.88C256.121 16.744 255.921 17.416 255.521 17.896C255.137 18.36 254.601 18.688 253.913 18.88C253.241 19.056 252.449 19.144 251.537 19.144ZM259.457 20.872C259.297 20.872 259.153 20.856 259.025 20.824C258.913 20.808 258.857 20.8 258.857 20.8V20.2C259.033 20.2 259.161 20.168 259.241 20.104C259.321 20.056 259.361 19.952 259.361 19.792V18.88H259.169C259.073 18.88 258.985 18.848 258.905 18.784C258.825 18.72 258.785 18.624 258.785 18.496V16.768C258.785 16.48 258.913 16.336 259.169 16.336H260.201C260.361 16.336 260.465 16.376 260.513 16.456C260.561 16.536 260.585 16.64 260.585 16.768V19.696C260.585 20.016 260.521 20.264 260.393 20.44C260.281 20.616 260.137 20.728 259.961 20.776C259.801 20.84 259.633 20.872 259.457 20.872ZM274.81 19.144C274.49 19.144 274.098 19.136 273.634 19.12C273.17 19.104 272.682 19.08 272.17 19.048C271.674 19.016 271.218 18.984 270.802 18.952C270.402 18.904 270.09 18.856 269.866 18.808V17.656H275.122C275.65 17.656 276.106 17.616 276.49 17.536C276.874 17.456 277.17 17.28 277.378 17.008C277.602 16.736 277.714 16.328 277.714 15.784V15.208C277.714 14.648 277.53 14.216 277.162 13.912C276.794 13.592 276.202 13.432 275.386 13.432H273.586C272.834 13.432 272.162 13.336 271.57 13.144C270.994 12.952 270.546 12.624 270.226 12.16C269.906 11.696 269.746 11.056 269.746 10.24V9.568C269.746 8.768 269.898 8.112 270.202 7.6C270.522 7.088 271.01 6.704 271.666 6.448C272.338 6.192 273.202 6.064 274.258 6.064C274.706 6.064 275.218 6.08 275.794 6.112C276.386 6.144 276.962 6.192 277.522 6.256C278.082 6.304 278.538 6.36 278.89 6.424V7.576H273.946C273.13 7.576 272.498 7.712 272.05 7.984C271.618 8.256 271.402 8.784 271.402 9.568V10.096C271.402 10.592 271.506 10.968 271.714 11.224C271.922 11.464 272.21 11.624 272.578 11.704C272.962 11.784 273.402 11.824 273.898 11.824H275.722C276.89 11.824 277.794 12.096 278.434 12.64C279.074 13.184 279.394 13.968 279.394 14.992V15.88C279.394 16.744 279.194 17.416 278.794 17.896C278.41 18.36 277.874 18.688 277.186 18.88C276.514 19.056 275.722 19.144 274.81 19.144ZM287.482 19.144C286.554 19.144 285.738 19.048 285.034 18.856C284.346 18.664 283.77 18.328 283.306 17.848C282.842 17.368 282.498 16.704 282.274 15.856C282.05 14.992 281.938 13.896 281.938 12.568C281.938 11.224 282.05 10.128 282.274 9.28C282.498 8.416 282.842 7.752 283.306 7.288C283.77 6.808 284.346 6.48 285.034 6.304C285.738 6.112 286.554 6.016 287.482 6.016C288.41 6.016 289.218 6.112 289.906 6.304C290.61 6.496 291.194 6.832 291.658 7.312C292.122 7.776 292.466 8.44 292.69 9.304C292.93 10.152 293.05 11.24 293.05 12.568C293.05 13.912 292.93 15.016 292.69 15.88C292.466 16.728 292.122 17.392 291.658 17.872C291.21 18.336 290.634 18.664 289.93 18.856C289.226 19.048 288.41 19.144 287.482 19.144ZM287.482 17.584C288.074 17.584 288.594 17.528 289.042 17.416C289.506 17.304 289.89 17.08 290.194 16.744C290.498 16.408 290.73 15.904 290.89 15.232C291.05 14.56 291.13 13.672 291.13 12.568C291.13 11.448 291.05 10.56 290.89 9.904C290.73 9.248 290.498 8.752 290.194 8.416C289.89 8.08 289.506 7.856 289.042 7.744C288.594 7.632 288.074 7.576 287.482 7.576C286.874 7.576 286.346 7.632 285.898 7.744C285.45 7.856 285.074 8.08 284.77 8.416C284.466 8.752 284.234 9.248 284.074 9.904C283.914 10.56 283.834 11.448 283.834 12.568C283.834 13.672 283.914 14.56 284.074 15.232C284.234 15.904 284.466 16.408 284.77 16.744C285.074 17.08 285.45 17.304 285.898 17.416C286.346 17.528 286.874 17.584 287.482 17.584ZM299.606 19.024C298.87 19.024 298.254 18.896 297.758 18.64C297.262 18.368 296.886 17.936 296.63 17.344C296.374 16.736 296.246 15.92 296.246 14.896V0.688H298.142V14.656C298.142 15.424 298.214 16.008 298.358 16.408C298.502 16.792 298.71 17.064 298.982 17.224C299.254 17.368 299.574 17.464 299.942 17.512L301.238 17.656V19.024H299.606ZM306.757 19L301.933 6.184H303.877L307.861 17.224L311.965 6.184H313.885L308.917 19H306.757ZM320.595 19.144C319.251 19.144 318.187 18.944 317.403 18.544C316.635 18.144 316.083 17.464 315.747 16.504C315.411 15.544 315.243 14.232 315.243 12.568C315.243 10.872 315.411 9.552 315.747 8.608C316.099 7.648 316.667 6.976 317.451 6.592C318.235 6.208 319.291 6.016 320.619 6.016C321.755 6.016 322.675 6.144 323.379 6.4C324.099 6.656 324.627 7.096 324.963 7.72C325.315 8.328 325.491 9.176 325.491 10.264C325.491 11.016 325.339 11.624 325.035 12.088C324.747 12.536 324.323 12.864 323.763 13.072C323.219 13.264 322.571 13.36 321.819 13.36H317.139C317.155 14.4 317.267 15.24 317.475 15.88C317.683 16.504 318.059 16.96 318.603 17.248C319.163 17.52 319.979 17.656 321.051 17.656H325.179V18.808C324.443 18.904 323.723 18.984 323.019 19.048C322.315 19.112 321.507 19.144 320.595 19.144ZM317.115 12.112H321.675C322.395 12.112 322.923 11.984 323.259 11.728C323.611 11.456 323.787 10.976 323.787 10.288C323.787 9.552 323.675 8.984 323.451 8.584C323.243 8.168 322.907 7.88 322.443 7.72C321.995 7.544 321.387 7.456 320.619 7.456C319.723 7.456 319.019 7.592 318.507 7.864C317.995 8.12 317.635 8.584 317.427 9.256C317.219 9.928 317.115 10.88 317.115 12.112ZM335.152 24.688V6.184H336.688L337.048 7.504C337.336 7.296 337.704 7.08 338.152 6.856C338.616 6.616 339.112 6.416 339.64 6.256C340.184 6.096 340.72 6.016 341.248 6.016C342.08 6.016 342.784 6.2 343.36 6.568C343.952 6.92 344.432 7.4 344.8 8.008C345.168 8.616 345.432 9.312 345.592 10.096C345.752 10.88 345.832 11.704 345.832 12.568C345.832 14.008 345.664 15.224 345.328 16.216C345.008 17.192 344.512 17.928 343.84 18.424C343.168 18.92 342.304 19.168 341.248 19.168C340.528 19.168 339.8 19.056 339.064 18.832C338.344 18.592 337.672 18.296 337.048 17.944V24.688H335.152ZM340.72 17.56C341.328 17.56 341.872 17.408 342.352 17.104C342.832 16.8 343.216 16.288 343.504 15.568C343.792 14.832 343.936 13.832 343.936 12.568C343.936 11.368 343.784 10.408 343.48 9.688C343.176 8.952 342.784 8.424 342.304 8.104C341.824 7.768 341.296 7.6 340.72 7.6C339.984 7.6 339.304 7.72 338.68 7.96C338.072 8.184 337.528 8.424 337.048 8.68V16.528C337.608 16.832 338.2 17.08 338.824 17.272C339.464 17.464 340.096 17.56 340.72 17.56ZM352.843 19.144C351.611 19.144 350.659 18.824 349.987 18.184C349.331 17.544 349.003 16.552 349.003 15.208V6.184H350.899V14.728C350.899 15.8 351.139 16.528 351.619 16.912C352.115 17.28 352.803 17.464 353.683 17.464C354.435 17.464 355.123 17.36 355.747 17.152C356.371 16.928 357.011 16.624 357.667 16.24V6.184H359.563V19H358.075L357.667 17.584C357.011 18 356.267 18.368 355.435 18.688C354.619 18.992 353.755 19.144 352.843 19.144ZM362.537 19V17.56L369.929 7.744H362.345V6.184H372.137V7.624L364.721 17.44H372.137V19H362.537ZM374.396 19V17.56L381.788 7.744H374.204V6.184H383.996V7.624L376.58 17.44H383.996V19H374.396ZM390.215 19.024C389.479 19.024 388.863 18.896 388.367 18.64C387.871 18.368 387.495 17.936 387.239 17.344C386.983 16.736 386.855 15.92 386.855 14.896V0.688H388.751V14.656C388.751 15.424 388.823 16.008 388.967 16.408C389.111 16.792 389.319 17.064 389.591 17.224C389.863 17.368 390.183 17.464 390.551 17.512L391.847 17.656V19.024H390.215ZM398.806 19.144C397.462 19.144 396.398 18.944 395.614 18.544C394.846 18.144 394.294 17.464 393.958 16.504C393.622 15.544 393.454 14.232 393.454 12.568C393.454 10.872 393.622 9.552 393.958 8.608C394.31 7.648 394.878 6.976 395.662 6.592C396.446 6.208 397.502 6.016 398.83 6.016C399.966 6.016 400.886 6.144 401.59 6.4C402.31 6.656 402.838 7.096 403.174 7.72C403.526 8.328 403.702 9.176 403.702 10.264C403.702 11.016 403.55 11.624 403.246 12.088C402.958 12.536 402.534 12.864 401.974 13.072C401.43 13.264 400.782 13.36 400.03 13.36H395.35C395.366 14.4 395.478 15.24 395.686 15.88C395.894 16.504 396.27 16.96 396.814 17.248C397.374 17.52 398.19 17.656 399.262 17.656H403.39V18.808C402.654 18.904 401.934 18.984 401.23 19.048C400.526 19.112 399.718 19.144 398.806 19.144ZM395.326 12.112H399.886C400.606 12.112 401.134 11.984 401.47 11.728C401.822 11.456 401.998 10.976 401.998 10.288C401.998 9.552 401.886 8.984 401.662 8.584C401.454 8.168 401.118 7.88 400.654 7.72C400.206 7.544 399.598 7.456 398.83 7.456C397.934 7.456 397.23 7.592 396.718 7.864C396.206 8.12 395.846 8.584 395.638 9.256C395.43 9.928 395.326 10.88 395.326 12.112ZM411.31 19.144C410.99 19.144 410.598 19.136 410.134 19.12C409.67 19.104 409.182 19.08 408.67 19.048C408.174 19.016 407.718 18.984 407.302 18.952C406.902 18.904 406.59 18.856 406.366 18.808V17.656H411.622C412.15 17.656 412.606 17.616 412.99 17.536C413.374 17.456 413.67 17.28 413.878 17.008C414.102 16.736 414.214 16.328 414.214 15.784V15.208C414.214 14.648 414.03 14.216 413.662 13.912C413.294 13.592 412.702 13.432 411.886 13.432H410.086C409.334 13.432 408.662 13.336 408.07 13.144C407.494 12.952 407.046 12.624 406.726 12.16C406.406 11.696 406.246 11.056 406.246 10.24V9.568C406.246 8.768 406.398 8.112 406.702 7.6C407.022 7.088 407.51 6.704 408.166 6.448C408.838 6.192 409.702 6.064 410.758 6.064C411.206 6.064 411.718 6.08 412.294 6.112C412.886 6.144 413.462 6.192 414.022 6.256C414.582 6.304 415.038 6.36 415.39 6.424V7.576H410.446C409.63 7.576 408.998 7.712 408.55 7.984C408.118 8.256 407.902 8.784 407.902 9.568V10.096C407.902 10.592 408.006 10.968 408.214 11.224C408.422 11.464 408.71 11.624 409.078 11.704C409.462 11.784 409.902 11.824 410.398 11.824H412.222C413.39 11.824 414.294 12.096 414.934 12.64C415.574 13.184 415.894 13.968 415.894 14.992V15.88C415.894 16.744 415.694 17.416 415.294 17.896C414.91 18.36 414.374 18.688 413.686 18.88C413.014 19.056 412.222 19.144 411.31 19.144ZM419.23 20.872C419.07 20.872 418.926 20.856 418.798 20.824C418.686 20.808 418.63 20.8 418.63 20.8V20.2C418.806 20.2 418.934 20.168 419.014 20.104C419.094 20.056 419.134 19.952 419.134 19.792V18.88H418.942C418.846 18.88 418.758 18.848 418.678 18.784C418.598 18.72 418.558 18.624 418.558 18.496V16.768C418.558 16.48 418.686 16.336 418.942 16.336H419.974C420.134 16.336 420.238 16.376 420.286 16.456C420.334 16.536 420.358 16.64 420.358 16.768V19.696C420.358 20.016 420.294 20.264 420.166 20.44C420.054 20.616 419.91 20.728 419.734 20.776C419.574 20.84 419.406 20.872 419.23 20.872ZM432.664 19.144C431.72 19.144 430.944 18.864 430.336 18.304C429.728 17.744 429.424 16.952 429.424 15.928V15.016C429.424 14.008 429.752 13.192 430.408 12.568C431.08 11.944 432.088 11.632 433.432 11.632H437.776V10.048C437.776 9.52 437.68 9.072 437.488 8.704C437.312 8.32 436.984 8.024 436.504 7.816C436.04 7.608 435.36 7.504 434.464 7.504H430.48V6.376C431.04 6.28 431.688 6.192 432.424 6.112C433.176 6.032 434.056 5.992 435.064 5.992C436.104 5.976 436.968 6.104 437.656 6.376C438.344 6.648 438.848 7.08 439.168 7.672C439.504 8.248 439.672 9.008 439.672 9.952V19H438.208L437.848 17.536C437.784 17.6 437.584 17.712 437.248 17.872C436.928 18.032 436.512 18.216 436 18.424C435.504 18.616 434.96 18.784 434.368 18.928C433.792 19.072 433.224 19.144 432.664 19.144ZM433.456 17.728C433.744 17.744 434.072 17.712 434.44 17.632C434.808 17.552 435.184 17.464 435.568 17.368C435.952 17.256 436.304 17.144 436.624 17.032C436.96 16.92 437.232 16.824 437.44 16.744C437.648 16.664 437.76 16.624 437.776 16.624V12.592L433.864 12.76C432.952 12.792 432.296 13.016 431.896 13.432C431.512 13.848 431.32 14.384 431.32 15.04V15.616C431.32 16.128 431.424 16.544 431.632 16.864C431.856 17.168 432.128 17.384 432.448 17.512C432.784 17.64 433.12 17.712 433.456 17.728ZM443.246 19V6.184H444.734L445.142 7.6C445.75 7.168 446.462 6.792 447.278 6.472C448.094 6.136 448.942 5.968 449.822 5.968C450.766 5.968 451.526 6.168 452.102 6.568C452.678 6.968 453.102 7.496 453.374 8.152C453.646 8.808 453.782 9.52 453.782 10.288V19H451.886V10.504C451.886 9.96 451.774 9.48 451.55 9.064C451.342 8.632 451.038 8.296 450.638 8.056C450.254 7.816 449.774 7.696 449.198 7.696C448.67 7.696 448.174 7.752 447.71 7.864C447.262 7.96 446.83 8.104 446.414 8.296C446.014 8.472 445.59 8.688 445.142 8.944V19H443.246ZM461.507 19.144C460.451 19.144 459.579 18.92 458.891 18.472C458.219 18.008 457.715 17.304 457.379 16.36C457.059 15.4 456.899 14.176 456.899 12.688C456.899 11.104 457.059 9.824 457.379 8.848C457.699 7.856 458.211 7.136 458.915 6.688C459.619 6.24 460.563 6.016 461.747 6.016C462.467 6.016 463.171 6.096 463.859 6.256C464.547 6.416 465.155 6.592 465.683 6.784V0.688H467.579V19H466.043L465.683 17.704C465.443 17.912 465.083 18.128 464.603 18.352C464.139 18.576 463.627 18.768 463.067 18.928C462.523 19.072 462.003 19.144 461.507 19.144ZM462.059 17.584C462.795 17.584 463.459 17.472 464.051 17.248C464.659 17.008 465.203 16.76 465.683 16.504V8.128C465.107 7.952 464.555 7.808 464.027 7.696C463.499 7.568 462.907 7.504 462.251 7.504C461.435 7.504 460.771 7.656 460.259 7.96C459.747 8.264 459.371 8.792 459.131 9.544C458.907 10.28 458.795 11.304 458.795 12.616C458.795 13.8 458.899 14.76 459.107 15.496C459.331 16.232 459.683 16.768 460.163 17.104C460.643 17.424 461.275 17.584 462.059 17.584ZM482.285 19.144C481.565 19.144 480.893 19.048 480.269 18.856C479.645 18.664 479.101 18.328 478.637 17.848C478.173 17.368 477.813 16.704 477.557 15.856C477.301 15.008 477.173 13.928 477.173 12.616C477.173 11.288 477.293 10.2 477.533 9.352C477.773 8.488 478.117 7.816 478.565 7.336C479.013 6.856 479.557 6.52 480.197 6.328C480.837 6.136 481.549 6.04 482.333 6.04C482.973 6.04 483.669 6.072 484.421 6.136C485.173 6.184 485.893 6.264 486.581 6.376V7.504H482.837C482.021 7.504 481.333 7.64 480.773 7.912C480.213 8.184 479.789 8.696 479.501 9.448C479.213 10.184 479.069 11.256 479.069 12.664C479.069 14.024 479.221 15.064 479.525 15.784C479.829 16.504 480.261 17 480.821 17.272C481.381 17.528 482.061 17.656 482.861 17.656H486.773V18.76C486.405 18.824 485.973 18.888 485.477 18.952C484.997 19.016 484.485 19.064 483.941 19.096C483.397 19.128 482.845 19.144 482.285 19.144ZM494.482 19.144C493.554 19.144 492.738 19.048 492.034 18.856C491.346 18.664 490.77 18.328 490.306 17.848C489.842 17.368 489.498 16.704 489.274 15.856C489.05 14.992 488.938 13.896 488.938 12.568C488.938 11.224 489.05 10.128 489.274 9.28C489.498 8.416 489.842 7.752 490.306 7.288C490.77 6.808 491.346 6.48 492.034 6.304C492.738 6.112 493.554 6.016 494.482 6.016C495.41 6.016 496.218 6.112 496.906 6.304C497.61 6.496 498.194 6.832 498.658 7.312C499.122 7.776 499.466 8.44 499.69 9.304C499.93 10.152 500.05 11.24 500.05 12.568C500.05 13.912 499.93 15.016 499.69 15.88C499.466 16.728 499.122 17.392 498.658 17.872C498.21 18.336 497.634 18.664 496.93 18.856C496.226 19.048 495.41 19.144 494.482 19.144ZM494.482 17.584C495.074 17.584 495.594 17.528 496.042 17.416C496.506 17.304 496.89 17.08 497.194 16.744C497.498 16.408 497.73 15.904 497.89 15.232C498.05 14.56 498.13 13.672 498.13 12.568C498.13 11.448 498.05 10.56 497.89 9.904C497.73 9.248 497.498 8.752 497.194 8.416C496.89 8.08 496.506 7.856 496.042 7.744C495.594 7.632 495.074 7.576 494.482 7.576C493.874 7.576 493.346 7.632 492.898 7.744C492.45 7.856 492.074 8.08 491.77 8.416C491.466 8.752 491.234 9.248 491.074 9.904C490.914 10.56 490.834 11.448 490.834 12.568C490.834 13.672 490.914 14.56 491.074 15.232C491.234 15.904 491.466 16.408 491.77 16.744C492.074 17.08 492.45 17.304 492.898 17.416C493.346 17.528 493.874 17.584 494.482 17.584ZM503.246 19V6.184H504.734L505.142 7.6C505.782 7.152 506.494 6.768 507.278 6.448C508.078 6.128 508.966 5.968 509.942 5.968C510.742 5.968 511.422 6.152 511.982 6.52C512.558 6.872 512.99 7.32 513.278 7.864C513.678 7.576 514.158 7.288 514.718 7C515.294 6.712 515.902 6.472 516.542 6.28C517.198 6.072 517.83 5.968 518.438 5.968C519.366 5.968 520.126 6.168 520.718 6.568C521.31 6.952 521.742 7.48 522.014 8.152C522.302 8.808 522.446 9.544 522.446 10.36V19H520.55V10.504C520.55 9.96 520.438 9.48 520.214 9.064C520.006 8.632 519.702 8.296 519.302 8.056C518.902 7.816 518.414 7.696 517.838 7.696C517.118 7.696 516.382 7.832 515.63 8.104C514.878 8.376 514.182 8.704 513.542 9.088C513.622 9.328 513.678 9.568 513.71 9.808C513.758 10.032 513.782 10.272 513.782 10.528V19H511.886V10.504C511.886 9.96 511.774 9.48 511.55 9.064C511.342 8.632 511.038 8.296 510.638 8.056C510.254 7.816 509.774 7.696 509.198 7.696C508.67 7.696 508.174 7.752 507.71 7.864C507.262 7.96 506.83 8.104 506.414 8.296C506.014 8.472 505.59 8.688 505.142 8.944V19H503.246ZM526.004 24.688V6.184H527.54L527.9 7.504C528.188 7.296 528.556 7.08 529.004 6.856C529.468 6.616 529.964 6.416 530.492 6.256C531.036 6.096 531.572 6.016 532.1 6.016C532.932 6.016 533.636 6.2 534.212 6.568C534.804 6.92 535.284 7.4 535.652 8.008C536.02 8.616 536.284 9.312 536.444 10.096C536.604 10.88 536.684 11.704 536.684 12.568C536.684 14.008 536.516 15.224 536.18 16.216C535.86 17.192 535.364 17.928 534.692 18.424C534.02 18.92 533.156 19.168 532.1 19.168C531.38 19.168 530.652 19.056 529.916 18.832C529.196 18.592 528.524 18.296 527.9 17.944V24.688H526.004ZM531.572 17.56C532.18 17.56 532.724 17.408 533.204 17.104C533.684 16.8 534.068 16.288 534.356 15.568C534.644 14.832 534.788 13.832 534.788 12.568C534.788 11.368 534.636 10.408 534.332 9.688C534.028 8.952 533.636 8.424 533.156 8.104C532.676 7.768 532.148 7.6 531.572 7.6C530.836 7.6 530.156 7.72 529.532 7.96C528.924 8.184 528.38 8.424 527.9 8.68V16.528C528.46 16.832 529.052 17.08 529.676 17.272C530.316 17.464 530.948 17.56 531.572 17.56ZM544.775 19.144C543.431 19.144 542.367 18.944 541.583 18.544C540.815 18.144 540.263 17.464 539.927 16.504C539.591 15.544 539.423 14.232 539.423 12.568C539.423 10.872 539.591 9.552 539.927 8.608C540.279 7.648 540.847 6.976 541.631 6.592C542.415 6.208 543.471 6.016 544.799 6.016C545.935 6.016 546.855 6.144 547.559 6.4C548.279 6.656 548.807 7.096 549.143 7.72C549.495 8.328 549.671 9.176 549.671 10.264C549.671 11.016 549.519 11.624 549.215 12.088C548.927 12.536 548.503 12.864 547.943 13.072C547.399 13.264 546.751 13.36 545.999 13.36H541.319C541.335 14.4 541.447 15.24 541.655 15.88C541.863 16.504 542.239 16.96 542.783 17.248C543.343 17.52 544.159 17.656 545.231 17.656H549.359V18.808C548.623 18.904 547.903 18.984 547.199 19.048C546.495 19.112 545.687 19.144 544.775 19.144ZM541.295 12.112H545.855C546.575 12.112 547.103 11.984 547.439 11.728C547.791 11.456 547.967 10.976 547.967 10.288C547.967 9.552 547.855 8.984 547.631 8.584C547.423 8.168 547.087 7.88 546.623 7.72C546.175 7.544 545.567 7.456 544.799 7.456C543.903 7.456 543.199 7.592 542.687 7.864C542.175 8.12 541.815 8.584 541.607 9.256C541.399 9.928 541.295 10.88 541.295 12.112ZM557.111 19C556.279 19 555.591 18.864 555.047 18.592C554.503 18.32 554.103 17.88 553.847 17.272C553.591 16.664 553.471 15.856 553.487 14.848L553.559 7.744H551.519V6.52L553.583 6.184L553.895 2.608H555.359V6.184H559.055V7.744H555.359V14.848C555.359 15.408 555.415 15.856 555.527 16.192C555.655 16.528 555.815 16.784 556.007 16.96C556.215 17.136 556.431 17.264 556.655 17.344C556.879 17.408 557.095 17.448 557.303 17.464L558.863 17.608V19H557.111ZM566.572 19.144C565.228 19.144 564.164 18.944 563.38 18.544C562.612 18.144 562.06 17.464 561.724 16.504C561.388 15.544 561.22 14.232 561.22 12.568C561.22 10.872 561.388 9.552 561.724 8.608C562.076 7.648 562.644 6.976 563.428 6.592C564.212 6.208 565.268 6.016 566.596 6.016C567.732 6.016 568.652 6.144 569.356 6.4C570.076 6.656 570.604 7.096 570.94 7.72C571.292 8.328 571.468 9.176 571.468 10.264C571.468 11.016 571.316 11.624 571.012 12.088C570.724 12.536 570.3 12.864 569.74 13.072C569.196 13.264 568.548 13.36 567.796 13.36H563.116C563.132 14.4 563.244 15.24 563.452 15.88C563.66 16.504 564.036 16.96 564.58 17.248C565.14 17.52 565.956 17.656 567.028 17.656H571.156V18.808C570.42 18.904 569.7 18.984 568.996 19.048C568.292 19.112 567.484 19.144 566.572 19.144ZM563.092 12.112H567.652C568.372 12.112 568.9 11.984 569.236 11.728C569.588 11.456 569.764 10.976 569.764 10.288C569.764 9.552 569.652 8.984 569.428 8.584C569.22 8.168 568.884 7.88 568.42 7.72C567.972 7.544 567.364 7.456 566.596 7.456C565.7 7.456 564.996 7.592 564.484 7.864C563.972 8.12 563.612 8.584 563.404 9.256C563.196 9.928 563.092 10.88 563.092 12.112ZM583.625 19.144C582.681 19.144 581.905 18.864 581.297 18.304C580.689 17.744 580.385 16.952 580.385 15.928V15.016C580.385 14.008 580.713 13.192 581.369 12.568C582.041 11.944 583.049 11.632 584.393 11.632H588.737V10.048C588.737 9.52 588.641 9.072 588.449 8.704C588.273 8.32 587.945 8.024 587.465 7.816C587.001 7.608 586.321 7.504 585.425 7.504H581.441V6.376C582.001 6.28 582.649 6.192 583.385 6.112C584.137 6.032 585.017 5.992 586.025 5.992C587.065 5.976 587.929 6.104 588.617 6.376C589.305 6.648 589.809 7.08 590.129 7.672C590.465 8.248 590.633 9.008 590.633 9.952V19H589.169L588.809 17.536C588.745 17.6 588.545 17.712 588.209 17.872C587.889 18.032 587.473 18.216 586.961 18.424C586.465 18.616 585.921 18.784 585.329 18.928C584.753 19.072 584.185 19.144 583.625 19.144ZM584.417 17.728C584.705 17.744 585.033 17.712 585.401 17.632C585.769 17.552 586.145 17.464 586.529 17.368C586.913 17.256 587.265 17.144 587.585 17.032C587.921 16.92 588.193 16.824 588.401 16.744C588.609 16.664 588.721 16.624 588.737 16.624V12.592L584.825 12.76C583.913 12.792 583.257 13.016 582.857 13.432C582.473 13.848 582.281 14.384 582.281 15.04V15.616C582.281 16.128 582.385 16.544 582.593 16.864C582.817 17.168 583.089 17.384 583.409 17.512C583.745 17.64 584.081 17.712 584.417 17.728ZM597.351 24.88C596.519 24.88 595.783 24.76 595.143 24.52C594.519 24.296 594.023 23.944 593.655 23.464C593.303 23 593.127 22.416 593.127 21.712V21.136C593.127 20.4 593.327 19.784 593.727 19.288C594.143 18.792 594.663 18.424 595.287 18.184C595.911 17.928 596.551 17.8 597.207 17.8L597.687 18.568C597.207 18.568 596.759 18.648 596.343 18.808C595.927 18.952 595.583 19.192 595.311 19.528C595.055 19.864 594.927 20.296 594.927 20.824V21.352C594.927 22.12 595.183 22.664 595.695 22.984C596.207 23.32 596.903 23.488 597.783 23.488H600.759C601.719 23.488 602.471 23.304 603.015 22.936C603.575 22.568 603.855 21.992 603.855 21.208V20.728C603.855 20.28 603.767 19.896 603.591 19.576C603.415 19.256 603.119 19.008 602.703 18.832C602.303 18.656 601.735 18.568 600.999 18.568H597.135C596.143 18.568 595.367 18.36 594.807 17.944C594.263 17.512 593.991 16.96 593.991 16.288C593.991 15.648 594.175 15.144 594.543 14.776C594.927 14.408 595.463 14.152 596.151 14.008C595.559 13.768 595.095 13.448 594.759 13.048C594.423 12.632 594.191 12.192 594.063 11.728C593.935 11.248 593.871 10.768 593.871 10.288C593.871 9.296 594.071 8.496 594.471 7.888C594.871 7.28 595.439 6.84 596.175 6.568C596.927 6.296 597.807 6.16 598.815 6.16H605.655V7.24L602.775 7.48C602.983 7.624 603.215 7.816 603.471 8.056C603.727 8.28 603.943 8.608 604.119 9.04C604.311 9.456 604.407 10.032 604.407 10.768C604.407 11.424 604.263 12.048 603.975 12.64C603.703 13.232 603.239 13.72 602.583 14.104C601.927 14.472 601.023 14.656 599.871 14.656H597.831C597.159 14.656 596.623 14.76 596.223 14.968C595.839 15.16 595.647 15.512 595.647 16.024C595.647 16.408 595.791 16.68 596.079 16.84C596.367 17 596.671 17.08 596.991 17.08H601.239C602.231 17.08 603.047 17.208 603.687 17.464C604.343 17.72 604.831 18.112 605.151 18.64C605.487 19.152 605.655 19.808 605.655 20.608V21.136C605.655 22.304 605.255 23.216 604.455 23.872C603.671 24.544 602.495 24.88 600.927 24.88H597.351ZM598.239 13.192H599.679C600.495 13.192 601.111 13.072 601.527 12.832C601.959 12.576 602.255 12.248 602.415 11.848C602.575 11.448 602.655 11.016 602.655 10.552C602.655 9.832 602.535 9.264 602.295 8.848C602.071 8.416 601.751 8.112 601.335 7.936C600.919 7.744 600.439 7.648 599.895 7.648H598.527C597.615 7.648 596.895 7.856 596.367 8.272C595.855 8.672 595.599 9.376 595.599 10.384C595.599 11.376 595.831 12.096 596.295 12.544C596.775 12.976 597.423 13.192 598.239 13.192ZM610.297 19.144C609.353 19.144 608.577 18.864 607.969 18.304C607.361 17.744 607.057 16.952 607.057 15.928V15.016C607.057 14.008 607.385 13.192 608.041 12.568C608.713 11.944 609.721 11.632 611.065 11.632H615.409V10.048C615.409 9.52 615.313 9.072 615.121 8.704C614.945 8.32 614.617 8.024 614.137 7.816C613.673 7.608 612.993 7.504 612.097 7.504H608.113V6.376C608.673 6.28 609.321 6.192 610.057 6.112C610.809 6.032 611.689 5.992 612.697 5.992C613.737 5.976 614.601 6.104 615.289 6.376C615.977 6.648 616.481 7.08 616.801 7.672C617.137 8.248 617.305 9.008 617.305 9.952V19H615.841L615.481 17.536C615.417 17.6 615.217 17.712 614.881 17.872C614.561 18.032 614.145 18.216 613.633 18.424C613.137 18.616 612.593 18.784 612.001 18.928C611.425 19.072 610.857 19.144 610.297 19.144ZM611.089 17.728C611.377 17.744 611.705 17.712 612.073 17.632C612.441 17.552 612.817 17.464 613.201 17.368C613.585 17.256 613.937 17.144 614.257 17.032C614.593 16.92 614.865 16.824 615.073 16.744C615.281 16.664 615.393 16.624 615.409 16.624V12.592L611.497 12.76C610.585 12.792 609.929 13.016 609.529 13.432C609.145 13.848 608.953 14.384 608.953 15.04V15.616C608.953 16.128 609.057 16.544 609.265 16.864C609.489 17.168 609.761 17.384 610.081 17.512C610.417 17.64 610.753 17.712 611.089 17.728ZM621.167 3.904C620.911 3.904 620.783 3.776 620.783 3.52V1.648C620.783 1.392 620.911 1.264 621.167 1.264H622.511C622.639 1.264 622.727 1.304 622.775 1.384C622.839 1.448 622.871 1.536 622.871 1.648V3.52C622.871 3.776 622.751 3.904 622.511 3.904H621.167ZM620.879 19V6.184H622.775V19H620.879ZM626.433 19V6.184H627.921L628.329 7.6C628.937 7.168 629.649 6.792 630.465 6.472C631.281 6.136 632.129 5.968 633.009 5.968C633.953 5.968 634.713 6.168 635.289 6.568C635.865 6.968 636.289 7.496 636.561 8.152C636.833 8.808 636.969 9.52 636.969 10.288V19H635.073V10.504C635.073 9.96 634.961 9.48 634.737 9.064C634.529 8.632 634.225 8.296 633.825 8.056C633.441 7.816 632.961 7.696 632.385 7.696C631.857 7.696 631.361 7.752 630.897 7.864C630.449 7.96 630.017 8.104 629.601 8.296C629.201 8.472 628.777 8.688 628.329 8.944V19H626.433ZM644.959 19.144C644.639 19.144 644.247 19.136 643.783 19.12C643.319 19.104 642.831 19.08 642.319 19.048C641.823 19.016 641.367 18.984 640.951 18.952C640.551 18.904 640.239 18.856 640.015 18.808V17.656H645.271C645.799 17.656 646.255 17.616 646.639 17.536C647.023 17.456 647.319 17.28 647.527 17.008C647.751 16.736 647.863 16.328 647.863 15.784V15.208C647.863 14.648 647.679 14.216 647.311 13.912C646.943 13.592 646.351 13.432 645.535 13.432H643.735C642.983 13.432 642.311 13.336 641.719 13.144C641.143 12.952 640.695 12.624 640.375 12.16C640.055 11.696 639.895 11.056 639.895 10.24V9.568C639.895 8.768 640.047 8.112 640.351 7.6C640.671 7.088 641.159 6.704 641.815 6.448C642.487 6.192 643.351 6.064 644.407 6.064C644.855 6.064 645.367 6.08 645.943 6.112C646.535 6.144 647.111 6.192 647.671 6.256C648.231 6.304 648.687 6.36 649.039 6.424V7.576H644.095C643.279 7.576 642.647 7.712 642.199 7.984C641.767 8.256 641.551 8.784 641.551 9.568V10.096C641.551 10.592 641.655 10.968 641.863 11.224C642.071 11.464 642.359 11.624 642.727 11.704C643.111 11.784 643.551 11.824 644.047 11.824H645.871C647.039 11.824 647.943 12.096 648.583 12.64C649.223 13.184 649.543 13.968 649.543 14.992V15.88C649.543 16.744 649.343 17.416 648.943 17.896C648.559 18.36 648.023 18.688 647.335 18.88C646.663 19.056 645.871 19.144 644.959 19.144ZM656.791 19C655.959 19 655.271 18.864 654.727 18.592C654.183 18.32 653.783 17.88 653.527 17.272C653.271 16.664 653.151 15.856 653.167 14.848L653.239 7.744H651.199V6.52L653.263 6.184L653.575 2.608H655.039V6.184H658.735V7.744H655.039V14.848C655.039 15.408 655.095 15.856 655.207 16.192C655.335 16.528 655.495 16.784 655.687 16.96C655.895 17.136 656.111 17.264 656.335 17.344C656.559 17.408 656.775 17.448 656.983 17.464L658.543 17.608V19H656.791ZM159.631 51.144C158.703 51.144 157.887 51.048 157.183 50.856C156.495 50.664 155.919 50.328 155.455 49.848C154.991 49.368 154.647 48.704 154.423 47.856C154.199 46.992 154.087 45.896 154.087 44.568C154.087 43.224 154.199 42.128 154.423 41.28C154.647 40.416 154.991 39.752 155.455 39.288C155.919 38.808 156.495 38.48 157.183 38.304C157.887 38.112 158.703 38.016 159.631 38.016C160.559 38.016 161.367 38.112 162.055 38.304C162.759 38.496 163.343 38.832 163.807 39.312C164.271 39.776 164.615 40.44 164.839 41.304C165.079 42.152 165.199 43.24 165.199 44.568C165.199 45.912 165.079 47.016 164.839 47.88C164.615 48.728 164.271 49.392 163.807 49.872C163.359 50.336 162.783 50.664 162.079 50.856C161.375 51.048 160.559 51.144 159.631 51.144ZM159.631 49.584C160.223 49.584 160.743 49.528 161.191 49.416C161.655 49.304 162.039 49.08 162.343 48.744C162.647 48.408 162.879 47.904 163.039 47.232C163.199 46.56 163.279 45.672 163.279 44.568C163.279 43.448 163.199 42.56 163.039 41.904C162.879 41.248 162.647 40.752 162.343 40.416C162.039 40.08 161.655 39.856 161.191 39.744C160.743 39.632 160.223 39.576 159.631 39.576C159.023 39.576 158.495 39.632 158.047 39.744C157.599 39.856 157.223 40.08 156.919 40.416C156.615 40.752 156.383 41.248 156.223 41.904C156.063 42.56 155.983 43.448 155.983 44.568C155.983 45.672 156.063 46.56 156.223 47.232C156.383 47.904 156.615 48.408 156.919 48.744C157.223 49.08 157.599 49.304 158.047 49.416C158.495 49.528 159.023 49.584 159.631 49.584ZM172.642 51C171.81 51 171.122 50.864 170.578 50.592C170.034 50.32 169.634 49.88 169.378 49.272C169.122 48.664 169.002 47.856 169.018 46.848L169.09 39.744H167.05V38.52L169.114 38.184L169.426 34.608H170.89V38.184H174.586V39.744H170.89V46.848C170.89 47.408 170.946 47.856 171.058 48.192C171.186 48.528 171.346 48.784 171.538 48.96C171.746 49.136 171.962 49.264 172.186 49.344C172.41 49.408 172.626 49.448 172.834 49.464L174.394 49.608V51H172.642ZM177.207 51V32.688H179.103V39.6C179.695 39.168 180.399 38.792 181.215 38.472C182.047 38.136 182.911 37.968 183.807 37.968C184.703 37.968 185.439 38.16 186.015 38.544C186.607 38.928 187.039 39.448 187.311 40.104C187.599 40.76 187.743 41.488 187.743 42.288V51H185.847V42.48C185.847 41.936 185.735 41.456 185.511 41.04C185.303 40.624 184.999 40.296 184.599 40.056C184.199 39.816 183.719 39.696 183.159 39.696C182.631 39.696 182.143 39.752 181.695 39.864C181.247 39.96 180.815 40.104 180.399 40.296C179.983 40.472 179.551 40.688 179.103 40.944V51H177.207ZM196.212 51.144C194.868 51.144 193.804 50.944 193.02 50.544C192.252 50.144 191.7 49.464 191.364 48.504C191.028 47.544 190.86 46.232 190.86 44.568C190.86 42.872 191.028 41.552 191.364 40.608C191.716 39.648 192.284 38.976 193.068 38.592C193.852 38.208 194.908 38.016 196.236 38.016C197.372 38.016 198.292 38.144 198.996 38.4C199.716 38.656 200.244 39.096 200.58 39.72C200.932 40.328 201.108 41.176 201.108 42.264C201.108 43.016 200.956 43.624 200.652 44.088C200.364 44.536 199.94 44.864 199.38 45.072C198.836 45.264 198.188 45.36 197.436 45.36H192.756C192.772 46.4 192.884 47.24 193.092 47.88C193.3 48.504 193.676 48.96 194.22 49.248C194.78 49.52 195.596 49.656 196.668 49.656H200.796V50.808C200.06 50.904 199.34 50.984 198.636 51.048C197.932 51.112 197.124 51.144 196.212 51.144ZM192.732 44.112H197.292C198.012 44.112 198.54 43.984 198.876 43.728C199.228 43.456 199.404 42.976 199.404 42.288C199.404 41.552 199.292 40.984 199.068 40.584C198.86 40.168 198.524 39.88 198.06 39.72C197.612 39.544 197.004 39.456 196.236 39.456C195.34 39.456 194.636 39.592 194.124 39.864C193.612 40.12 193.252 40.584 193.044 41.256C192.836 41.928 192.732 42.88 192.732 44.112ZM204.301 51V38.184H205.741L206.197 40.416C206.773 39.728 207.413 39.16 208.117 38.712C208.837 38.264 209.661 38.04 210.589 38.04C210.813 38.04 211.021 38.048 211.213 38.064C211.421 38.08 211.613 38.112 211.789 38.16V40.104C211.581 40.072 211.357 40.048 211.117 40.032C210.877 40 210.637 39.984 210.397 39.984C209.805 39.984 209.277 40.056 208.813 40.2C208.349 40.344 207.909 40.56 207.493 40.848C207.077 41.136 206.645 41.488 206.197 41.904V51H204.301ZM225.316 51.144C224.596 51.144 223.924 51.048 223.3 50.856C222.676 50.664 222.132 50.328 221.668 49.848C221.204 49.368 220.844 48.704 220.588 47.856C220.332 47.008 220.204 45.928 220.204 44.616C220.204 43.288 220.324 42.2 220.564 41.352C220.804 40.488 221.148 39.816 221.596 39.336C222.044 38.856 222.588 38.52 223.228 38.328C223.868 38.136 224.58 38.04 225.364 38.04C226.004 38.04 226.7 38.072 227.452 38.136C228.204 38.184 228.924 38.264 229.612 38.376V39.504H225.868C225.052 39.504 224.364 39.64 223.804 39.912C223.244 40.184 222.82 40.696 222.532 41.448C222.244 42.184 222.1 43.256 222.1 44.664C222.1 46.024 222.252 47.064 222.556 47.784C222.86 48.504 223.292 49 223.852 49.272C224.412 49.528 225.092 49.656 225.892 49.656H229.804V50.76C229.436 50.824 229.004 50.888 228.508 50.952C228.028 51.016 227.516 51.064 226.972 51.096C226.428 51.128 225.876 51.144 225.316 51.144ZM235.858 56.688L237.49 51C237.09 50.984 236.674 50.888 236.242 50.712C235.81 50.536 235.41 50.232 235.042 49.8C234.674 49.368 234.37 48.768 234.13 48L231.058 38.184H233.05L235.906 47.592C236.082 48.088 236.266 48.456 236.458 48.696C236.666 48.936 236.874 49.104 237.082 49.2C237.29 49.296 237.466 49.352 237.61 49.368C237.77 49.368 237.866 49.368 237.898 49.368L241.186 38.184H243.13L238.45 54.312L237.346 56.688H235.858ZM251.578 51.144C250.97 51.144 250.402 51.072 249.874 50.928C249.362 50.768 248.89 50.584 248.458 50.376C248.026 50.152 247.642 49.928 247.306 49.704L246.946 51H245.41V32.688H247.306V39.36C247.914 39.008 248.602 38.696 249.37 38.424C250.138 38.152 250.85 38.016 251.506 38.016C252.53 38.016 253.378 38.232 254.05 38.664C254.722 39.096 255.226 39.8 255.562 40.776C255.914 41.752 256.09 43.056 256.09 44.688C256.09 46.016 255.938 47.168 255.634 48.144C255.33 49.104 254.842 49.848 254.17 50.376C253.514 50.888 252.65 51.144 251.578 51.144ZM250.978 49.56C251.682 49.56 252.266 49.384 252.73 49.032C253.21 48.664 253.57 48.112 253.81 47.376C254.066 46.64 254.194 45.72 254.194 44.616C254.194 43.208 254.05 42.152 253.762 41.448C253.49 40.728 253.114 40.24 252.634 39.984C252.154 39.728 251.602 39.6 250.978 39.6C250.258 39.6 249.61 39.704 249.034 39.912C248.474 40.104 247.898 40.36 247.306 40.68V48.528C247.802 48.768 248.346 49 248.938 49.224C249.546 49.448 250.226 49.56 250.978 49.56ZM264.181 51.144C262.837 51.144 261.773 50.944 260.989 50.544C260.221 50.144 259.669 49.464 259.333 48.504C258.997 47.544 258.829 46.232 258.829 44.568C258.829 42.872 258.997 41.552 259.333 40.608C259.685 39.648 260.253 38.976 261.037 38.592C261.821 38.208 262.877 38.016 264.205 38.016C265.341 38.016 266.261 38.144 266.965 38.4C267.685 38.656 268.213 39.096 268.549 39.72C268.901 40.328 269.077 41.176 269.077 42.264C269.077 43.016 268.925 43.624 268.621 44.088C268.333 44.536 267.909 44.864 267.349 45.072C266.805 45.264 266.157 45.36 265.405 45.36H260.725C260.741 46.4 260.853 47.24 261.061 47.88C261.269 48.504 261.645 48.96 262.189 49.248C262.749 49.52 263.565 49.656 264.637 49.656H268.765V50.808C268.029 50.904 267.309 50.984 266.605 51.048C265.901 51.112 265.093 51.144 264.181 51.144ZM260.701 44.112H265.261C265.981 44.112 266.509 43.984 266.845 43.728C267.197 43.456 267.373 42.976 267.373 42.288C267.373 41.552 267.261 40.984 267.037 40.584C266.829 40.168 266.493 39.88 266.029 39.72C265.581 39.544 264.973 39.456 264.205 39.456C263.309 39.456 262.605 39.592 262.093 39.864C261.581 40.12 261.221 40.584 261.013 41.256C260.805 41.928 260.701 42.88 260.701 44.112ZM272.269 51V38.184H273.709L274.165 40.416C274.741 39.728 275.381 39.16 276.085 38.712C276.805 38.264 277.629 38.04 278.557 38.04C278.781 38.04 278.989 38.048 279.181 38.064C279.389 38.08 279.581 38.112 279.757 38.16V40.104C279.549 40.072 279.325 40.048 279.085 40.032C278.845 40 278.605 39.984 278.365 39.984C277.773 39.984 277.245 40.056 276.781 40.2C276.317 40.344 275.877 40.56 275.461 40.848C275.045 41.136 274.613 41.488 274.165 41.904V51H272.269ZM286.576 51.144C286.256 51.144 285.864 51.136 285.4 51.12C284.936 51.104 284.448 51.08 283.936 51.048C283.44 51.016 282.984 50.984 282.568 50.952C282.168 50.904 281.856 50.856 281.632 50.808V49.656H286.888C287.416 49.656 287.872 49.616 288.256 49.536C288.64 49.456 288.936 49.28 289.144 49.008C289.368 48.736 289.48 48.328 289.48 47.784V47.208C289.48 46.648 289.296 46.216 288.928 45.912C288.56 45.592 287.968 45.432 287.152 45.432H285.352C284.6 45.432 283.928 45.336 283.336 45.144C282.76 44.952 282.312 44.624 281.992 44.16C281.672 43.696 281.512 43.056 281.512 42.24V41.568C281.512 40.768 281.664 40.112 281.968 39.6C282.288 39.088 282.776 38.704 283.432 38.448C284.104 38.192 284.968 38.064 286.024 38.064C286.472 38.064 286.984 38.08 287.56 38.112C288.152 38.144 288.728 38.192 289.288 38.256C289.848 38.304 290.304 38.36 290.656 38.424V39.576H285.712C284.896 39.576 284.264 39.712 283.816 39.984C283.384 40.256 283.168 40.784 283.168 41.568V42.096C283.168 42.592 283.272 42.968 283.48 43.224C283.688 43.464 283.976 43.624 284.344 43.704C284.728 43.784 285.168 43.824 285.664 43.824H287.488C288.656 43.824 289.56 44.096 290.2 44.64C290.84 45.184 291.16 45.968 291.16 46.992V47.88C291.16 48.744 290.96 49.416 290.56 49.896C290.176 50.36 289.64 50.688 288.952 50.88C288.28 51.056 287.488 51.144 286.576 51.144ZM299.056 51.144C297.712 51.144 296.648 50.944 295.864 50.544C295.096 50.144 294.544 49.464 294.208 48.504C293.872 47.544 293.704 46.232 293.704 44.568C293.704 42.872 293.872 41.552 294.208 40.608C294.56 39.648 295.128 38.976 295.912 38.592C296.696 38.208 297.752 38.016 299.08 38.016C300.216 38.016 301.136 38.144 301.84 38.4C302.56 38.656 303.088 39.096 303.424 39.72C303.776 40.328 303.952 41.176 303.952 42.264C303.952 43.016 303.8 43.624 303.496 44.088C303.208 44.536 302.784 44.864 302.224 45.072C301.68 45.264 301.032 45.36 300.28 45.36H295.6C295.616 46.4 295.728 47.24 295.936 47.88C296.144 48.504 296.52 48.96 297.064 49.248C297.624 49.52 298.44 49.656 299.512 49.656H303.64V50.808C302.904 50.904 302.184 50.984 301.48 51.048C300.776 51.112 299.968 51.144 299.056 51.144ZM295.576 44.112H300.136C300.856 44.112 301.384 43.984 301.72 43.728C302.072 43.456 302.248 42.976 302.248 42.288C302.248 41.552 302.136 40.984 301.912 40.584C301.704 40.168 301.368 39.88 300.904 39.72C300.456 39.544 299.848 39.456 299.08 39.456C298.184 39.456 297.48 39.592 296.968 39.864C296.456 40.12 296.096 40.584 295.888 41.256C295.68 41.928 295.576 42.88 295.576 44.112ZM311.8 51.144C311.08 51.144 310.408 51.048 309.784 50.856C309.16 50.664 308.616 50.328 308.152 49.848C307.688 49.368 307.328 48.704 307.072 47.856C306.816 47.008 306.688 45.928 306.688 44.616C306.688 43.288 306.808 42.2 307.048 41.352C307.288 40.488 307.632 39.816 308.08 39.336C308.528 38.856 309.072 38.52 309.712 38.328C310.352 38.136 311.064 38.04 311.848 38.04C312.488 38.04 313.184 38.072 313.936 38.136C314.688 38.184 315.408 38.264 316.096 38.376V39.504H312.352C311.536 39.504 310.848 39.64 310.288 39.912C309.728 40.184 309.304 40.696 309.016 41.448C308.728 42.184 308.584 43.256 308.584 44.664C308.584 46.024 308.736 47.064 309.04 47.784C309.344 48.504 309.776 49 310.336 49.272C310.896 49.528 311.576 49.656 312.376 49.656H316.288V50.76C315.92 50.824 315.488 50.888 314.992 50.952C314.512 51.016 314 51.064 313.456 51.096C312.912 51.128 312.36 51.144 311.8 51.144ZM322.726 51.144C321.494 51.144 320.542 50.824 319.87 50.184C319.214 49.544 318.886 48.552 318.886 47.208V38.184H320.782V46.728C320.782 47.8 321.022 48.528 321.502 48.912C321.998 49.28 322.686 49.464 323.566 49.464C324.318 49.464 325.006 49.36 325.63 49.152C326.254 48.928 326.894 48.624 327.55 48.24V38.184H329.446V51H327.958L327.55 49.584C326.894 50 326.15 50.368 325.318 50.688C324.502 50.992 323.638 51.144 322.726 51.144ZM333.019 51V38.184H334.459L334.915 40.416C335.491 39.728 336.131 39.16 336.835 38.712C337.555 38.264 338.379 38.04 339.307 38.04C339.531 38.04 339.739 38.048 339.931 38.064C340.139 38.08 340.331 38.112 340.507 38.16V40.104C340.299 40.072 340.075 40.048 339.835 40.032C339.595 40 339.355 39.984 339.115 39.984C338.523 39.984 337.995 40.056 337.531 40.2C337.067 40.344 336.627 40.56 336.211 40.848C335.795 41.136 335.363 41.488 334.915 41.904V51H333.019ZM343.198 35.904C342.942 35.904 342.814 35.776 342.814 35.52V33.648C342.814 33.392 342.942 33.264 343.198 33.264H344.542C344.67 33.264 344.758 33.304 344.806 33.384C344.87 33.448 344.902 33.536 344.902 33.648V35.52C344.902 35.776 344.782 35.904 344.542 35.904H343.198ZM342.91 51V38.184H344.806V51H342.91ZM352.713 51C351.881 51 351.193 50.864 350.649 50.592C350.105 50.32 349.705 49.88 349.449 49.272C349.193 48.664 349.073 47.856 349.089 46.848L349.161 39.744H347.121V38.52L349.185 38.184L349.497 34.608H350.961V38.184H354.657V39.744H350.961V46.848C350.961 47.408 351.017 47.856 351.129 48.192C351.257 48.528 351.417 48.784 351.609 48.96C351.817 49.136 352.033 49.264 352.257 49.344C352.481 49.408 352.697 49.448 352.905 49.464L354.465 49.608V51H352.713ZM360.709 56.688L362.341 51C361.941 50.984 361.525 50.888 361.093 50.712C360.661 50.536 360.261 50.232 359.893 49.8C359.525 49.368 359.221 48.768 358.981 48L355.909 38.184H357.901L360.757 47.592C360.933 48.088 361.117 48.456 361.309 48.696C361.517 48.936 361.725 49.104 361.933 49.2C362.141 49.296 362.317 49.352 362.461 49.368C362.621 49.368 362.717 49.368 362.749 49.368L366.037 38.184H367.981L363.301 54.312L362.197 56.688H360.709ZM381.626 51.144C380.282 51.144 379.218 50.944 378.434 50.544C377.666 50.144 377.114 49.464 376.778 48.504C376.442 47.544 376.274 46.232 376.274 44.568C376.274 42.872 376.442 41.552 376.778 40.608C377.13 39.648 377.698 38.976 378.482 38.592C379.266 38.208 380.322 38.016 381.65 38.016C382.786 38.016 383.706 38.144 384.41 38.4C385.13 38.656 385.658 39.096 385.994 39.72C386.346 40.328 386.522 41.176 386.522 42.264C386.522 43.016 386.37 43.624 386.066 44.088C385.778 44.536 385.354 44.864 384.794 45.072C384.25 45.264 383.602 45.36 382.85 45.36H378.17C378.186 46.4 378.298 47.24 378.506 47.88C378.714 48.504 379.09 48.96 379.634 49.248C380.194 49.52 381.01 49.656 382.082 49.656H386.21V50.808C385.474 50.904 384.754 50.984 384.05 51.048C383.346 51.112 382.538 51.144 381.626 51.144ZM378.146 44.112H382.706C383.426 44.112 383.954 43.984 384.29 43.728C384.642 43.456 384.818 42.976 384.818 42.288C384.818 41.552 384.706 40.984 384.482 40.584C384.274 40.168 383.938 39.88 383.474 39.72C383.026 39.544 382.418 39.456 381.65 39.456C380.754 39.456 380.05 39.592 379.538 39.864C379.026 40.12 378.666 40.584 378.458 41.256C378.25 41.928 378.146 42.88 378.146 44.112ZM389.715 51V38.184H391.203L391.611 39.6C392.219 39.168 392.931 38.792 393.747 38.472C394.563 38.136 395.411 37.968 396.291 37.968C397.235 37.968 397.995 38.168 398.571 38.568C399.147 38.968 399.571 39.496 399.843 40.152C400.115 40.808 400.251 41.52 400.251 42.288V51H398.355V42.504C398.355 41.96 398.243 41.48 398.019 41.064C397.811 40.632 397.507 40.296 397.107 40.056C396.723 39.816 396.243 39.696 395.667 39.696C395.139 39.696 394.643 39.752 394.179 39.864C393.731 39.96 393.299 40.104 392.883 40.296C392.483 40.472 392.059 40.688 391.611 40.944V51H389.715ZM408.072 51C407.24 51 406.552 50.864 406.008 50.592C405.464 50.32 405.064 49.88 404.808 49.272C404.552 48.664 404.432 47.856 404.448 46.848L404.52 39.744H402.48V38.52L404.544 38.184L404.856 34.608H406.32V38.184H410.016V39.744H406.32V46.848C406.32 47.408 406.376 47.856 406.488 48.192C406.616 48.528 406.776 48.784 406.968 48.96C407.176 49.136 407.392 49.264 407.616 49.344C407.84 49.408 408.056 49.448 408.264 49.464L409.824 49.608V51H408.072ZM412.637 51V32.688H414.533V39.6C415.125 39.168 415.829 38.792 416.645 38.472C417.477 38.136 418.341 37.968 419.237 37.968C420.133 37.968 420.869 38.16 421.445 38.544C422.037 38.928 422.469 39.448 422.741 40.104C423.029 40.76 423.173 41.488 423.173 42.288V51H421.277V42.48C421.277 41.936 421.165 41.456 420.941 41.04C420.733 40.624 420.429 40.296 420.029 40.056C419.629 39.816 419.149 39.696 418.589 39.696C418.061 39.696 417.573 39.752 417.125 39.864C416.677 39.96 416.245 40.104 415.829 40.296C415.413 40.472 414.981 40.688 414.533 40.944V51H412.637ZM430.562 51.144C429.33 51.144 428.378 50.824 427.706 50.184C427.05 49.544 426.722 48.552 426.722 47.208V38.184H428.618V46.728C428.618 47.8 428.858 48.528 429.338 48.912C429.834 49.28 430.522 49.464 431.402 49.464C432.154 49.464 432.842 49.36 433.466 49.152C434.09 48.928 434.73 48.624 435.386 48.24V38.184H437.282V51H435.794L435.386 49.584C434.73 50 433.986 50.368 433.154 50.688C432.338 50.992 431.474 51.144 430.562 51.144ZM445.271 51.144C444.951 51.144 444.559 51.136 444.095 51.12C443.631 51.104 443.143 51.08 442.631 51.048C442.135 51.016 441.679 50.984 441.263 50.952C440.863 50.904 440.551 50.856 440.327 50.808V49.656H445.583C446.111 49.656 446.567 49.616 446.951 49.536C447.335 49.456 447.631 49.28 447.839 49.008C448.063 48.736 448.175 48.328 448.175 47.784V47.208C448.175 46.648 447.991 46.216 447.623 45.912C447.255 45.592 446.663 45.432 445.847 45.432H444.047C443.295 45.432 442.623 45.336 442.031 45.144C441.455 44.952 441.007 44.624 440.687 44.16C440.367 43.696 440.207 43.056 440.207 42.24V41.568C440.207 40.768 440.359 40.112 440.663 39.6C440.983 39.088 441.471 38.704 442.127 38.448C442.799 38.192 443.663 38.064 444.719 38.064C445.167 38.064 445.679 38.08 446.255 38.112C446.847 38.144 447.423 38.192 447.983 38.256C448.543 38.304 448.999 38.36 449.351 38.424V39.576H444.407C443.591 39.576 442.959 39.712 442.511 39.984C442.079 40.256 441.863 40.784 441.863 41.568V42.096C441.863 42.592 441.967 42.968 442.175 43.224C442.383 43.464 442.671 43.624 443.039 43.704C443.423 43.784 443.863 43.824 444.359 43.824H446.183C447.351 43.824 448.255 44.096 448.895 44.64C449.535 45.184 449.855 45.968 449.855 46.992V47.88C449.855 48.744 449.655 49.416 449.255 49.896C448.871 50.36 448.335 50.688 447.647 50.88C446.975 51.056 446.183 51.144 445.271 51.144ZM453.143 35.904C452.887 35.904 452.759 35.776 452.759 35.52V33.648C452.759 33.392 452.887 33.264 453.143 33.264H454.487C454.615 33.264 454.703 33.304 454.751 33.384C454.815 33.448 454.847 33.536 454.847 33.648V35.52C454.847 35.776 454.727 35.904 454.487 35.904H453.143ZM452.855 51V38.184H454.751V51H452.855ZM460.906 51.144C459.962 51.144 459.186 50.864 458.578 50.304C457.97 49.744 457.666 48.952 457.666 47.928V47.016C457.666 46.008 457.994 45.192 458.65 44.568C459.322 43.944 460.33 43.632 461.674 43.632H466.018V42.048C466.018 41.52 465.922 41.072 465.73 40.704C465.554 40.32 465.226 40.024 464.746 39.816C464.282 39.608 463.602 39.504 462.706 39.504H458.722V38.376C459.282 38.28 459.93 38.192 460.666 38.112C461.418 38.032 462.298 37.992 463.306 37.992C464.346 37.976 465.21 38.104 465.898 38.376C466.586 38.648 467.09 39.08 467.41 39.672C467.746 40.248 467.914 41.008 467.914 41.952V51H466.45L466.09 49.536C466.026 49.6 465.826 49.712 465.49 49.872C465.17 50.032 464.754 50.216 464.242 50.424C463.746 50.616 463.202 50.784 462.61 50.928C462.034 51.072 461.466 51.144 460.906 51.144ZM461.698 49.728C461.986 49.744 462.314 49.712 462.682 49.632C463.05 49.552 463.426 49.464 463.81 49.368C464.194 49.256 464.546 49.144 464.866 49.032C465.202 48.92 465.474 48.824 465.682 48.744C465.89 48.664 466.002 48.624 466.018 48.624V44.592L462.106 44.76C461.194 44.792 460.538 45.016 460.138 45.432C459.754 45.848 459.562 46.384 459.562 47.04V47.616C459.562 48.128 459.666 48.544 459.874 48.864C460.098 49.168 460.37 49.384 460.69 49.512C461.026 49.64 461.362 49.712 461.698 49.728ZM475.904 51.144C475.584 51.144 475.192 51.136 474.728 51.12C474.264 51.104 473.776 51.08 473.264 51.048C472.768 51.016 472.312 50.984 471.896 50.952C471.496 50.904 471.184 50.856 470.96 50.808V49.656H476.216C476.744 49.656 477.2 49.616 477.584 49.536C477.968 49.456 478.264 49.28 478.472 49.008C478.696 48.736 478.808 48.328 478.808 47.784V47.208C478.808 46.648 478.624 46.216 478.256 45.912C477.888 45.592 477.296 45.432 476.48 45.432H474.68C473.928 45.432 473.256 45.336 472.664 45.144C472.088 44.952 471.64 44.624 471.32 44.16C471 43.696 470.84 43.056 470.84 42.24V41.568C470.84 40.768 470.992 40.112 471.296 39.6C471.616 39.088 472.104 38.704 472.76 38.448C473.432 38.192 474.296 38.064 475.352 38.064C475.8 38.064 476.312 38.08 476.888 38.112C477.48 38.144 478.056 38.192 478.616 38.256C479.176 38.304 479.632 38.36 479.984 38.424V39.576H475.04C474.224 39.576 473.592 39.712 473.144 39.984C472.712 40.256 472.496 40.784 472.496 41.568V42.096C472.496 42.592 472.6 42.968 472.808 43.224C473.016 43.464 473.304 43.624 473.672 43.704C474.056 43.784 474.496 43.824 474.992 43.824H476.816C477.984 43.824 478.888 44.096 479.528 44.64C480.168 45.184 480.488 45.968 480.488 46.992V47.88C480.488 48.744 480.288 49.416 479.888 49.896C479.504 50.36 478.968 50.688 478.28 50.88C477.608 51.056 476.816 51.144 475.904 51.144ZM487.736 51C486.904 51 486.216 50.864 485.672 50.592C485.128 50.32 484.728 49.88 484.472 49.272C484.216 48.664 484.096 47.856 484.112 46.848L484.184 39.744H482.144V38.52L484.208 38.184L484.52 34.608H485.984V38.184H489.68V39.744H485.984V46.848C485.984 47.408 486.04 47.856 486.152 48.192C486.28 48.528 486.44 48.784 486.632 48.96C486.84 49.136 487.056 49.264 487.28 49.344C487.504 49.408 487.72 49.448 487.928 49.464L489.488 49.608V51H487.736ZM496.717 51.144C496.397 51.144 496.005 51.136 495.541 51.12C495.077 51.104 494.589 51.08 494.077 51.048C493.581 51.016 493.125 50.984 492.709 50.952C492.309 50.904 491.997 50.856 491.773 50.808V49.656H497.029C497.557 49.656 498.013 49.616 498.397 49.536C498.781 49.456 499.077 49.28 499.285 49.008C499.509 48.736 499.621 48.328 499.621 47.784V47.208C499.621 46.648 499.437 46.216 499.069 45.912C498.701 45.592 498.109 45.432 497.293 45.432H495.493C494.741 45.432 494.069 45.336 493.477 45.144C492.901 44.952 492.453 44.624 492.133 44.16C491.813 43.696 491.653 43.056 491.653 42.24V41.568C491.653 40.768 491.805 40.112 492.109 39.6C492.429 39.088 492.917 38.704 493.573 38.448C494.245 38.192 495.109 38.064 496.165 38.064C496.613 38.064 497.125 38.08 497.701 38.112C498.293 38.144 498.869 38.192 499.429 38.256C499.989 38.304 500.445 38.36 500.797 38.424V39.576H495.853C495.037 39.576 494.405 39.712 493.957 39.984C493.525 40.256 493.309 40.784 493.309 41.568V42.096C493.309 42.592 493.413 42.968 493.621 43.224C493.829 43.464 494.117 43.624 494.485 43.704C494.869 43.784 495.309 43.824 495.805 43.824H497.629C498.797 43.824 499.701 44.096 500.341 44.64C500.981 45.184 501.301 45.968 501.301 46.992V47.88C501.301 48.744 501.101 49.416 500.701 49.896C500.317 50.36 499.781 50.688 499.093 50.88C498.421 51.056 497.629 51.144 496.717 51.144ZM504.349 51.024C504.093 51.024 503.965 50.896 503.965 50.64V48.72C503.965 48.464 504.093 48.336 504.349 48.336H505.405C505.661 48.336 505.789 48.464 505.789 48.72V50.64C505.789 50.768 505.749 50.864 505.669 50.928C505.605 50.992 505.517 51.024 505.405 51.024H504.349Z" fill="#101700"/>
</svg>
