<svg width="271" height="72" viewBox="0 0 271 72" fill="none" xmlns="http://www.w3.org/2000/svg">
<path d="M37.1287 45.3732C42.6 45.3732 47.0352 40.9569 47.0352 35.509C47.0352 30.0612 42.6 25.6448 37.1287 25.6448C31.6576 25.6448 27.2223 30.0612 27.2223 35.509C27.2223 40.9569 31.6576 45.3732 37.1287 45.3732Z" fill="#2160ED"/>
<path d="M113.755 53.6302H105.444L90.3787 30.7601C89.4949 29.4233 88.8831 28.4164 88.5432 27.7395H88.4413C88.5772 29.0256 88.6452 30.9886 88.6452 33.6284V53.6302H80.8702V17.2309H89.7413L104.246 39.3904C104.909 40.3887 105.521 41.3787 106.082 42.3601H106.184C106.048 41.514 105.98 39.8473 105.98 37.3597V17.2309H113.755V53.6302ZM144.039 53.6302H122.116V17.2309H143.198V23.9067H130.35V32.0038H142.306V38.6543H130.35V46.9799H144.039V53.6302ZM176.032 23.9067H165.605V53.6302H157.346V23.9067H146.97V17.2309H176.032V23.9067ZM181.563 53.6302V17.2309H191.658C204.54 17.2309 210.981 23.1451 210.981 34.9737C210.981 40.5918 209.187 45.11 205.602 48.5282C202.033 51.9296 197.249 53.6302 191.25 53.6302H181.563ZM185.846 21.0892V49.7721H191.302C196.094 49.7721 199.823 48.4944 202.492 45.9392C205.16 43.3839 206.494 39.7627 206.494 35.0752C206.494 25.7512 201.515 21.0892 191.556 21.0892H185.846ZM245.191 53.6302H240.45L236.574 43.4262H221.075L217.43 53.6302H212.664L226.684 17.2309H231.119L245.191 53.6302ZM235.172 39.5934L229.437 24.0844C229.249 23.5768 229.063 22.7644 228.876 21.6476H228.774C228.604 22.6798 228.408 23.492 228.188 24.0844L222.503 39.5934H235.172ZM270.785 17.2309L258.727 40.1773V53.6302H254.444V40.2787L242.692 17.2309H247.562L255.744 33.6792C255.847 33.8822 256.144 34.6268 256.636 35.9128H256.714C256.883 35.3375 257.206 34.593 257.682 33.6792L266.247 17.2309H270.785Z" fill="#101700"/>
<path d="M53.3783 36.8766C53.3783 36.8766 53.3783 30.7161 59.0374 27.5502C64.0336 24.7511 70.0855 26.988 72.1233 29.9215C77.4264 37.5733 72.0618 45.7751 64.5245 46.1174C54.7163 46.5574 51.537 50.0777 49.7693 52.6324C47.5351 55.8593 47.1177 59.404 47.1177 59.404C47.1177 59.404 46.9459 67.2392 42.5266 70.1361C41.2132 71.0039 33.3322 75.062 28.115 67.4958C26.3719 64.9656 25.6476 59.9296 27.6731 56.5805C29.4285 53.6836 33.6022 52.2657 37.6655 51.6545C46.1234 50.3833 49.1555 46.643 49.1555 46.643C49.1555 46.643 51.4511 43.6483 52.3349 41.1914C52.3226 41.1914 52.3226 41.1914 53.3783 36.8766Z" fill="#2160ED"/>
<path d="M27.1353 10.6087C27.1353 10.6087 27.1353 4.44821 32.7944 1.28238C37.7906 -1.51674 43.8425 0.720112 45.8803 3.65369C51.1834 11.3055 45.8189 19.5072 38.2816 19.8495C28.4734 20.2895 25.294 23.8098 23.5263 26.3645C21.2921 29.5914 20.8747 33.1362 20.8747 33.1362C20.8747 33.1362 20.7029 40.9713 16.2836 43.8682C14.9701 44.736 7.08914 48.7941 1.87198 41.2279C0.128835 38.6977 -0.595429 33.6618 1.43006 30.3126C3.18548 27.4157 7.35921 25.9978 11.4225 25.3866C19.8804 24.1154 22.9125 20.3751 22.9125 20.3751C22.9125 20.3751 25.208 17.3804 26.0919 14.9235C26.0673 14.9235 26.0673 14.9235 27.1353 10.6087Z" fill="#2160ED"/>
</svg>
