<svg width="674" height="136" viewBox="0 0 674 136" fill="none" xmlns="http://www.w3.org/2000/svg">
<path d="M55.2344 31.1094C55.2344 32.3125 55.0781 33.3984 54.7656 34.3672C54.4688 35.3203 54.0703 36.1641 53.5703 36.8984C53.0703 37.6328 52.4844 38.2578 51.8125 38.7734C51.1406 39.2891 50.4453 39.7109 49.7266 40.0391C49.0078 40.3672 48.2734 40.6094 47.5234 40.7656C46.7891 40.9219 46.0938 41 45.4375 41H21.9297V34.9062H45.4375C46.6094 34.9062 47.5156 34.5625 48.1562 33.875C48.8125 33.1875 49.1406 32.2656 49.1406 31.1094C49.1406 30.5469 49.0547 30.0312 48.8828 29.5625C48.7109 29.0938 48.4609 28.6875 48.1328 28.3438C47.8203 28 47.4297 27.7344 46.9609 27.5469C46.5078 27.3594 46 27.2656 45.4375 27.2656H31.4219C30.4375 27.2656 29.375 27.0938 28.2344 26.75C27.0938 26.3906 26.0312 25.8203 25.0469 25.0391C24.0781 24.2578 23.2656 23.2344 22.6094 21.9688C21.9688 20.7031 21.6484 19.1562 21.6484 17.3281C21.6484 15.5 21.9688 13.9609 22.6094 12.7109C23.2656 11.4453 24.0781 10.4219 25.0469 9.64062C26.0312 8.84375 27.0938 8.27344 28.2344 7.92969C29.375 7.57031 30.4375 7.39062 31.4219 7.39062H52.1641V13.4844H31.4219C30.2656 13.4844 29.3594 13.8359 28.7031 14.5391C28.0625 15.2422 27.7422 16.1719 27.7422 17.3281C27.7422 18.5 28.0625 19.4297 28.7031 20.1172C29.3594 20.7891 30.2656 21.125 31.4219 21.125H45.4375H45.4844C46.1406 21.1406 46.8359 21.2344 47.5703 21.4062C48.3047 21.5625 49.0312 21.8125 49.75 22.1562C50.4844 22.5 51.1797 22.9375 51.8359 23.4688C52.4922 23.9844 53.0703 24.6094 53.5703 25.3438C54.0859 26.0781 54.4922 26.9219 54.7891 27.875C55.0859 28.8281 55.2344 29.9062 55.2344 31.1094ZM81.5781 21.7578H70.9375V41H64.7734V21.7578H56.8516V15.6641H64.7734V7.39062H70.9375V15.6641H81.5781V21.7578ZM110.289 32.6094C110.289 33.4531 110.141 34.3672 109.844 35.3516C109.547 36.3203 109.062 37.2266 108.391 38.0703C107.734 38.8984 106.867 39.5938 105.789 40.1562C104.727 40.7188 103.43 41 101.898 41H90.9062C90.0625 41 89.1484 40.8516 88.1641 40.5547C87.1953 40.2578 86.2891 39.7812 85.4453 39.125C84.6172 38.4531 83.9219 37.5859 83.3594 36.5234C82.7969 35.4453 82.5156 34.1406 82.5156 32.6094C82.5156 31.7656 82.6641 30.8516 82.9609 29.8672C83.2578 28.8828 83.7344 27.9766 84.3906 27.1484C85.0625 26.3047 85.9297 25.6016 86.9922 25.0391C88.0703 24.4766 89.375 24.1953 90.9062 24.1953H101.898V30.0078H90.9062C90.0781 30.0078 89.4375 30.2656 88.9844 30.7812C88.5312 31.2812 88.3047 31.9062 88.3047 32.6562C88.3047 33.4531 88.5625 34.0781 89.0781 34.5312C89.6094 34.9688 90.2344 35.1875 90.9531 35.1875H101.898C102.727 35.1875 103.367 34.9375 103.82 34.4375C104.273 33.9375 104.5 33.3125 104.5 32.5625V24.0547C104.5 23.2578 104.25 22.625 103.75 22.1562C103.266 21.6875 102.648 21.4531 101.898 21.4531H88.5156V15.6641H101.898C102.742 15.6641 103.648 15.8125 104.617 16.1094C105.602 16.4062 106.508 16.8906 107.336 17.5625C108.18 18.2188 108.883 19.0859 109.445 20.1641C110.008 21.2266 110.289 22.5234 110.289 24.0547V32.6094ZM143.43 43.4375C143.43 44.4844 143.297 45.4219 143.031 46.25C142.766 47.0938 142.414 47.8281 141.977 48.4531C141.539 49.0938 141.031 49.6328 140.453 50.0703C139.875 50.5234 139.266 50.8906 138.625 51.1719C138 51.4531 137.367 51.6562 136.727 51.7812C136.086 51.9219 135.477 51.9922 134.898 51.9922H123.906V45.8984H134.898C135.711 45.8984 136.32 45.6875 136.727 45.2656C137.133 44.8438 137.336 44.2344 137.336 43.4375V15.6641H143.43V43.4375ZM134.898 41H123.906C123.031 41 122.094 40.8516 121.094 40.5547C120.109 40.2578 119.188 39.7734 118.328 39.1016C117.469 38.4141 116.758 37.5312 116.195 36.4531C115.633 35.3594 115.352 34.0234 115.352 32.4453V15.6641H121.445V32.4453C121.445 33.2422 121.656 33.8516 122.078 34.2734C122.5 34.6953 123.125 34.9062 123.953 34.9062H134.898V41ZM192.555 37.9297C192.555 38.3672 192.477 38.7734 192.32 39.1484C192.164 39.5234 191.945 39.8516 191.664 40.1328C191.398 40.3984 191.078 40.6094 190.703 40.7656C190.344 40.9219 189.953 41 189.531 41H175.75C175 41 174.195 40.9141 173.336 40.7422C172.492 40.5703 171.656 40.2969 170.828 39.9219C170 39.5312 169.195 39.0469 168.414 38.4688C167.648 37.875 166.977 37.1641 166.398 36.3359C165.82 35.4922 165.352 34.5234 164.992 33.4297C164.648 32.3359 164.477 31.1016 164.477 29.7266V15.6641H170.57V29.7266C170.57 30.5234 170.703 31.2422 170.969 31.8828C171.25 32.5078 171.625 33.0469 172.094 33.5C172.562 33.9531 173.109 34.3047 173.734 34.5547C174.375 34.7891 175.062 34.9062 175.797 34.9062H186.461V15.6641H192.555V37.9297ZM226.211 32.4453C226.211 33.4922 226.078 34.4375 225.812 35.2812C225.547 36.1094 225.195 36.8438 224.758 37.4844C224.32 38.1094 223.812 38.6484 223.234 39.1016C222.656 39.5391 222.047 39.8984 221.406 40.1797C220.781 40.4609 220.148 40.6719 219.508 40.8125C218.867 40.9375 218.258 41 217.68 41H206.688V34.9062H217.68C218.492 34.9062 219.102 34.6953 219.508 34.2734C219.914 33.8516 220.117 33.2422 220.117 32.4453V24.2422C220.117 23.3984 219.906 22.7734 219.484 22.3672C219.078 21.9609 218.477 21.7578 217.68 21.7578H206.734C205.906 21.7578 205.281 21.9688 204.859 22.3906C204.438 22.7969 204.227 23.3984 204.227 24.1953V48.9219H198.133V24.1953C198.133 23.1484 198.266 22.2109 198.531 21.3828C198.797 20.5547 199.148 19.8281 199.586 19.2031C200.039 18.5625 200.555 18.0234 201.133 17.5859C201.711 17.1328 202.312 16.7656 202.938 16.4844C203.578 16.2031 204.219 16 204.859 15.875C205.516 15.7344 206.125 15.6641 206.688 15.6641H217.68C218.727 15.6641 219.664 15.7969 220.492 16.0625C221.32 16.3281 222.047 16.6797 222.672 17.1172C223.312 17.5547 223.852 18.0625 224.289 18.6406C224.742 19.2188 225.109 19.8281 225.391 20.4688C225.672 21.0938 225.875 21.7266 226 22.3672C226.141 23.0078 226.211 23.6172 226.211 24.1953V32.4453ZM259.211 32.4453C259.211 33.4922 259.078 34.4375 258.812 35.2812C258.547 36.1094 258.195 36.8438 257.758 37.4844C257.32 38.1094 256.812 38.6484 256.234 39.1016C255.656 39.5391 255.047 39.8984 254.406 40.1797C253.781 40.4609 253.141 40.6719 252.484 40.8125C251.844 40.9375 251.234 41 250.656 41H239.664C238.617 41 237.68 40.8672 236.852 40.6016C236.023 40.3359 235.289 39.9844 234.648 39.5469C234.023 39.0938 233.484 38.5781 233.031 38C232.594 37.4219 232.234 36.8203 231.953 36.1953C231.672 35.5547 231.461 34.9141 231.32 34.2734C231.195 33.6172 231.133 33.0078 231.133 32.4453V24.1953C231.133 22.6328 231.414 21.3125 231.977 20.2344C232.555 19.1406 233.266 18.2578 234.109 17.5859C234.969 16.8984 235.898 16.4062 236.898 16.1094C237.898 15.8125 238.82 15.6641 239.664 15.6641H250.656V21.7578H239.711C238.898 21.7578 238.281 21.9688 237.859 22.3906C237.438 22.7969 237.227 23.3984 237.227 24.1953V32.3984C237.227 33.2266 237.43 33.8516 237.836 34.2734C238.258 34.6953 238.867 34.9062 239.664 34.9062H250.656C251.484 34.9062 252.102 34.6953 252.508 34.2734C252.914 33.8516 253.117 33.2422 253.117 32.4453V4.95312H259.211V32.4453ZM291.18 32.6094C291.18 33.4531 291.031 34.3672 290.734 35.3516C290.438 36.3203 289.953 37.2266 289.281 38.0703C288.625 38.8984 287.758 39.5938 286.68 40.1562C285.617 40.7188 284.32 41 282.789 41H271.797C270.953 41 270.039 40.8516 269.055 40.5547C268.086 40.2578 267.18 39.7812 266.336 39.125C265.508 38.4531 264.812 37.5859 264.25 36.5234C263.688 35.4453 263.406 34.1406 263.406 32.6094C263.406 31.7656 263.555 30.8516 263.852 29.8672C264.148 28.8828 264.625 27.9766 265.281 27.1484C265.953 26.3047 266.82 25.6016 267.883 25.0391C268.961 24.4766 270.266 24.1953 271.797 24.1953H282.789V30.0078H271.797C270.969 30.0078 270.328 30.2656 269.875 30.7812C269.422 31.2812 269.195 31.9062 269.195 32.6562C269.195 33.4531 269.453 34.0781 269.969 34.5312C270.5 34.9688 271.125 35.1875 271.844 35.1875H282.789C283.617 35.1875 284.258 34.9375 284.711 34.4375C285.164 33.9375 285.391 33.3125 285.391 32.5625V24.0547C285.391 23.2578 285.141 22.625 284.641 22.1562C284.156 21.6875 283.539 21.4531 282.789 21.4531H269.406V15.6641H282.789C283.633 15.6641 284.539 15.8125 285.508 16.1094C286.492 16.4062 287.398 16.8906 288.227 17.5625C289.07 18.2188 289.773 19.0859 290.336 20.1641C290.898 21.2266 291.18 22.5234 291.18 24.0547V32.6094ZM319.328 21.7578H308.688V41H302.523V21.7578H294.602V15.6641H302.523V7.39062H308.688V15.6641H319.328V21.7578ZM350.5 24.0547C350.5 24.8984 350.352 25.8125 350.055 26.7969C349.758 27.7656 349.273 28.6719 348.602 29.5156C347.945 30.3438 347.078 31.0391 346 31.6016C344.938 32.1641 343.641 32.4453 342.109 32.4453H331.117V26.6562H342.109C342.938 26.6562 343.578 26.4062 344.031 25.9062C344.484 25.3906 344.711 24.7578 344.711 24.0078C344.711 23.2109 344.453 22.5859 343.938 22.1328C343.438 21.6797 342.828 21.4531 342.109 21.4531H331.117C330.289 21.4531 329.648 21.7109 329.195 22.2266C328.742 22.7266 328.516 23.3516 328.516 24.1016V32.6094C328.516 33.4219 328.766 34.0547 329.266 34.5078C329.781 34.9609 330.414 35.1875 331.164 35.1875H342.109V41H331.117C330.273 41 329.359 40.8516 328.375 40.5547C327.406 40.2578 326.5 39.7812 325.656 39.125C324.828 38.4531 324.133 37.5859 323.57 36.5234C323.008 35.4453 322.727 34.1406 322.727 32.6094V24.0547C322.727 23.2109 322.875 22.3047 323.172 21.3359C323.469 20.3516 323.945 19.4453 324.602 18.6172C325.273 17.7734 326.141 17.0703 327.203 16.5078C328.281 15.9453 329.586 15.6641 331.117 15.6641H342.109C342.953 15.6641 343.859 15.8125 344.828 16.1094C345.812 16.4062 346.719 16.8906 347.547 17.5625C348.391 18.2188 349.094 19.0859 349.656 20.1641C350.219 21.2266 350.5 22.5234 350.5 24.0547ZM382.398 32.4453C382.398 33.4922 382.266 34.4375 382 35.2812C381.734 36.1094 381.383 36.8438 380.945 37.4844C380.508 38.1094 380 38.6484 379.422 39.1016C378.844 39.5391 378.234 39.8984 377.594 40.1797C376.969 40.4609 376.328 40.6719 375.672 40.8125C375.031 40.9375 374.422 41 373.844 41H362.852C361.805 41 360.867 40.8672 360.039 40.6016C359.211 40.3359 358.477 39.9844 357.836 39.5469C357.211 39.0938 356.672 38.5781 356.219 38C355.781 37.4219 355.422 36.8203 355.141 36.1953C354.859 35.5547 354.648 34.9141 354.508 34.2734C354.383 33.6172 354.32 33.0078 354.32 32.4453V24.1953C354.32 22.6328 354.602 21.3125 355.164 20.2344C355.742 19.1406 356.453 18.2578 357.297 17.5859C358.156 16.8984 359.086 16.4062 360.086 16.1094C361.086 15.8125 362.008 15.6641 362.852 15.6641H373.844V21.7578H362.898C362.086 21.7578 361.469 21.9688 361.047 22.3906C360.625 22.7969 360.414 23.3984 360.414 24.1953V32.3984C360.414 33.2266 360.617 33.8516 361.023 34.2734C361.445 34.6953 362.055 34.9062 362.852 34.9062H373.844C374.672 34.9062 375.289 34.6953 375.695 34.2734C376.102 33.8516 376.305 33.2422 376.305 32.4453V4.95312H382.398V32.4453ZM445.539 15.6641C444.57 17.8359 443.523 19.9766 442.398 22.0859C441.273 24.1797 440.094 26.1641 438.859 28.0391C437.641 29.9141 436.391 31.6484 435.109 33.2422C433.828 34.8203 432.555 36.1875 431.289 37.3438C430.039 38.4844 428.812 39.3828 427.609 40.0391C426.422 40.6797 425.297 41 424.234 41C423.797 41 423.391 40.9219 423.016 40.7656C422.641 40.6094 422.312 40.3984 422.031 40.1328C421.75 39.8516 421.531 39.5234 421.375 39.1484C421.219 38.7734 421.141 38.3672 421.141 37.9297V26.5625L409.047 40.0859C408.734 40.3984 408.391 40.6328 408.016 40.7891C407.656 40.9297 407.281 41 406.891 41C406.469 41 406.07 40.9219 405.695 40.7656C405.336 40.6094 405.016 40.3984 404.734 40.1328C404.453 39.8516 404.227 39.5234 404.055 39.1484C403.898 38.7734 403.82 38.3672 403.82 37.9297V15.6641H409.914V30.1016L422.055 16.5312C422.492 16.0938 423.008 15.8203 423.602 15.7109C424.211 15.5859 424.805 15.6484 425.383 15.8984C425.961 16.1328 426.414 16.5078 426.742 17.0234C427.086 17.5234 427.258 18.0781 427.258 18.6875V33.1719C428.57 31.9062 429.758 30.5703 430.82 29.1641C431.883 27.7578 432.867 26.3125 433.773 24.8281C434.695 23.3281 435.555 21.8125 436.352 20.2812C437.164 18.7344 437.953 17.1953 438.719 15.6641H445.539ZM453.836 10.4609H447.742V4.95312H453.836V10.4609ZM453.836 41H447.742V15.6641H453.836V41ZM482.734 21.7578H472.094V41H465.93V21.7578H458.008V15.6641H465.93V7.39062H472.094V15.6641H482.734V21.7578ZM514.914 41H508.82V24.1953C508.82 23.3984 508.617 22.7969 508.211 22.3906C507.805 21.9688 507.195 21.7578 506.383 21.7578H495.391V15.6641H506.383C506.961 15.6641 507.57 15.7344 508.211 15.875C508.852 16 509.484 16.2031 510.109 16.4844C510.75 16.7656 511.359 17.1328 511.938 17.5859C512.516 18.0234 513.023 18.5625 513.461 19.2031C513.898 19.8281 514.25 20.5547 514.516 21.3828C514.781 22.2109 514.914 23.1484 514.914 24.1953V41ZM492.93 41H486.836V4.95312H492.93V41ZM582.484 41H560.5C559.938 41 559.328 40.9375 558.672 40.8125C558.031 40.6719 557.391 40.4609 556.75 40.1797C556.125 39.8984 555.523 39.5391 554.945 39.1016C554.367 38.6484 553.852 38.1094 553.398 37.4844C552.961 36.8438 552.609 36.1094 552.344 35.2812C552.078 34.4375 551.945 33.4922 551.945 32.4453V15.9453C551.945 15.3828 552.008 14.7812 552.133 14.1406C552.273 13.4844 552.484 12.8438 552.766 12.2188C553.047 11.5781 553.414 10.9688 553.867 10.3906C554.32 9.8125 554.859 9.30469 555.484 8.86719C556.125 8.41406 556.859 8.05469 557.688 7.78906C558.516 7.52344 559.453 7.39062 560.5 7.39062H582.484V13.4844H560.5C559.703 13.4844 559.094 13.6953 558.672 14.1172C558.25 14.5391 558.039 15.1641 558.039 15.9922V32.4453C558.039 33.2266 558.25 33.8359 558.672 34.2734C559.109 34.6953 559.719 34.9062 560.5 34.9062H582.484V41ZM618.625 13.4844H605.195V41H599.102V13.4844H585.648V7.39062H618.625V13.4844ZM650.922 27.2656H631.656V21.125H650.922V27.2656ZM653.641 13.4844H629.219V41H623.125V10.4609C623.125 10.0391 623.203 9.64062 623.359 9.26562C623.516 8.89062 623.727 8.5625 623.992 8.28125C624.273 8 624.602 7.78125 624.977 7.625C625.352 7.46875 625.758 7.39062 626.195 7.39062H653.641V13.4844Z" fill="#101700"/>
<path d="M45.2636 96.12C44.1436 96.136 43.2156 95.968 42.4796 95.616C41.7436 95.248 41.1676 94.696 40.7516 93.96C40.3356 93.224 40.0396 92.288 39.8636 91.152C39.6876 90.016 39.5996 88.672 39.5996 87.12C39.5996 85.632 39.6876 84.328 39.8636 83.208C40.0556 82.088 40.3756 81.16 40.8236 80.424C41.2716 79.672 41.8796 79.112 42.6476 78.744C43.4316 78.376 44.4076 78.192 45.5756 78.192C46.1996 78.192 46.8476 78.216 47.5196 78.264C48.1916 78.312 48.8476 78.384 49.4876 78.48C50.1276 78.576 50.7196 78.688 51.2636 78.816V80.256C50.9436 80.208 50.4956 80.16 49.9196 80.112C49.3436 80.048 48.6956 80 47.9756 79.968C47.2716 79.936 46.5676 79.92 45.8636 79.92C44.7116 79.92 43.8156 80.16 43.1756 80.64C42.5516 81.104 42.1116 81.872 41.8556 82.944C41.6156 84 41.4956 85.4 41.4956 87.144C41.4956 88.552 41.5596 89.72 41.6876 90.648C41.8316 91.576 42.0636 92.312 42.3836 92.856C42.7036 93.4 43.1356 93.792 43.6796 94.032C44.2396 94.256 44.9436 94.368 45.7916 94.368C46.5436 94.368 47.3196 94.272 48.1196 94.08C48.9196 93.888 49.5996 93.68 50.1596 93.456V88.248H45.8876V86.832C46.1916 86.784 46.5596 86.744 46.9916 86.712C47.4236 86.68 47.8796 86.656 48.3596 86.64C48.8556 86.608 49.3516 86.592 49.8476 86.592C50.2636 86.592 50.6556 86.6 51.0236 86.616C51.3916 86.616 51.7116 86.64 51.9836 86.688V96H50.5916L50.3036 94.752C49.7276 95.04 48.9916 95.336 48.0956 95.64C47.2156 95.944 46.2716 96.104 45.2636 96.12ZM60.5833 96.144C59.2393 96.144 58.1753 95.944 57.3913 95.544C56.6233 95.144 56.0713 94.464 55.7353 93.504C55.3993 92.544 55.2313 91.232 55.2313 89.568C55.2313 87.872 55.3993 86.552 55.7353 85.608C56.0873 84.648 56.6553 83.976 57.4393 83.592C58.2233 83.208 59.2793 83.016 60.6073 83.016C61.7433 83.016 62.6633 83.144 63.3673 83.4C64.0873 83.656 64.6153 84.096 64.9513 84.72C65.3033 85.328 65.4793 86.176 65.4793 87.264C65.4793 88.016 65.3273 88.624 65.0233 89.088C64.7353 89.536 64.3113 89.864 63.7513 90.072C63.2073 90.264 62.5593 90.36 61.8073 90.36H57.1273C57.1433 91.4 57.2553 92.24 57.4633 92.88C57.6713 93.504 58.0473 93.96 58.5913 94.248C59.1513 94.52 59.9673 94.656 61.0393 94.656H65.1673V95.808C64.4313 95.904 63.7113 95.984 63.0073 96.048C62.3033 96.112 61.4953 96.144 60.5833 96.144ZM57.1033 89.112H61.6633C62.3833 89.112 62.9113 88.984 63.2473 88.728C63.5993 88.456 63.7753 87.976 63.7753 87.288C63.7753 86.552 63.6633 85.984 63.4393 85.584C63.2313 85.168 62.8953 84.88 62.4313 84.72C61.9833 84.544 61.3753 84.456 60.6073 84.456C59.7113 84.456 59.0073 84.592 58.4953 84.864C57.9833 85.12 57.6233 85.584 57.4153 86.256C57.2073 86.928 57.1033 87.88 57.1033 89.112ZM72.9197 96C72.0877 96 71.3997 95.864 70.8557 95.592C70.3117 95.32 69.9117 94.88 69.6557 94.272C69.3997 93.664 69.2797 92.856 69.2957 91.848L69.3677 84.744H67.3277V83.52L69.3917 83.184L69.7037 79.608H71.1677V83.184H74.8637V84.744H71.1677V91.848C71.1677 92.408 71.2237 92.856 71.3357 93.192C71.4637 93.528 71.6237 93.784 71.8157 93.96C72.0237 94.136 72.2397 94.264 72.4637 94.344C72.6877 94.408 72.9037 94.448 73.1117 94.464L74.6717 94.608V96H72.9197ZM88.2009 96C87.3689 96 86.6809 95.864 86.1369 95.592C85.5929 95.32 85.1929 94.88 84.9369 94.272C84.6809 93.664 84.5609 92.856 84.5769 91.848L84.6489 84.744H82.6089V83.52L84.6729 83.184L84.9849 79.608H86.4489V83.184H90.1449V84.744H86.4489V91.848C86.4489 92.408 86.5049 92.856 86.6169 93.192C86.7449 93.528 86.9049 93.784 87.0969 93.96C87.3049 94.136 87.5209 94.264 87.7449 94.344C87.9689 94.408 88.1849 94.448 88.3929 94.464L89.9529 94.608V96H88.2009ZM92.7654 96V77.688H94.6614V84.6C95.2534 84.168 95.9574 83.792 96.7734 83.472C97.6054 83.136 98.4694 82.968 99.3654 82.968C100.261 82.968 100.997 83.16 101.573 83.544C102.165 83.928 102.597 84.448 102.869 85.104C103.157 85.76 103.301 86.488 103.301 87.288V96H101.405V87.48C101.405 86.936 101.293 86.456 101.069 86.04C100.861 85.624 100.557 85.296 100.157 85.056C99.7574 84.816 99.2774 84.696 98.7174 84.696C98.1894 84.696 97.7014 84.752 97.2534 84.864C96.8054 84.96 96.3734 85.104 95.9574 85.296C95.5414 85.472 95.1094 85.688 94.6614 85.944V96H92.7654ZM111.771 96.144C110.427 96.144 109.363 95.944 108.579 95.544C107.811 95.144 107.259 94.464 106.923 93.504C106.587 92.544 106.419 91.232 106.419 89.568C106.419 87.872 106.587 86.552 106.923 85.608C107.275 84.648 107.843 83.976 108.627 83.592C109.411 83.208 110.467 83.016 111.795 83.016C112.931 83.016 113.851 83.144 114.555 83.4C115.275 83.656 115.803 84.096 116.139 84.72C116.491 85.328 116.667 86.176 116.667 87.264C116.667 88.016 116.515 88.624 116.211 89.088C115.923 89.536 115.499 89.864 114.939 90.072C114.395 90.264 113.747 90.36 112.995 90.36H108.315C108.331 91.4 108.443 92.24 108.651 92.88C108.859 93.504 109.235 93.96 109.779 94.248C110.339 94.52 111.155 94.656 112.227 94.656H116.355V95.808C115.619 95.904 114.899 95.984 114.195 96.048C113.491 96.112 112.683 96.144 111.771 96.144ZM108.291 89.112H112.851C113.571 89.112 114.099 88.984 114.435 88.728C114.787 88.456 114.963 87.976 114.963 87.288C114.963 86.552 114.851 85.984 114.627 85.584C114.419 85.168 114.083 84.88 113.619 84.72C113.171 84.544 112.563 84.456 111.795 84.456C110.899 84.456 110.195 84.592 109.683 84.864C109.171 85.12 108.811 85.584 108.603 86.256C108.395 86.928 108.291 87.88 108.291 89.112ZM129.688 96.024C128.952 96.024 128.336 95.896 127.84 95.64C127.344 95.368 126.968 94.936 126.712 94.344C126.456 93.736 126.328 92.92 126.328 91.896V77.688H128.224V91.656C128.224 92.424 128.296 93.008 128.44 93.408C128.584 93.792 128.792 94.064 129.064 94.224C129.336 94.368 129.656 94.464 130.024 94.512L131.32 94.656V96.024H129.688ZM135.879 96.144C134.935 96.144 134.159 95.864 133.551 95.304C132.943 94.744 132.639 93.952 132.639 92.928V92.016C132.639 91.008 132.967 90.192 133.623 89.568C134.295 88.944 135.303 88.632 136.647 88.632H140.991V87.048C140.991 86.52 140.895 86.072 140.703 85.704C140.527 85.32 140.199 85.024 139.719 84.816C139.255 84.608 138.575 84.504 137.679 84.504H133.695V83.376C134.255 83.28 134.903 83.192 135.639 83.112C136.391 83.032 137.271 82.992 138.279 82.992C139.319 82.976 140.183 83.104 140.871 83.376C141.559 83.648 142.063 84.08 142.383 84.672C142.719 85.248 142.887 86.008 142.887 86.952V96H141.423L141.063 94.536C140.999 94.6 140.799 94.712 140.463 94.872C140.143 95.032 139.727 95.216 139.215 95.424C138.719 95.616 138.175 95.784 137.583 95.928C137.007 96.072 136.439 96.144 135.879 96.144ZM136.671 94.728C136.959 94.744 137.287 94.712 137.655 94.632C138.023 94.552 138.399 94.464 138.783 94.368C139.167 94.256 139.519 94.144 139.839 94.032C140.175 93.92 140.447 93.824 140.655 93.744C140.863 93.664 140.975 93.624 140.991 93.624V89.592L137.079 89.76C136.167 89.792 135.511 90.016 135.111 90.432C134.727 90.848 134.535 91.384 134.535 92.04V92.616C134.535 93.128 134.639 93.544 134.847 93.864C135.071 94.168 135.343 94.384 135.663 94.512C135.999 94.64 136.335 94.712 136.671 94.728ZM150.709 96C149.877 96 149.189 95.864 148.645 95.592C148.101 95.32 147.701 94.88 147.445 94.272C147.189 93.664 147.069 92.856 147.085 91.848L147.157 84.744H145.117V83.52L147.181 83.184L147.493 79.608H148.957V83.184H152.653V84.744H148.957V91.848C148.957 92.408 149.013 92.856 149.125 93.192C149.253 93.528 149.413 93.784 149.605 93.96C149.813 94.136 150.029 94.264 150.253 94.344C150.477 94.408 150.693 94.448 150.901 94.464L152.461 94.608V96H150.709ZM160.169 96.144C158.825 96.144 157.761 95.944 156.977 95.544C156.209 95.144 155.657 94.464 155.321 93.504C154.985 92.544 154.817 91.232 154.817 89.568C154.817 87.872 154.985 86.552 155.321 85.608C155.673 84.648 156.241 83.976 157.025 83.592C157.809 83.208 158.865 83.016 160.193 83.016C161.329 83.016 162.249 83.144 162.953 83.4C163.673 83.656 164.201 84.096 164.537 84.72C164.889 85.328 165.065 86.176 165.065 87.264C165.065 88.016 164.913 88.624 164.609 89.088C164.321 89.536 163.897 89.864 163.337 90.072C162.793 90.264 162.145 90.36 161.393 90.36H156.713C156.729 91.4 156.841 92.24 157.049 92.88C157.257 93.504 157.633 93.96 158.177 94.248C158.737 94.52 159.553 94.656 160.625 94.656H164.753V95.808C164.017 95.904 163.297 95.984 162.593 96.048C161.889 96.112 161.081 96.144 160.169 96.144ZM156.689 89.112H161.249C161.969 89.112 162.497 88.984 162.833 88.728C163.185 88.456 163.361 87.976 163.361 87.288C163.361 86.552 163.249 85.984 163.025 85.584C162.817 85.168 162.481 84.88 162.017 84.72C161.569 84.544 160.961 84.456 160.193 84.456C159.297 84.456 158.593 84.592 158.081 84.864C157.569 85.12 157.209 85.584 157.001 86.256C156.793 86.928 156.689 87.88 156.689 89.112ZM172.674 96.144C172.354 96.144 171.962 96.136 171.498 96.12C171.034 96.104 170.546 96.08 170.034 96.048C169.538 96.016 169.082 95.984 168.666 95.952C168.266 95.904 167.954 95.856 167.73 95.808V94.656H172.986C173.514 94.656 173.97 94.616 174.354 94.536C174.738 94.456 175.034 94.28 175.242 94.008C175.466 93.736 175.578 93.328 175.578 92.784V92.208C175.578 91.648 175.394 91.216 175.026 90.912C174.658 90.592 174.066 90.432 173.25 90.432H171.45C170.698 90.432 170.026 90.336 169.434 90.144C168.858 89.952 168.41 89.624 168.09 89.16C167.77 88.696 167.61 88.056 167.61 87.24V86.568C167.61 85.768 167.762 85.112 168.066 84.6C168.386 84.088 168.874 83.704 169.53 83.448C170.202 83.192 171.066 83.064 172.122 83.064C172.57 83.064 173.082 83.08 173.658 83.112C174.25 83.144 174.826 83.192 175.386 83.256C175.946 83.304 176.402 83.36 176.754 83.424V84.576H171.81C170.994 84.576 170.362 84.712 169.914 84.984C169.482 85.256 169.266 85.784 169.266 86.568V87.096C169.266 87.592 169.37 87.968 169.578 88.224C169.786 88.464 170.074 88.624 170.442 88.704C170.826 88.784 171.266 88.824 171.762 88.824H173.586C174.754 88.824 175.658 89.096 176.298 89.64C176.938 90.184 177.258 90.968 177.258 91.992V92.88C177.258 93.744 177.058 94.416 176.658 94.896C176.274 95.36 175.738 95.688 175.05 95.88C174.378 96.056 173.586 96.144 172.674 96.144ZM184.506 96C183.674 96 182.986 95.864 182.442 95.592C181.898 95.32 181.498 94.88 181.242 94.272C180.986 93.664 180.866 92.856 180.882 91.848L180.954 84.744H178.914V83.52L180.978 83.184L181.29 79.608H182.754V83.184H186.45V84.744H182.754V91.848C182.754 92.408 182.81 92.856 182.922 93.192C183.05 93.528 183.21 93.784 183.402 93.96C183.61 94.136 183.826 94.264 184.05 94.344C184.274 94.408 184.49 94.448 184.698 94.464L186.258 94.608V96H184.506ZM195.539 96V83.184H197.027L197.435 84.6C198.043 84.168 198.755 83.792 199.571 83.472C200.387 83.136 201.235 82.968 202.115 82.968C203.059 82.968 203.819 83.168 204.395 83.568C204.971 83.968 205.395 84.496 205.667 85.152C205.939 85.808 206.075 86.52 206.075 87.288V96H204.179V87.504C204.179 86.96 204.067 86.48 203.843 86.064C203.635 85.632 203.331 85.296 202.931 85.056C202.547 84.816 202.067 84.696 201.491 84.696C200.963 84.696 200.467 84.752 200.003 84.864C199.555 84.96 199.123 85.104 198.707 85.296C198.307 85.472 197.883 85.688 197.435 85.944V96H195.539ZM214.544 96.144C213.2 96.144 212.136 95.944 211.352 95.544C210.584 95.144 210.032 94.464 209.696 93.504C209.36 92.544 209.192 91.232 209.192 89.568C209.192 87.872 209.36 86.552 209.696 85.608C210.048 84.648 210.616 83.976 211.4 83.592C212.184 83.208 213.24 83.016 214.568 83.016C215.704 83.016 216.624 83.144 217.328 83.4C218.048 83.656 218.576 84.096 218.912 84.72C219.264 85.328 219.44 86.176 219.44 87.264C219.44 88.016 219.288 88.624 218.984 89.088C218.696 89.536 218.272 89.864 217.712 90.072C217.168 90.264 216.52 90.36 215.768 90.36H211.088C211.104 91.4 211.216 92.24 211.424 92.88C211.632 93.504 212.008 93.96 212.552 94.248C213.112 94.52 213.928 94.656 215 94.656H219.128V95.808C218.392 95.904 217.672 95.984 216.968 96.048C216.264 96.112 215.456 96.144 214.544 96.144ZM211.064 89.112H215.624C216.344 89.112 216.872 88.984 217.208 88.728C217.56 88.456 217.736 87.976 217.736 87.288C217.736 86.552 217.624 85.984 217.4 85.584C217.192 85.168 216.856 84.88 216.392 84.72C215.944 84.544 215.336 84.456 214.568 84.456C213.672 84.456 212.968 84.592 212.456 84.864C211.944 85.12 211.584 85.584 211.376 86.256C211.168 86.928 211.064 87.88 211.064 89.112ZM224.918 96L221.03 83.184H222.974L226.118 94.224L229.358 83.184H231.014L234.254 94.224L237.302 83.184H239.246L235.382 96H233.294L230.15 85.728L226.982 96H224.918ZM245.588 96.144C245.268 96.144 244.876 96.136 244.412 96.12C243.948 96.104 243.46 96.08 242.948 96.048C242.452 96.016 241.996 95.984 241.58 95.952C241.18 95.904 240.868 95.856 240.644 95.808V94.656H245.9C246.428 94.656 246.884 94.616 247.268 94.536C247.652 94.456 247.948 94.28 248.156 94.008C248.38 93.736 248.492 93.328 248.492 92.784V92.208C248.492 91.648 248.308 91.216 247.94 90.912C247.572 90.592 246.98 90.432 246.164 90.432H244.364C243.612 90.432 242.94 90.336 242.348 90.144C241.772 89.952 241.324 89.624 241.004 89.16C240.684 88.696 240.524 88.056 240.524 87.24V86.568C240.524 85.768 240.676 85.112 240.98 84.6C241.3 84.088 241.788 83.704 242.444 83.448C243.116 83.192 243.98 83.064 245.036 83.064C245.484 83.064 245.996 83.08 246.572 83.112C247.164 83.144 247.74 83.192 248.3 83.256C248.86 83.304 249.316 83.36 249.668 83.424V84.576H244.724C243.908 84.576 243.276 84.712 242.828 84.984C242.396 85.256 242.18 85.784 242.18 86.568V87.096C242.18 87.592 242.284 87.968 242.492 88.224C242.7 88.464 242.988 88.624 243.356 88.704C243.74 88.784 244.18 88.824 244.676 88.824H246.5C247.668 88.824 248.572 89.096 249.212 89.64C249.852 90.184 250.172 90.968 250.172 91.992V92.88C250.172 93.744 249.972 94.416 249.572 94.896C249.188 95.36 248.652 95.688 247.964 95.88C247.292 96.056 246.5 96.144 245.588 96.144ZM262.136 96.144C261.192 96.144 260.416 95.864 259.808 95.304C259.2 94.744 258.896 93.952 258.896 92.928V92.016C258.896 91.008 259.224 90.192 259.88 89.568C260.552 88.944 261.56 88.632 262.904 88.632H267.248V87.048C267.248 86.52 267.152 86.072 266.96 85.704C266.784 85.32 266.456 85.024 265.976 84.816C265.512 84.608 264.832 84.504 263.936 84.504H259.952V83.376C260.512 83.28 261.16 83.192 261.896 83.112C262.648 83.032 263.528 82.992 264.536 82.992C265.576 82.976 266.44 83.104 267.128 83.376C267.816 83.648 268.32 84.08 268.64 84.672C268.976 85.248 269.144 86.008 269.144 86.952V96H267.68L267.32 94.536C267.256 94.6 267.056 94.712 266.72 94.872C266.4 95.032 265.984 95.216 265.472 95.424C264.976 95.616 264.432 95.784 263.84 95.928C263.264 96.072 262.696 96.144 262.136 96.144ZM262.928 94.728C263.216 94.744 263.544 94.712 263.912 94.632C264.28 94.552 264.656 94.464 265.04 94.368C265.424 94.256 265.776 94.144 266.096 94.032C266.432 93.92 266.704 93.824 266.912 93.744C267.12 93.664 267.232 93.624 267.248 93.624V89.592L263.336 89.76C262.424 89.792 261.768 90.016 261.368 90.432C260.984 90.848 260.792 91.384 260.792 92.04V92.616C260.792 93.128 260.896 93.544 261.104 93.864C261.328 94.168 261.6 94.384 261.92 94.512C262.256 94.64 262.592 94.712 262.928 94.728ZM272.719 96V83.184H274.207L274.615 84.6C275.223 84.168 275.935 83.792 276.751 83.472C277.567 83.136 278.415 82.968 279.295 82.968C280.239 82.968 280.999 83.168 281.575 83.568C282.151 83.968 282.575 84.496 282.847 85.152C283.119 85.808 283.255 86.52 283.255 87.288V96H281.359V87.504C281.359 86.96 281.247 86.48 281.023 86.064C280.815 85.632 280.511 85.296 280.111 85.056C279.727 84.816 279.247 84.696 278.671 84.696C278.143 84.696 277.647 84.752 277.183 84.864C276.735 84.96 276.303 85.104 275.887 85.296C275.487 85.472 275.063 85.688 274.615 85.944V96H272.719ZM290.98 96.144C289.924 96.144 289.052 95.92 288.364 95.472C287.692 95.008 287.188 94.304 286.852 93.36C286.532 92.4 286.372 91.176 286.372 89.688C286.372 88.104 286.532 86.824 286.852 85.848C287.172 84.856 287.684 84.136 288.388 83.688C289.092 83.24 290.036 83.016 291.22 83.016C291.94 83.016 292.644 83.096 293.332 83.256C294.02 83.416 294.628 83.592 295.156 83.784V77.688H297.052V96H295.516L295.156 94.704C294.916 94.912 294.556 95.128 294.076 95.352C293.612 95.576 293.1 95.768 292.54 95.928C291.996 96.072 291.476 96.144 290.98 96.144ZM291.532 94.584C292.268 94.584 292.932 94.472 293.524 94.248C294.132 94.008 294.676 93.76 295.156 93.504V85.128C294.58 84.952 294.028 84.808 293.5 84.696C292.972 84.568 292.38 84.504 291.724 84.504C290.908 84.504 290.244 84.656 289.732 84.96C289.22 85.264 288.844 85.792 288.604 86.544C288.38 87.28 288.268 88.304 288.268 89.616C288.268 90.8 288.372 91.76 288.58 92.496C288.804 93.232 289.156 93.768 289.636 94.104C290.116 94.424 290.748 94.584 291.532 94.584ZM307.389 80.904C307.133 80.904 307.005 80.776 307.005 80.52V78.648C307.005 78.392 307.133 78.264 307.389 78.264H308.733C308.861 78.264 308.949 78.304 308.997 78.384C309.061 78.448 309.093 78.536 309.093 78.648V80.52C309.093 80.776 308.973 80.904 308.733 80.904H307.389ZM307.101 96V83.184H308.997V96H307.101ZM312.656 96V83.184H314.144L314.552 84.6C315.16 84.168 315.872 83.792 316.688 83.472C317.504 83.136 318.352 82.968 319.232 82.968C320.176 82.968 320.936 83.168 321.512 83.568C322.088 83.968 322.512 84.496 322.784 85.152C323.056 85.808 323.192 86.52 323.192 87.288V96H321.296V87.504C321.296 86.96 321.184 86.48 320.96 86.064C320.752 85.632 320.448 85.296 320.048 85.056C319.664 84.816 319.184 84.696 318.608 84.696C318.08 84.696 317.584 84.752 317.12 84.864C316.672 84.96 316.24 85.104 315.824 85.296C315.424 85.472 315 85.688 314.552 85.944V96H312.656ZM331.181 96.144C330.861 96.144 330.469 96.136 330.005 96.12C329.541 96.104 329.053 96.08 328.541 96.048C328.045 96.016 327.589 95.984 327.173 95.952C326.773 95.904 326.461 95.856 326.237 95.808V94.656H331.493C332.021 94.656 332.477 94.616 332.861 94.536C333.245 94.456 333.541 94.28 333.749 94.008C333.973 93.736 334.085 93.328 334.085 92.784V92.208C334.085 91.648 333.901 91.216 333.533 90.912C333.165 90.592 332.573 90.432 331.757 90.432H329.957C329.205 90.432 328.533 90.336 327.941 90.144C327.365 89.952 326.917 89.624 326.597 89.16C326.277 88.696 326.117 88.056 326.117 87.24V86.568C326.117 85.768 326.269 85.112 326.573 84.6C326.893 84.088 327.381 83.704 328.037 83.448C328.709 83.192 329.573 83.064 330.629 83.064C331.077 83.064 331.589 83.08 332.165 83.112C332.757 83.144 333.333 83.192 333.893 83.256C334.453 83.304 334.909 83.36 335.261 83.424V84.576H330.317C329.501 84.576 328.869 84.712 328.421 84.984C327.989 85.256 327.773 85.784 327.773 86.568V87.096C327.773 87.592 327.877 87.968 328.085 88.224C328.293 88.464 328.581 88.624 328.949 88.704C329.333 88.784 329.773 88.824 330.269 88.824H332.093C333.261 88.824 334.165 89.096 334.805 89.64C335.445 90.184 335.765 90.968 335.765 91.992V92.88C335.765 93.744 335.565 94.416 335.165 94.896C334.781 95.36 334.245 95.688 333.557 95.88C332.885 96.056 332.093 96.144 331.181 96.144ZM339.053 80.904C338.797 80.904 338.669 80.776 338.669 80.52V78.648C338.669 78.392 338.797 78.264 339.053 78.264H340.397C340.525 78.264 340.613 78.304 340.661 78.384C340.725 78.448 340.757 78.536 340.757 78.648V80.52C340.757 80.776 340.637 80.904 340.397 80.904H339.053ZM338.765 96V83.184H340.661V96H338.765ZM347.464 101.88C346.632 101.88 345.896 101.76 345.256 101.52C344.632 101.296 344.136 100.944 343.768 100.464C343.416 100 343.24 99.416 343.24 98.712V98.136C343.24 97.4 343.44 96.784 343.84 96.288C344.256 95.792 344.776 95.424 345.4 95.184C346.024 94.928 346.664 94.8 347.32 94.8L347.8 95.568C347.32 95.568 346.872 95.648 346.456 95.808C346.04 95.952 345.696 96.192 345.424 96.528C345.168 96.864 345.04 97.296 345.04 97.824V98.352C345.04 99.12 345.296 99.664 345.808 99.984C346.32 100.32 347.016 100.488 347.896 100.488H350.872C351.832 100.488 352.584 100.304 353.128 99.936C353.688 99.568 353.968 98.992 353.968 98.208V97.728C353.968 97.28 353.88 96.896 353.704 96.576C353.528 96.256 353.232 96.008 352.816 95.832C352.416 95.656 351.848 95.568 351.112 95.568H347.248C346.256 95.568 345.48 95.36 344.92 94.944C344.376 94.512 344.104 93.96 344.104 93.288C344.104 92.648 344.288 92.144 344.656 91.776C345.04 91.408 345.576 91.152 346.264 91.008C345.672 90.768 345.208 90.448 344.872 90.048C344.536 89.632 344.304 89.192 344.176 88.728C344.048 88.248 343.984 87.768 343.984 87.288C343.984 86.296 344.184 85.496 344.584 84.888C344.984 84.28 345.552 83.84 346.288 83.568C347.04 83.296 347.92 83.16 348.928 83.16H355.768V84.24L352.888 84.48C353.096 84.624 353.328 84.816 353.584 85.056C353.84 85.28 354.056 85.608 354.232 86.04C354.424 86.456 354.52 87.032 354.52 87.768C354.52 88.424 354.376 89.048 354.088 89.64C353.816 90.232 353.352 90.72 352.696 91.104C352.04 91.472 351.136 91.656 349.984 91.656H347.944C347.272 91.656 346.736 91.76 346.336 91.968C345.952 92.16 345.76 92.512 345.76 93.024C345.76 93.408 345.904 93.68 346.192 93.84C346.48 94 346.784 94.08 347.104 94.08H351.352C352.344 94.08 353.16 94.208 353.8 94.464C354.456 94.72 354.944 95.112 355.264 95.64C355.6 96.152 355.768 96.808 355.768 97.608V98.136C355.768 99.304 355.368 100.216 354.568 100.872C353.784 101.544 352.608 101.88 351.04 101.88H347.464ZM348.352 90.192H349.792C350.608 90.192 351.224 90.072 351.64 89.832C352.072 89.576 352.368 89.248 352.528 88.848C352.688 88.448 352.768 88.016 352.768 87.552C352.768 86.832 352.648 86.264 352.408 85.848C352.184 85.416 351.864 85.112 351.448 84.936C351.032 84.744 350.552 84.648 350.008 84.648H348.64C347.728 84.648 347.008 84.856 346.48 85.272C345.968 85.672 345.712 86.376 345.712 87.384C345.712 88.376 345.944 89.096 346.408 89.544C346.888 89.976 347.536 90.192 348.352 90.192ZM358.148 96V77.688H360.044V84.6C360.636 84.168 361.34 83.792 362.156 83.472C362.988 83.136 363.852 82.968 364.748 82.968C365.644 82.968 366.38 83.16 366.956 83.544C367.548 83.928 367.98 84.448 368.252 85.104C368.54 85.76 368.684 86.488 368.684 87.288V96H366.788V87.48C366.788 86.936 366.676 86.456 366.452 86.04C366.244 85.624 365.94 85.296 365.54 85.056C365.14 84.816 364.66 84.696 364.1 84.696C363.572 84.696 363.084 84.752 362.636 84.864C362.188 84.96 361.756 85.104 361.34 85.296C360.924 85.472 360.492 85.688 360.044 85.944V96H358.148ZM376.506 96C375.674 96 374.986 95.864 374.442 95.592C373.898 95.32 373.498 94.88 373.242 94.272C372.986 93.664 372.866 92.856 372.882 91.848L372.954 84.744H370.914V83.52L372.978 83.184L373.29 79.608H374.754V83.184H378.45V84.744H374.754V91.848C374.754 92.408 374.81 92.856 374.922 93.192C375.05 93.528 375.21 93.784 375.402 93.96C375.61 94.136 375.826 94.264 376.05 94.344C376.274 94.408 376.49 94.448 376.698 94.464L378.258 94.608V96H376.506ZM385.486 96.144C385.166 96.144 384.774 96.136 384.31 96.12C383.846 96.104 383.358 96.08 382.846 96.048C382.35 96.016 381.894 95.984 381.478 95.952C381.078 95.904 380.766 95.856 380.542 95.808V94.656H385.798C386.326 94.656 386.782 94.616 387.166 94.536C387.55 94.456 387.846 94.28 388.054 94.008C388.278 93.736 388.39 93.328 388.39 92.784V92.208C388.39 91.648 388.206 91.216 387.838 90.912C387.47 90.592 386.878 90.432 386.062 90.432H384.262C383.51 90.432 382.838 90.336 382.246 90.144C381.67 89.952 381.222 89.624 380.902 89.16C380.582 88.696 380.422 88.056 380.422 87.24V86.568C380.422 85.768 380.574 85.112 380.878 84.6C381.198 84.088 381.686 83.704 382.342 83.448C383.014 83.192 383.878 83.064 384.934 83.064C385.382 83.064 385.894 83.08 386.47 83.112C387.062 83.144 387.638 83.192 388.198 83.256C388.758 83.304 389.214 83.36 389.566 83.424V84.576H384.622C383.806 84.576 383.174 84.712 382.726 84.984C382.294 85.256 382.078 85.784 382.078 86.568V87.096C382.078 87.592 382.182 87.968 382.39 88.224C382.598 88.464 382.886 88.624 383.254 88.704C383.638 88.784 384.078 88.824 384.574 88.824H386.398C387.566 88.824 388.47 89.096 389.11 89.64C389.75 90.184 390.07 90.968 390.07 91.992V92.88C390.07 93.744 389.87 94.416 389.47 94.896C389.086 95.36 388.55 95.688 387.862 95.88C387.19 96.056 386.398 96.144 385.486 96.144ZM402.035 96.144C401.091 96.144 400.315 95.864 399.707 95.304C399.099 94.744 398.795 93.952 398.795 92.928V92.016C398.795 91.008 399.123 90.192 399.779 89.568C400.451 88.944 401.459 88.632 402.803 88.632H407.147V87.048C407.147 86.52 407.051 86.072 406.859 85.704C406.683 85.32 406.355 85.024 405.875 84.816C405.411 84.608 404.731 84.504 403.835 84.504H399.851V83.376C400.411 83.28 401.059 83.192 401.795 83.112C402.547 83.032 403.427 82.992 404.435 82.992C405.475 82.976 406.339 83.104 407.027 83.376C407.715 83.648 408.219 84.08 408.539 84.672C408.875 85.248 409.043 86.008 409.043 86.952V96H407.579L407.219 94.536C407.155 94.6 406.955 94.712 406.619 94.872C406.299 95.032 405.883 95.216 405.371 95.424C404.875 95.616 404.331 95.784 403.739 95.928C403.163 96.072 402.595 96.144 402.035 96.144ZM402.827 94.728C403.115 94.744 403.443 94.712 403.811 94.632C404.179 94.552 404.555 94.464 404.939 94.368C405.323 94.256 405.675 94.144 405.995 94.032C406.331 93.92 406.603 93.824 406.811 93.744C407.019 93.664 407.131 93.624 407.147 93.624V89.592L403.235 89.76C402.323 89.792 401.667 90.016 401.267 90.432C400.883 90.848 400.691 91.384 400.691 92.04V92.616C400.691 93.128 400.795 93.544 401.003 93.864C401.227 94.168 401.499 94.384 401.819 94.512C402.155 94.64 402.491 94.712 402.827 94.728ZM418.785 96.144C418.177 96.144 417.609 96.072 417.081 95.928C416.569 95.768 416.097 95.584 415.665 95.376C415.233 95.152 414.849 94.928 414.513 94.704L414.153 96H412.617V77.688H414.513V84.36C415.121 84.008 415.809 83.696 416.577 83.424C417.345 83.152 418.057 83.016 418.713 83.016C419.737 83.016 420.585 83.232 421.257 83.664C421.929 84.096 422.433 84.8 422.769 85.776C423.121 86.752 423.297 88.056 423.297 89.688C423.297 91.016 423.145 92.168 422.841 93.144C422.537 94.104 422.049 94.848 421.377 95.376C420.721 95.888 419.857 96.144 418.785 96.144ZM418.185 94.56C418.889 94.56 419.473 94.384 419.937 94.032C420.417 93.664 420.777 93.112 421.017 92.376C421.273 91.64 421.401 90.72 421.401 89.616C421.401 88.208 421.257 87.152 420.969 86.448C420.697 85.728 420.321 85.24 419.841 84.984C419.361 84.728 418.809 84.6 418.185 84.6C417.465 84.6 416.817 84.704 416.241 84.912C415.681 85.104 415.105 85.36 414.513 85.68V93.528C415.009 93.768 415.553 94 416.145 94.224C416.753 94.448 417.433 94.56 418.185 94.56ZM431.58 96.144C430.652 96.144 429.836 96.048 429.132 95.856C428.444 95.664 427.868 95.328 427.404 94.848C426.94 94.368 426.596 93.704 426.372 92.856C426.148 91.992 426.036 90.896 426.036 89.568C426.036 88.224 426.148 87.128 426.372 86.28C426.596 85.416 426.94 84.752 427.404 84.288C427.868 83.808 428.444 83.48 429.132 83.304C429.836 83.112 430.652 83.016 431.58 83.016C432.508 83.016 433.316 83.112 434.004 83.304C434.708 83.496 435.292 83.832 435.756 84.312C436.22 84.776 436.564 85.44 436.788 86.304C437.028 87.152 437.148 88.24 437.148 89.568C437.148 90.912 437.028 92.016 436.788 92.88C436.564 93.728 436.22 94.392 435.756 94.872C435.308 95.336 434.732 95.664 434.028 95.856C433.324 96.048 432.508 96.144 431.58 96.144ZM431.58 94.584C432.172 94.584 432.692 94.528 433.14 94.416C433.604 94.304 433.988 94.08 434.292 93.744C434.596 93.408 434.828 92.904 434.988 92.232C435.148 91.56 435.228 90.672 435.228 89.568C435.228 88.448 435.148 87.56 434.988 86.904C434.828 86.248 434.596 85.752 434.292 85.416C433.988 85.08 433.604 84.856 433.14 84.744C432.692 84.632 432.172 84.576 431.58 84.576C430.972 84.576 430.444 84.632 429.996 84.744C429.548 84.856 429.172 85.08 428.868 85.416C428.564 85.752 428.332 86.248 428.172 86.904C428.012 87.56 427.932 88.448 427.932 89.568C427.932 90.672 428.012 91.56 428.172 92.232C428.332 92.904 428.564 93.408 428.868 93.744C429.172 94.08 429.548 94.304 429.996 94.416C430.444 94.528 430.972 94.584 431.58 94.584ZM444.16 96.144C442.928 96.144 441.976 95.824 441.304 95.184C440.648 94.544 440.32 93.552 440.32 92.208V83.184H442.216V91.728C442.216 92.8 442.456 93.528 442.936 93.912C443.432 94.28 444.12 94.464 445 94.464C445.752 94.464 446.44 94.36 447.064 94.152C447.688 93.928 448.328 93.624 448.984 93.24V83.184H450.88V96H449.392L448.984 94.584C448.328 95 447.584 95.368 446.752 95.688C445.936 95.992 445.072 96.144 444.16 96.144ZM458.701 96C457.869 96 457.181 95.864 456.637 95.592C456.093 95.32 455.693 94.88 455.437 94.272C455.181 93.664 455.061 92.856 455.077 91.848L455.149 84.744H453.109V83.52L455.173 83.184L455.485 79.608H456.949V83.184H460.645V84.744H456.949V91.848C456.949 92.408 457.005 92.856 457.117 93.192C457.245 93.528 457.405 93.784 457.597 93.96C457.805 94.136 458.021 94.264 458.245 94.344C458.469 94.408 458.685 94.448 458.893 94.464L460.453 94.608V96H458.701ZM475.542 96.144C474.486 96.144 473.566 96.024 472.782 95.784C471.998 95.544 471.35 95.112 470.838 94.488C470.326 93.848 469.942 92.936 469.686 91.752C469.446 90.568 469.326 89.024 469.326 87.12C469.326 85.328 469.454 83.856 469.71 82.704C469.966 81.536 470.35 80.624 470.862 79.968C471.39 79.312 472.054 78.856 472.854 78.6C473.654 78.328 474.598 78.192 475.686 78.192C476.182 78.192 476.734 78.224 477.342 78.288C477.95 78.352 478.55 78.432 479.142 78.528C479.734 78.608 480.27 78.712 480.75 78.84V80.256C480.478 80.208 480.094 80.16 479.598 80.112C479.102 80.064 478.534 80.024 477.894 79.992C477.27 79.944 476.63 79.92 475.974 79.92C475.126 79.92 474.398 80.016 473.79 80.208C473.182 80.4 472.686 80.76 472.302 81.288C471.934 81.8 471.662 82.528 471.486 83.472C471.31 84.416 471.222 85.64 471.222 87.144C471.222 88.664 471.302 89.912 471.462 90.888C471.638 91.848 471.91 92.584 472.278 93.096C472.646 93.608 473.126 93.96 473.718 94.152C474.31 94.344 475.046 94.44 475.926 94.44C477.126 94.44 478.11 94.408 478.878 94.344C479.646 94.28 480.27 94.208 480.75 94.128V95.568C480.27 95.68 479.734 95.784 479.142 95.88C478.566 95.96 477.966 96.024 477.342 96.072C476.734 96.12 476.134 96.144 475.542 96.144ZM487.687 96V80.064H482.239V78.336H495.055V80.064H489.607V96H487.687ZM497.063 96V81.888C497.063 81.2 497.159 80.632 497.351 80.184C497.559 79.72 497.831 79.36 498.167 79.104C498.503 78.832 498.879 78.64 499.295 78.528C499.711 78.4 500.127 78.336 500.543 78.336C501.247 78.352 502.007 78.368 502.823 78.384C503.655 78.4 504.503 78.424 505.367 78.456C506.247 78.472 507.103 78.512 507.935 78.576V80.088H500.999C500.359 80.088 499.863 80.264 499.511 80.616C499.159 80.968 498.983 81.488 498.983 82.176V86.76L506.879 86.88V88.344L498.983 88.464V96H497.063ZM522.021 96.144C520.677 96.144 519.613 95.944 518.829 95.544C518.061 95.144 517.509 94.464 517.173 93.504C516.837 92.544 516.669 91.232 516.669 89.568C516.669 87.872 516.837 86.552 517.173 85.608C517.525 84.648 518.093 83.976 518.877 83.592C519.661 83.208 520.717 83.016 522.045 83.016C523.181 83.016 524.101 83.144 524.805 83.4C525.525 83.656 526.053 84.096 526.389 84.72C526.741 85.328 526.917 86.176 526.917 87.264C526.917 88.016 526.765 88.624 526.461 89.088C526.173 89.536 525.749 89.864 525.189 90.072C524.645 90.264 523.997 90.36 523.245 90.36H518.565C518.581 91.4 518.693 92.24 518.901 92.88C519.109 93.504 519.485 93.96 520.029 94.248C520.589 94.52 521.405 94.656 522.477 94.656H526.605V95.808C525.869 95.904 525.149 95.984 524.445 96.048C523.741 96.112 522.933 96.144 522.021 96.144ZM518.541 89.112H523.101C523.821 89.112 524.349 88.984 524.685 88.728C525.037 88.456 525.213 87.976 525.213 87.288C525.213 86.552 525.101 85.984 524.877 85.584C524.669 85.168 524.333 84.88 523.869 84.72C523.421 84.544 522.813 84.456 522.045 84.456C521.149 84.456 520.445 84.592 519.933 84.864C519.421 85.12 519.061 85.584 518.853 86.256C518.645 86.928 518.541 87.88 518.541 89.112ZM533.331 96L528.507 83.184H530.451L534.435 94.224L538.539 83.184H540.459L535.491 96H533.331ZM547.169 96.144C545.825 96.144 544.761 95.944 543.977 95.544C543.209 95.144 542.657 94.464 542.321 93.504C541.985 92.544 541.817 91.232 541.817 89.568C541.817 87.872 541.985 86.552 542.321 85.608C542.673 84.648 543.241 83.976 544.025 83.592C544.809 83.208 545.865 83.016 547.193 83.016C548.329 83.016 549.249 83.144 549.953 83.4C550.673 83.656 551.201 84.096 551.537 84.72C551.889 85.328 552.065 86.176 552.065 87.264C552.065 88.016 551.913 88.624 551.609 89.088C551.321 89.536 550.897 89.864 550.337 90.072C549.793 90.264 549.145 90.36 548.393 90.36H543.713C543.729 91.4 543.841 92.24 544.049 92.88C544.257 93.504 544.633 93.96 545.177 94.248C545.737 94.52 546.553 94.656 547.625 94.656H551.753V95.808C551.017 95.904 550.297 95.984 549.593 96.048C548.889 96.112 548.081 96.144 547.169 96.144ZM543.689 89.112H548.249C548.969 89.112 549.497 88.984 549.833 88.728C550.185 88.456 550.361 87.976 550.361 87.288C550.361 86.552 550.249 85.984 550.025 85.584C549.817 85.168 549.481 84.88 549.017 84.72C548.569 84.544 547.961 84.456 547.193 84.456C546.297 84.456 545.593 84.592 545.081 84.864C544.569 85.12 544.209 85.584 544.001 86.256C543.793 86.928 543.689 87.88 543.689 89.112ZM555.258 96V83.184H556.746L557.154 84.6C557.762 84.168 558.474 83.792 559.29 83.472C560.106 83.136 560.954 82.968 561.834 82.968C562.778 82.968 563.538 83.168 564.114 83.568C564.69 83.968 565.114 84.496 565.386 85.152C565.658 85.808 565.794 86.52 565.794 87.288V96H563.898V87.504C563.898 86.96 563.786 86.48 563.562 86.064C563.354 85.632 563.05 85.296 562.65 85.056C562.266 84.816 561.786 84.696 561.21 84.696C560.682 84.696 560.186 84.752 559.722 84.864C559.274 84.96 558.842 85.104 558.426 85.296C558.026 85.472 557.602 85.688 557.154 85.944V96H555.258ZM573.615 96C572.783 96 572.095 95.864 571.551 95.592C571.007 95.32 570.607 94.88 570.351 94.272C570.095 93.664 569.975 92.856 569.991 91.848L570.063 84.744H568.023V83.52L570.087 83.184L570.399 79.608H571.863V83.184H575.559V84.744H571.863V91.848C571.863 92.408 571.919 92.856 572.031 93.192C572.159 93.528 572.319 93.784 572.511 93.96C572.719 94.136 572.935 94.264 573.159 94.344C573.383 94.408 573.599 94.448 573.807 94.464L575.367 94.608V96H573.615ZM582.595 96.144C582.275 96.144 581.883 96.136 581.419 96.12C580.955 96.104 580.467 96.08 579.955 96.048C579.459 96.016 579.003 95.984 578.587 95.952C578.187 95.904 577.875 95.856 577.651 95.808V94.656H582.907C583.435 94.656 583.891 94.616 584.275 94.536C584.659 94.456 584.955 94.28 585.163 94.008C585.387 93.736 585.499 93.328 585.499 92.784V92.208C585.499 91.648 585.315 91.216 584.947 90.912C584.579 90.592 583.987 90.432 583.171 90.432H581.371C580.619 90.432 579.947 90.336 579.355 90.144C578.779 89.952 578.331 89.624 578.011 89.16C577.691 88.696 577.531 88.056 577.531 87.24V86.568C577.531 85.768 577.683 85.112 577.987 84.6C578.307 84.088 578.795 83.704 579.451 83.448C580.123 83.192 580.987 83.064 582.043 83.064C582.491 83.064 583.003 83.08 583.579 83.112C584.171 83.144 584.747 83.192 585.307 83.256C585.867 83.304 586.323 83.36 586.675 83.424V84.576H581.731C580.915 84.576 580.283 84.712 579.835 84.984C579.403 85.256 579.187 85.784 579.187 86.568V87.096C579.187 87.592 579.291 87.968 579.499 88.224C579.707 88.464 579.995 88.624 580.363 88.704C580.747 88.784 581.187 88.824 581.683 88.824H583.507C584.675 88.824 585.579 89.096 586.219 89.64C586.859 90.184 587.179 90.968 587.179 91.992V92.88C587.179 93.744 586.979 94.416 586.579 94.896C586.195 95.36 585.659 95.688 584.971 95.88C584.299 96.056 583.507 96.144 582.595 96.144ZM599.144 96.144C598.2 96.144 597.424 95.864 596.816 95.304C596.208 94.744 595.904 93.952 595.904 92.928V92.016C595.904 91.008 596.232 90.192 596.888 89.568C597.56 88.944 598.568 88.632 599.912 88.632H604.256V87.048C604.256 86.52 604.16 86.072 603.968 85.704C603.792 85.32 603.464 85.024 602.984 84.816C602.52 84.608 601.84 84.504 600.944 84.504H596.96V83.376C597.52 83.28 598.168 83.192 598.904 83.112C599.656 83.032 600.536 82.992 601.544 82.992C602.584 82.976 603.448 83.104 604.136 83.376C604.824 83.648 605.328 84.08 605.648 84.672C605.984 85.248 606.152 86.008 606.152 86.952V96H604.688L604.328 94.536C604.264 94.6 604.064 94.712 603.728 94.872C603.408 95.032 602.992 95.216 602.48 95.424C601.984 95.616 601.44 95.784 600.848 95.928C600.272 96.072 599.704 96.144 599.144 96.144ZM599.936 94.728C600.224 94.744 600.552 94.712 600.92 94.632C601.288 94.552 601.664 94.464 602.048 94.368C602.432 94.256 602.784 94.144 603.104 94.032C603.44 93.92 603.712 93.824 603.92 93.744C604.128 93.664 604.24 93.624 604.256 93.624V89.592L600.344 89.76C599.432 89.792 598.776 90.016 598.376 90.432C597.992 90.848 597.8 91.384 597.8 92.04V92.616C597.8 93.128 597.904 93.544 598.112 93.864C598.336 94.168 598.608 94.384 598.928 94.512C599.264 94.64 599.6 94.712 599.936 94.728ZM609.726 96V83.184H611.214L611.622 84.6C612.23 84.168 612.942 83.792 613.758 83.472C614.574 83.136 615.422 82.968 616.302 82.968C617.246 82.968 618.006 83.168 618.582 83.568C619.158 83.968 619.582 84.496 619.854 85.152C620.126 85.808 620.262 86.52 620.262 87.288V96H618.366V87.504C618.366 86.96 618.254 86.48 618.03 86.064C617.822 85.632 617.518 85.296 617.118 85.056C616.734 84.816 616.254 84.696 615.678 84.696C615.15 84.696 614.654 84.752 614.19 84.864C613.742 84.96 613.31 85.104 612.894 85.296C612.494 85.472 612.07 85.688 611.622 85.944V96H609.726ZM627.988 96.144C626.932 96.144 626.06 95.92 625.372 95.472C624.7 95.008 624.196 94.304 623.86 93.36C623.54 92.4 623.38 91.176 623.38 89.688C623.38 88.104 623.54 86.824 623.86 85.848C624.18 84.856 624.692 84.136 625.396 83.688C626.1 83.24 627.044 83.016 628.228 83.016C628.948 83.016 629.652 83.096 630.34 83.256C631.028 83.416 631.636 83.592 632.164 83.784V77.688H634.06V96H632.524L632.164 94.704C631.924 94.912 631.564 95.128 631.084 95.352C630.62 95.576 630.108 95.768 629.548 95.928C629.004 96.072 628.484 96.144 627.988 96.144ZM628.54 94.584C629.276 94.584 629.94 94.472 630.532 94.248C631.14 94.008 631.684 93.76 632.164 93.504V85.128C631.588 84.952 631.036 84.808 630.508 84.696C629.98 84.568 629.388 84.504 628.732 84.504C627.916 84.504 627.252 84.656 626.74 84.96C626.228 85.264 625.852 85.792 625.612 86.544C625.388 87.28 625.276 88.304 625.276 89.616C625.276 90.8 625.38 91.76 625.588 92.496C625.812 93.232 626.164 93.768 626.644 94.104C627.124 94.424 627.756 94.584 628.54 94.584ZM227.242 128.144C226.522 128.144 225.85 128.048 225.226 127.856C224.602 127.664 224.058 127.328 223.594 126.848C223.13 126.368 222.77 125.704 222.514 124.856C222.258 124.008 222.13 122.928 222.13 121.616C222.13 120.288 222.25 119.2 222.49 118.352C222.73 117.488 223.074 116.816 223.522 116.336C223.97 115.856 224.514 115.52 225.154 115.328C225.794 115.136 226.506 115.04 227.29 115.04C227.93 115.04 228.626 115.072 229.378 115.136C230.13 115.184 230.85 115.264 231.538 115.376V116.504H227.794C226.978 116.504 226.29 116.64 225.73 116.912C225.17 117.184 224.746 117.696 224.458 118.448C224.17 119.184 224.026 120.256 224.026 121.664C224.026 123.024 224.178 124.064 224.482 124.784C224.786 125.504 225.218 126 225.778 126.272C226.338 126.528 227.018 126.656 227.818 126.656H231.73V127.76C231.362 127.824 230.93 127.888 230.434 127.952C229.954 128.016 229.442 128.064 228.898 128.096C228.354 128.128 227.802 128.144 227.242 128.144ZM237.783 133.688L239.415 128C239.015 127.984 238.599 127.888 238.167 127.712C237.735 127.536 237.335 127.232 236.967 126.8C236.599 126.368 236.295 125.768 236.055 125L232.983 115.184H234.975L237.831 124.592C238.007 125.088 238.191 125.456 238.383 125.696C238.591 125.936 238.799 126.104 239.007 126.2C239.215 126.296 239.391 126.352 239.535 126.368C239.695 126.368 239.791 126.368 239.823 126.368L243.111 115.184H245.055L240.375 131.312L239.271 133.688H237.783ZM253.504 128.144C252.896 128.144 252.328 128.072 251.8 127.928C251.288 127.768 250.816 127.584 250.384 127.376C249.952 127.152 249.568 126.928 249.232 126.704L248.872 128H247.336V109.688H249.232V116.36C249.84 116.008 250.528 115.696 251.296 115.424C252.064 115.152 252.776 115.016 253.432 115.016C254.456 115.016 255.304 115.232 255.976 115.664C256.648 116.096 257.152 116.8 257.488 117.776C257.84 118.752 258.016 120.056 258.016 121.688C258.016 123.016 257.864 124.168 257.56 125.144C257.256 126.104 256.768 126.848 256.096 127.376C255.44 127.888 254.576 128.144 253.504 128.144ZM252.904 126.56C253.608 126.56 254.192 126.384 254.656 126.032C255.136 125.664 255.496 125.112 255.736 124.376C255.992 123.64 256.12 122.72 256.12 121.616C256.12 120.208 255.976 119.152 255.688 118.448C255.416 117.728 255.04 117.24 254.56 116.984C254.08 116.728 253.528 116.6 252.904 116.6C252.184 116.6 251.536 116.704 250.96 116.912C250.4 117.104 249.824 117.36 249.232 117.68V125.528C249.728 125.768 250.272 126 250.864 126.224C251.472 126.448 252.152 126.56 252.904 126.56ZM266.107 128.144C264.763 128.144 263.699 127.944 262.915 127.544C262.147 127.144 261.595 126.464 261.259 125.504C260.923 124.544 260.755 123.232 260.755 121.568C260.755 119.872 260.923 118.552 261.259 117.608C261.611 116.648 262.179 115.976 262.963 115.592C263.747 115.208 264.803 115.016 266.131 115.016C267.267 115.016 268.187 115.144 268.891 115.4C269.611 115.656 270.139 116.096 270.475 116.72C270.827 117.328 271.003 118.176 271.003 119.264C271.003 120.016 270.851 120.624 270.547 121.088C270.259 121.536 269.835 121.864 269.275 122.072C268.731 122.264 268.083 122.36 267.331 122.36H262.651C262.667 123.4 262.779 124.24 262.987 124.88C263.195 125.504 263.571 125.96 264.115 126.248C264.675 126.52 265.491 126.656 266.563 126.656H270.691V127.808C269.955 127.904 269.235 127.984 268.531 128.048C267.827 128.112 267.019 128.144 266.107 128.144ZM262.627 121.112H267.187C267.907 121.112 268.435 120.984 268.771 120.728C269.123 120.456 269.299 119.976 269.299 119.288C269.299 118.552 269.187 117.984 268.963 117.584C268.755 117.168 268.419 116.88 267.955 116.72C267.507 116.544 266.899 116.456 266.131 116.456C265.235 116.456 264.531 116.592 264.019 116.864C263.507 117.12 263.147 117.584 262.939 118.256C262.731 118.928 262.627 119.88 262.627 121.112ZM274.195 128V115.184H275.635L276.091 117.416C276.667 116.728 277.307 116.16 278.011 115.712C278.731 115.264 279.555 115.04 280.483 115.04C280.707 115.04 280.915 115.048 281.107 115.064C281.315 115.08 281.507 115.112 281.683 115.16V117.104C281.475 117.072 281.251 117.048 281.011 117.032C280.771 117 280.531 116.984 280.291 116.984C279.699 116.984 279.171 117.056 278.707 117.2C278.243 117.344 277.803 117.56 277.387 117.848C276.971 118.136 276.539 118.488 276.091 118.904V128H274.195ZM288.502 128.144C288.182 128.144 287.79 128.136 287.326 128.12C286.862 128.104 286.374 128.08 285.862 128.048C285.366 128.016 284.91 127.984 284.494 127.952C284.094 127.904 283.782 127.856 283.558 127.808V126.656H288.814C289.342 126.656 289.798 126.616 290.182 126.536C290.566 126.456 290.862 126.28 291.07 126.008C291.294 125.736 291.406 125.328 291.406 124.784V124.208C291.406 123.648 291.222 123.216 290.854 122.912C290.486 122.592 289.894 122.432 289.078 122.432H287.278C286.526 122.432 285.854 122.336 285.262 122.144C284.686 121.952 284.238 121.624 283.918 121.16C283.598 120.696 283.438 120.056 283.438 119.24V118.568C283.438 117.768 283.59 117.112 283.894 116.6C284.214 116.088 284.702 115.704 285.358 115.448C286.03 115.192 286.894 115.064 287.95 115.064C288.398 115.064 288.91 115.08 289.486 115.112C290.078 115.144 290.654 115.192 291.214 115.256C291.774 115.304 292.23 115.36 292.582 115.424V116.576H287.638C286.822 116.576 286.19 116.712 285.742 116.984C285.31 117.256 285.094 117.784 285.094 118.568V119.096C285.094 119.592 285.198 119.968 285.406 120.224C285.614 120.464 285.902 120.624 286.27 120.704C286.654 120.784 287.094 120.824 287.59 120.824H289.414C290.582 120.824 291.486 121.096 292.126 121.64C292.766 122.184 293.086 122.968 293.086 123.992V124.88C293.086 125.744 292.886 126.416 292.486 126.896C292.102 127.36 291.566 127.688 290.878 127.88C290.206 128.056 289.414 128.144 288.502 128.144ZM300.982 128.144C299.638 128.144 298.574 127.944 297.79 127.544C297.022 127.144 296.47 126.464 296.134 125.504C295.798 124.544 295.63 123.232 295.63 121.568C295.63 119.872 295.798 118.552 296.134 117.608C296.486 116.648 297.054 115.976 297.838 115.592C298.622 115.208 299.678 115.016 301.006 115.016C302.142 115.016 303.062 115.144 303.766 115.4C304.486 115.656 305.014 116.096 305.35 116.72C305.702 117.328 305.878 118.176 305.878 119.264C305.878 120.016 305.726 120.624 305.422 121.088C305.134 121.536 304.71 121.864 304.15 122.072C303.606 122.264 302.958 122.36 302.206 122.36H297.526C297.542 123.4 297.654 124.24 297.862 124.88C298.07 125.504 298.446 125.96 298.99 126.248C299.55 126.52 300.366 126.656 301.438 126.656H305.566V127.808C304.83 127.904 304.11 127.984 303.406 128.048C302.702 128.112 301.894 128.144 300.982 128.144ZM297.502 121.112H302.062C302.782 121.112 303.31 120.984 303.646 120.728C303.998 120.456 304.174 119.976 304.174 119.288C304.174 118.552 304.062 117.984 303.838 117.584C303.63 117.168 303.294 116.88 302.83 116.72C302.382 116.544 301.774 116.456 301.006 116.456C300.11 116.456 299.406 116.592 298.894 116.864C298.382 117.12 298.022 117.584 297.814 118.256C297.606 118.928 297.502 119.88 297.502 121.112ZM313.726 128.144C313.006 128.144 312.334 128.048 311.71 127.856C311.086 127.664 310.542 127.328 310.078 126.848C309.614 126.368 309.254 125.704 308.998 124.856C308.742 124.008 308.614 122.928 308.614 121.616C308.614 120.288 308.734 119.2 308.974 118.352C309.214 117.488 309.558 116.816 310.006 116.336C310.454 115.856 310.998 115.52 311.638 115.328C312.278 115.136 312.99 115.04 313.774 115.04C314.414 115.04 315.11 115.072 315.862 115.136C316.614 115.184 317.334 115.264 318.022 115.376V116.504H314.278C313.462 116.504 312.774 116.64 312.214 116.912C311.654 117.184 311.23 117.696 310.942 118.448C310.654 119.184 310.51 120.256 310.51 121.664C310.51 123.024 310.662 124.064 310.966 124.784C311.27 125.504 311.702 126 312.262 126.272C312.822 126.528 313.502 126.656 314.302 126.656H318.214V127.76C317.846 127.824 317.414 127.888 316.918 127.952C316.438 128.016 315.926 128.064 315.382 128.096C314.838 128.128 314.286 128.144 313.726 128.144ZM324.652 128.144C323.42 128.144 322.468 127.824 321.796 127.184C321.14 126.544 320.812 125.552 320.812 124.208V115.184H322.708V123.728C322.708 124.8 322.948 125.528 323.428 125.912C323.924 126.28 324.612 126.464 325.492 126.464C326.244 126.464 326.932 126.36 327.556 126.152C328.18 125.928 328.82 125.624 329.476 125.24V115.184H331.372V128H329.884L329.476 126.584C328.82 127 328.076 127.368 327.244 127.688C326.428 127.992 325.564 128.144 324.652 128.144ZM334.945 128V115.184H336.385L336.841 117.416C337.417 116.728 338.057 116.16 338.761 115.712C339.481 115.264 340.305 115.04 341.233 115.04C341.457 115.04 341.665 115.048 341.857 115.064C342.065 115.08 342.257 115.112 342.433 115.16V117.104C342.225 117.072 342.001 117.048 341.761 117.032C341.521 117 341.281 116.984 341.041 116.984C340.449 116.984 339.921 117.056 339.457 117.2C338.993 117.344 338.553 117.56 338.137 117.848C337.721 118.136 337.289 118.488 336.841 118.904V128H334.945ZM345.124 112.904C344.868 112.904 344.74 112.776 344.74 112.52V110.648C344.74 110.392 344.868 110.264 345.124 110.264H346.468C346.596 110.264 346.684 110.304 346.732 110.384C346.796 110.448 346.828 110.536 346.828 110.648V112.52C346.828 112.776 346.708 112.904 346.468 112.904H345.124ZM344.836 128V115.184H346.732V128H344.836ZM354.638 128C353.806 128 353.118 127.864 352.574 127.592C352.03 127.32 351.63 126.88 351.374 126.272C351.118 125.664 350.998 124.856 351.014 123.848L351.086 116.744H349.046V115.52L351.11 115.184L351.422 111.608H352.886V115.184H356.582V116.744H352.886V123.848C352.886 124.408 352.942 124.856 353.054 125.192C353.182 125.528 353.342 125.784 353.534 125.96C353.742 126.136 353.958 126.264 354.182 126.344C354.406 126.408 354.622 126.448 354.83 126.464L356.39 126.608V128H354.638ZM362.635 133.688L364.267 128C363.867 127.984 363.451 127.888 363.019 127.712C362.587 127.536 362.187 127.232 361.819 126.8C361.451 126.368 361.147 125.768 360.907 125L357.835 115.184H359.827L362.683 124.592C362.859 125.088 363.043 125.456 363.235 125.696C363.443 125.936 363.651 126.104 363.859 126.2C364.067 126.296 364.243 126.352 364.387 126.368C364.547 126.368 364.643 126.368 364.675 126.368L367.963 115.184H369.907L365.227 131.312L364.123 133.688H362.635ZM382.904 128C382.072 128 381.384 127.864 380.84 127.592C380.296 127.32 379.896 126.88 379.64 126.272C379.384 125.664 379.264 124.856 379.28 123.848L379.352 116.744H377.312V115.52L379.376 115.184L379.688 111.608H381.152V115.184H384.848V116.744H381.152V123.848C381.152 124.408 381.208 124.856 381.32 125.192C381.448 125.528 381.608 125.784 381.8 125.96C382.008 126.136 382.224 126.264 382.448 126.344C382.672 126.408 382.888 126.448 383.096 126.464L384.656 126.608V128H382.904ZM387.469 128V115.184H388.909L389.365 117.416C389.941 116.728 390.581 116.16 391.285 115.712C392.005 115.264 392.829 115.04 393.757 115.04C393.981 115.04 394.189 115.048 394.381 115.064C394.589 115.08 394.781 115.112 394.957 115.16V117.104C394.749 117.072 394.525 117.048 394.285 117.032C394.045 117 393.805 116.984 393.565 116.984C392.973 116.984 392.445 117.056 391.981 117.2C391.517 117.344 391.077 117.56 390.661 117.848C390.245 118.136 389.813 118.488 389.365 118.904V128H387.469ZM402.255 128.144C400.911 128.144 399.847 127.944 399.063 127.544C398.295 127.144 397.743 126.464 397.407 125.504C397.071 124.544 396.903 123.232 396.903 121.568C396.903 119.872 397.071 118.552 397.407 117.608C397.759 116.648 398.327 115.976 399.111 115.592C399.895 115.208 400.951 115.016 402.279 115.016C403.415 115.016 404.335 115.144 405.039 115.4C405.759 115.656 406.287 116.096 406.623 116.72C406.975 117.328 407.151 118.176 407.151 119.264C407.151 120.016 406.999 120.624 406.695 121.088C406.407 121.536 405.983 121.864 405.423 122.072C404.879 122.264 404.231 122.36 403.479 122.36H398.799C398.815 123.4 398.927 124.24 399.135 124.88C399.343 125.504 399.719 125.96 400.263 126.248C400.823 126.52 401.639 126.656 402.711 126.656H406.839V127.808C406.103 127.904 405.383 127.984 404.679 128.048C403.975 128.112 403.167 128.144 402.255 128.144ZM398.775 121.112H403.335C404.055 121.112 404.583 120.984 404.919 120.728C405.271 120.456 405.447 119.976 405.447 119.288C405.447 118.552 405.335 117.984 405.111 117.584C404.903 117.168 404.567 116.88 404.103 116.72C403.655 116.544 403.047 116.456 402.279 116.456C401.383 116.456 400.679 116.592 400.167 116.864C399.655 117.12 399.295 117.584 399.087 118.256C398.879 118.928 398.775 119.88 398.775 121.112ZM410.344 128V115.184H411.832L412.24 116.6C412.848 116.168 413.56 115.792 414.376 115.472C415.192 115.136 416.04 114.968 416.92 114.968C417.864 114.968 418.624 115.168 419.2 115.568C419.776 115.968 420.2 116.496 420.472 117.152C420.744 117.808 420.88 118.52 420.88 119.288V128H418.984V119.504C418.984 118.96 418.872 118.48 418.648 118.064C418.44 117.632 418.136 117.296 417.736 117.056C417.352 116.816 416.872 116.696 416.296 116.696C415.768 116.696 415.272 116.752 414.808 116.864C414.36 116.96 413.928 117.104 413.512 117.296C413.112 117.472 412.688 117.688 412.24 117.944V128H410.344ZM428.605 128.144C427.549 128.144 426.677 127.92 425.989 127.472C425.317 127.008 424.813 126.304 424.477 125.36C424.157 124.4 423.997 123.176 423.997 121.688C423.997 120.104 424.157 118.824 424.477 117.848C424.797 116.856 425.309 116.136 426.013 115.688C426.717 115.24 427.661 115.016 428.845 115.016C429.565 115.016 430.269 115.096 430.957 115.256C431.645 115.416 432.253 115.592 432.781 115.784V109.688H434.677V128H433.141L432.781 126.704C432.541 126.912 432.181 127.128 431.701 127.352C431.237 127.576 430.725 127.768 430.165 127.928C429.621 128.072 429.101 128.144 428.605 128.144ZM429.157 126.584C429.893 126.584 430.557 126.472 431.149 126.248C431.757 126.008 432.301 125.76 432.781 125.504V117.128C432.205 116.952 431.653 116.808 431.125 116.696C430.597 116.568 430.005 116.504 429.349 116.504C428.533 116.504 427.869 116.656 427.357 116.96C426.845 117.264 426.469 117.792 426.229 118.544C426.005 119.28 425.893 120.304 425.893 121.616C425.893 122.8 425.997 123.76 426.205 124.496C426.429 125.232 426.781 125.768 427.261 126.104C427.741 126.424 428.373 126.584 429.157 126.584ZM442.674 128.144C442.354 128.144 441.962 128.136 441.498 128.12C441.034 128.104 440.546 128.08 440.034 128.048C439.538 128.016 439.082 127.984 438.666 127.952C438.266 127.904 437.954 127.856 437.73 127.808V126.656H442.986C443.514 126.656 443.97 126.616 444.354 126.536C444.738 126.456 445.034 126.28 445.242 126.008C445.466 125.736 445.578 125.328 445.578 124.784V124.208C445.578 123.648 445.394 123.216 445.026 122.912C444.658 122.592 444.066 122.432 443.25 122.432H441.45C440.698 122.432 440.026 122.336 439.434 122.144C438.858 121.952 438.41 121.624 438.09 121.16C437.77 120.696 437.61 120.056 437.61 119.24V118.568C437.61 117.768 437.762 117.112 438.066 116.6C438.386 116.088 438.874 115.704 439.53 115.448C440.202 115.192 441.066 115.064 442.122 115.064C442.57 115.064 443.082 115.08 443.658 115.112C444.25 115.144 444.826 115.192 445.386 115.256C445.946 115.304 446.402 115.36 446.754 115.424V116.576H441.81C440.994 116.576 440.362 116.712 439.914 116.984C439.482 117.256 439.266 117.784 439.266 118.568V119.096C439.266 119.592 439.37 119.968 439.578 120.224C439.786 120.464 440.074 120.624 440.442 120.704C440.826 120.784 441.266 120.824 441.762 120.824H443.586C444.754 120.824 445.658 121.096 446.298 121.64C446.938 122.184 447.258 122.968 447.258 123.992V124.88C447.258 125.744 447.058 126.416 446.658 126.896C446.274 127.36 445.738 127.688 445.05 127.88C444.378 128.056 443.586 128.144 442.674 128.144ZM450.306 128.024C450.05 128.024 449.922 127.896 449.922 127.64V125.72C449.922 125.464 450.05 125.336 450.306 125.336H451.362C451.618 125.336 451.746 125.464 451.746 125.72V127.64C451.746 127.768 451.706 127.864 451.626 127.928C451.562 127.992 451.474 128.024 451.362 128.024H450.306Z" fill="#101700"/>
</svg>
